Araya-300.ufo
<glyph name="exclam" format="1">
  <advance width="261"/>
  <unicode hex="0021"/>
  <note>
	exclam
  </note>
  <outline>
    <contour>
      <point x="148" y="173" type="line"/>
      <point x="154" y="410" type="line"/>
      <point x="154" y="612" type="line"/>
      <point x="106" y="612" type="line"/>
      <point x="106" y="410" type="line"/>
      <point x="113" y="173" type="line"/>
    </contour>
    <contour>
      <point x="156" y="0" type="line"/>
      <point x="156" y="79" type="line"/>
      <point x="105" y="79" type="line"/>
      <point x="105" y="0" type="line"/>
    </contour>
  </outline>
</glyph>
<glyph name="dollar" format="1">
  <advance width="538"/>
  <unicode hex="0024"/>
  <note>
	dollar
  </note>
  <outline>
    <contour>
      <point x="297" y="-110" type="line"/>
      <point x="297" y="-6" type="line"/>
      <point x="425" y="3"/>
      <point x="460" y="80"/>
      <point x="460" y="163" type="curve" smooth="yes"/>
      <point x="460" y="257"/>
      <point x="416" y="296"/>
      <point x="297" y="330" type="curve" smooth="yes"/>
      <point x="191" y="360"/>
      <point x="142" y="385"/>
      <point x="142" y="462" type="curve" smooth="yes"/>
      <point x="142" y="541"/>
      <point x="186" y="584"/>
      <point x="285" y="584" type="curve" smooth="yes"/>
      <point x="323" y="584"/>
      <point x="356" y="580"/>
      <point x="392" y="575" type="curve"/>
      <point x="398" y="490" type="line"/>
      <point x="428" y="490" type="line"/>
      <point x="435" y="513"/>
      <point x="440" y="543"/>
      <point x="440" y="569" type="curve" smooth="yes"/>
      <point x="440" y="590" type="line"/>
      <point x="406" y="610"/>
      <point x="364" y="622"/>
      <point x="302" y="626" type="curve"/>
      <point x="302" y="712" type="line"/>
      <point x="258" y="712" type="line"/>
      <point x="258" y="625" type="line"/>
      <point x="145" y="612"/>
      <point x="95" y="555"/>
      <point x="95" y="458" type="curve" smooth="yes"/>
      <point x="95" y="352"/>
      <point x="182" y="314"/>
      <point x="280" y="286" type="curve" smooth="yes"/>
      <point x="382" y="257"/>
      <point x="413" y="231"/>
      <point x="413" y="152" type="curve" smooth="yes"/>
      <point x="413" y="113"/>
      <point x="406" y="83"/>
      <point x="392" y="53" type="curve"/>
      <point x="357" y="44"/>
      <point x="317" y="38"/>
      <point x="268" y="38" type="curve" smooth="yes"/>
      <point x="202" y="38"/>
      <point x="152" y="48"/>
      <point x="96" y="75" type="curve"/>
      <point x="79" y="34" type="line"/>
      <point x="131" y="8"/>
      <point x="186" y="-7"/>
      <point x="253" y="-8" type="curve"/>
      <point x="253" y="-110" type="line"/>
    </contour>
  </outline>
</glyph>
<glyph name="quotesingle" format="1">
  <advance width="230"/>
  <unicode hex="0027"/>
  <note>
	quotesingle
  </note>
  <outline>
    <contour>
      <point x="128" y="423" type="line"/>
      <point x="136" y="551" type="line" smooth="yes"/>
      <point x="137" y="570"/>
      <point x="137" y="590"/>
      <point x="134" y="612" type="curve"/>
      <point x="96" y="612" type="line"/>
      <point x="93" y="590"/>
      <point x="93" y="570"/>
      <point x="94" y="551" type="curve" smooth="yes"/>
      <point x="102" y="423" type="line"/>
    </contour>
  </outline>
</glyph>
<glyph name="asterisk" format="1">
  <advance width="496"/>
  <unicode hex="002A"/>
  <note>
	asterisk
  </note>
  <outline>
    <contour>
      <point x="246" y="447" type="line"/>
      <point x="251" y="447" type="line"/>
      <point x="331" y="323" type="line"/>
      <point x="368" y="349" type="line"/>
      <point x="275" y="466" type="line"/>
      <point x="276" y="470" type="line"/>
      <point x="407" y="506" type="line"/>
      <point x="394" y="548" type="line"/>
      <point x="266" y="497" type="line"/>
      <point x="263" y="500" type="line"/>
      <point x="271" y="645" type="line"/>
      <point x="225" y="645" type="line"/>
      <point x="233" y="500" type="line"/>
      <point x="230" y="497" type="line"/>
      <point x="102" y="548" type="line"/>
      <point x="89" y="506" type="line"/>
      <point x="220" y="470" type="line"/>
      <point x="221" y="466" type="line"/>
      <point x="129" y="349" type="line"/>
      <point x="165" y="323" type="line"/>
    </contour>
  </outline>
</glyph>
<glyph name="plus" format="1">
  <advance width="569"/>
  <unicode hex="002B"/>
  <note>
	plus
  </note>
  <outline>
    <contour>
      <point x="306" y="86" type="line"/>
      <point x="306" y="286" type="line"/>
      <point x="490" y="286" type="line"/>
      <point x="490" y="325" type="line"/>
      <point x="306" y="325" type="line"/>
      <point x="306" y="508" type="line"/>
      <point x="264" y="508" type="line"/>
      <point x="264" y="325" type="line"/>
      <point x="79" y="325" type="line"/>
      <point x="79" y="286" type="line"/>
      <point x="264" y="286" type="line"/>
      <point x="264" y="86" type="line"/>
    </contour>
  </outline>
</glyph>
<glyph name="comma" format="1">
  <advance width="238"/>
  <unicode hex="002C"/>
  <note>
	comma
  </note>
  <outline>
    <contour>
      <point x="151" y="-60"/>
      <point x="167" y="-18"/>
      <point x="167" y="28" type="curve" smooth="yes"/>
      <point x="167" y="69"/>
      <point x="149" y="90"/>
      <point x="111" y="90" type="curve" smooth="yes"/>
      <point x="97" y="90"/>
      <point x="84" y="87"/>
      <point x="73" y="84" type="curve"/>
      <point x="73" y="51" type="line"/>
      <point x="128" y="51" type="line"/>
      <point x="128" y="-10"/>
      <point x="115" y="-49"/>
      <point x="92" y="-90" type="curve"/>
      <point x="122" y="-97" type="line"/>
    </contour>
  </outline>
</glyph>
<glyph name="hyphen" format="1">
  <advance width="387"/>
  <unicode hex="002D"/>
  <note>
	hyphen
  </note>
  <outline>
    <contour>
      <point x="319" y="259" type="line"/>
      <point x="319" y="300" type="line"/>
      <point x="68" y="300" type="line"/>
      <point x="68" y="259" type="line"/>
    </contour>
  </outline>
</glyph>
<glyph name="zero" format="1">
  <advance width="631"/>
  <unicode hex="0030"/>
  <note>
	zero
  </note>
  <outline>
    <contour>
      <point x="498" y="-5"/>
      <point x="548" y="119"/>
      <point x="548" y="306" type="curve" smooth="yes"/>
      <point x="548" y="507"/>
      <point x="478" y="602"/>
      <point x="326" y="602" type="curve" smooth="yes"/>
      <point x="134" y="602"/>
      <point x="84" y="476"/>
      <point x="84" y="290" type="curve" smooth="yes"/>
      <point x="84" y="89"/>
      <point x="156" y="-5"/>
      <point x="306" y="-5" type="curve" smooth="yes"/>
    </contour>
    <contour>
      <point x="179" y="39"/>
      <point x="131" y="114"/>
      <point x="131" y="301" type="curve" smooth="yes"/>
      <point x="131" y="391"/>
      <point x="148" y="466"/>
      <point x="179" y="534" type="curve"/>
      <point x="214" y="548"/>
      <point x="268" y="557"/>
      <point x="315" y="557" type="curve" smooth="yes"/>
      <point x="452" y="557"/>
      <point x="500" y="482"/>
      <point x="500" y="296" type="curve" smooth="yes"/>
      <point x="500" y="205"/>
      <point x="483" y="130"/>
      <point x="452" y="62" type="curve"/>
      <point x="417" y="48"/>
      <point x="364" y="39"/>
      <point x="316" y="39" type="curve" smooth="yes"/>
    </contour>
  </outline>
</glyph>
<glyph name="four" format="1">
  <advance width="577"/>
  <unicode hex="0034"/>
  <note>
	four
  </note>
  <outline>
    <contour>
      <point x="421" y="0" type="line"/>
      <point x="421" y="126" type="line"/>
      <point x="507" y="126" type="line"/>
      <point x="507" y="170" type="line"/>
      <point x="421" y="170" type="line"/>
      <point x="421" y="602" type="line"/>
      <point x="367" y="602" type="line"/>
      <point x="65" y="176" type="line"/>
      <point x="80" y="126" type="line"/>
      <point x="375" y="126" type="line"/>
      <point x="375" y="0" type="line"/>
    </contour>
    <contour>
      <point x="116" y="177" type="line"/>
      <point x="375" y="542" type="line"/>
      <point x="381" y="542" type="line"/>
      <point x="374" y="378" type="line"/>
      <point x="374" y="170" type="line"/>
      <point x="118" y="170" type="line"/>
    </contour>
  </outline>
</glyph>
<glyph name="five" format="1">
  <advance width="537"/>
  <unicode hex="0035"/>
  <note>
	five
  </note>
  <outline>
    <contour>
      <point x="417" y="-6"/>
      <point x="460" y="69"/>
      <point x="460" y="191" type="curve" smooth="yes"/>
      <point x="460" y="312"/>
      <point x="396" y="359"/>
      <point x="290" y="359" type="curve" smooth="yes"/>
      <point x="239" y="359"/>
      <point x="201" y="351"/>
      <point x="147" y="335" type="curve"/>
      <point x="163" y="558" type="line"/>
      <point x="418" y="558" type="line"/>
      <point x="418" y="602" type="line"/>
      <point x="120" y="602" type="line"/>
      <point x="101" y="327" type="line"/>
      <point x="147" y="291" type="line"/>
      <point x="195" y="308"/>
      <point x="233" y="315"/>
      <point x="283" y="315" type="curve" smooth="yes"/>
      <point x="373" y="315"/>
      <point x="413" y="286"/>
      <point x="413" y="185" type="curve" smooth="yes"/>
      <point x="413" y="136"/>
      <point x="405" y="94"/>
      <point x="389" y="56" type="curve"/>
      <point x="348" y="43"/>
      <point x="316" y="38"/>
      <point x="262" y="38" type="curve" smooth="yes"/>
      <point x="204" y="38"/>
      <point x="152" y="46"/>
      <point x="90" y="62" type="curve"/>
      <point x="83" y="18" type="line"/>
      <point x="143" y="2"/>
      <point x="193" y="-6"/>
      <point x="256" y="-6" type="curve" smooth="yes"/>
    </contour>
  </outline>
</glyph>
<glyph name="seven" format="1">
  <advance width="549"/>
  <unicode hex="0037"/>
  <note>
	seven
  </note>
  <outline>
    <contour>
      <point x="289" y="203"/>
      <point x="351" y="360"/>
      <point x="476" y="544" type="curve"/>
      <point x="476" y="602" type="line"/>
      <point x="77" y="602" type="line"/>
      <point x="77" y="559" type="line" smooth="yes"/>
      <point x="77" y="522"/>
      <point x="83" y="491"/>
      <point x="91" y="469" type="curve"/>
      <point x="124" y="469" type="line"/>
      <point x="124" y="558" type="line"/>
      <point x="427" y="558" type="line"/>
      <point x="427" y="552" type="line"/>
      <point x="317" y="396"/>
      <point x="246" y="234"/>
      <point x="199" y="8" type="curve"/>
      <point x="248" y="3" type="line"/>
    </contour>
  </outline>
</glyph>
<glyph name="nine" format="1">
  <advance width="534"/>
  <unicode hex="0039"/>
  <note>
	nine
  </note>
  <outline>
    <contour>
      <point x="364" y="89"/>
      <point x="452" y="186"/>
      <point x="452" y="359" type="curve" smooth="yes"/>
      <point x="452" y="503"/>
      <point x="396" y="599"/>
      <point x="260" y="599" type="curve" smooth="yes"/>
      <point x="113" y="599"/>
      <point x="63" y="505"/>
      <point x="63" y="395" type="curve" smooth="yes"/>
      <point x="63" y="281"/>
      <point x="132" y="220"/>
      <point x="232" y="220" type="curve" smooth="yes"/>
      <point x="302" y="220"/>
      <point x="347" y="239"/>
      <point x="396" y="271" type="curve"/>
      <point x="367" y="159"/>
      <point x="303" y="100"/>
      <point x="188" y="23" type="curve"/>
      <point x="229" y="0" type="line"/>
    </contour>
    <contour>
      <point x="158" y="264"/>
      <point x="110" y="306"/>
      <point x="110" y="395" type="curve" smooth="yes"/>
      <point x="110" y="450"/>
      <point x="119" y="493"/>
      <point x="139" y="540" type="curve"/>
      <point x="175" y="551"/>
      <point x="212" y="555"/>
      <point x="255" y="555" type="curve" smooth="yes"/>
      <point x="357" y="555"/>
      <point x="405" y="489"/>
      <point x="405" y="359" type="curve" smooth="yes"/>
      <point x="405" y="345"/>
      <point x="404" y="327"/>
      <point x="402" y="313" type="curve"/>
      <point x="350" y="278"/>
      <point x="306" y="264"/>
      <point x="240" y="264" type="curve" smooth="yes"/>
    </contour>
  </outline>
</glyph>
<glyph name="semicolon" format="1">
  <advance width="266"/>
  <unicode hex="003B"/>
  <note>
	semicolon
  </note>
  <outline>
    <contour>
      <point x="164" y="-11"/>
      <point x="180" y="31"/>
      <point x="180" y="77" type="curve" smooth="yes"/>
      <point x="180" y="118"/>
      <point x="162" y="139"/>
      <point x="124" y="139" type="curve" smooth="yes"/>
      <point x="110" y="139"/>
      <point x="97" y="136"/>
      <point x="86" y="133" type="curve"/>
      <point x="86" y="100" type="line"/>
      <point x="141" y="100" type="line"/>
      <point x="141" y="39"/>
      <point x="128" y="0"/>
      <point x="105" y="-41" type="curve"/>
      <point x="135" y="-48" type="line"/>
    </contour>
    <contour>
      <point x="163" y="351" type="line"/>
      <point x="163" y="418" type="line"/>
      <point x="97" y="418" type="line"/>
      <point x="97" y="351" type="line"/>
    </contour>
  </outline>
</glyph>
<glyph name="less" format="1">
  <advance width="601"/>
  <unicode hex="003C"/>
  <note>
	less
  </note>
  <outline>
    <contour>
      <point x="498" y="82" type="line"/>
      <point x="134" y="245" type="line"/>
      <point x="134" y="251" type="line"/>
      <point x="498" y="415" type="line"/>
      <point x="484" y="462" type="line"/>
      <point x="84" y="272" type="line"/>
      <point x="84" y="224" type="line"/>
      <point x="484" y="35" type="line"/>
    </contour>
  </outline>
</glyph>
<glyph name="at" format="1">
  <advance width="813"/>
  <unicode hex="0040"/>
  <note>
	at
  </note>
  <outline>
    <contour>
      <point x="523" y="-59"/>
      <point x="598" y="-42"/>
      <point x="653" y="-8" type="curve"/>
      <point x="637" y="22" type="line"/>
      <point x="584" y="-6"/>
      <point x="529" y="-22"/>
      <point x="441" y="-22" type="curve" smooth="yes"/>
      <point x="253" y="-22"/>
      <point x="134" y="66"/>
      <point x="134" y="270" type="curve" smooth="yes"/>
      <point x="134" y="438"/>
      <point x="232" y="570"/>
      <point x="427" y="570" type="curve" smooth="yes"/>
      <point x="602" y="570"/>
      <point x="682" y="463"/>
      <point x="682" y="322" type="curve" smooth="yes"/>
      <point x="682" y="256"/>
      <point x="671" y="204"/>
      <point x="649" y="169" type="curve"/>
      <point x="627" y="161"/>
      <point x="607" y="159"/>
      <point x="579" y="159" type="curve" smooth="yes"/>
      <point x="546" y="159"/>
      <point x="519" y="171"/>
      <point x="500" y="189" type="curve"/>
      <point x="544" y="411" type="line"/>
      <point x="513" y="415" type="line"/>
      <point x="497" y="381" type="line"/>
      <point x="492" y="381" type="line"/>
      <point x="473" y="407"/>
      <point x="447" y="427"/>
      <point x="408" y="427" type="curve" smooth="yes"/>
      <point x="316" y="427"/>
      <point x="267" y="332"/>
      <point x="267" y="236" type="curve" smooth="yes"/>
      <point x="267" y="164"/>
      <point x="307" y="117"/>
      <point x="370" y="117" type="curve" smooth="yes"/>
      <point x="416" y="117"/>
      <point x="447" y="136"/>
      <point x="474" y="169" type="curve"/>
      <point x="480" y="169" type="line"/>
      <point x="505" y="139"/>
      <point x="533" y="122"/>
      <point x="573" y="122" type="curve" smooth="yes"/>
      <point x="686" y="122"/>
      <point x="723" y="224"/>
      <point x="723" y="325" type="curve" smooth="yes"/>
      <point x="723" y="480"/>
      <point x="624" y="606"/>
      <point x="427" y="606" type="curve" smooth="yes"/>
      <point x="203" y="606"/>
      <point x="94" y="452"/>
      <point x="94" y="270" type="curve" smooth="yes"/>
      <point x="94" y="60"/>
      <point x="214" y="-59"/>
      <point x="437" y="-59" type="curve" smooth="yes"/>
    </contour>
    <contour>
      <point x="331" y="154"/>
      <point x="310" y="181"/>
      <point x="310" y="238" type="curve" smooth="yes"/>
      <point x="310" y="319"/>
      <point x="347" y="390"/>
      <point x="414" y="390" type="curve" smooth="yes"/>
      <point x="446" y="390"/>
      <point x="466" y="375"/>
      <point x="487" y="348" type="curve"/>
      <point x="459" y="191" type="line"/>
      <point x="438" y="168"/>
      <point x="413" y="154"/>
      <point x="380" y="154" type="curve" smooth="yes"/>
    </contour>
  </outline>
</glyph>
<glyph name="I" format="1">
  <advance width="225"/>
  <unicode hex="0049"/>
  <note>
	I
  </note>
  <outline>
    <contour>
      <point x="136" y="0" type="line"/>
      <point x="136" y="612" type="line"/>
      <point x="89" y="612" type="line"/>
      <point x="89" y="0" type="line"/>
    </contour>
  </outline>
</glyph>
<glyph name="J" format="1">
  <advance width="411"/>
  <unicode hex="004A"/>
  <note>
	J
  </note>
  <outline>
    <contour>
      <point x="268" y="-9"/>
      <point x="327" y="29"/>
      <point x="327" y="116" type="curve" smooth="yes"/>
      <point x="327" y="616" type="line"/>
      <point x="280" y="616" type="line"/>
      <point x="280" y="119" type="line" smooth="yes"/>
      <point x="280" y="92"/>
      <point x="277" y="74"/>
      <point x="271" y="57" type="curve"/>
      <point x="248" y="44"/>
      <point x="213" y="34"/>
      <point x="167" y="34" type="curve" smooth="yes"/>
      <point x="122" y="34"/>
      <point x="78" y="43"/>
      <point x="44" y="56" type="curve"/>
      <point x="31" y="14" type="line"/>
      <point x="69" y="0"/>
      <point x="118" y="-9"/>
      <point x="163" y="-9" type="curve" smooth="yes"/>
    </contour>
  </outline>
</glyph>
<glyph name="M" format="1">
  <advance width="675"/>
  <unicode hex="004D"/>
  <note>
	M
  </note>
  <outline>
    <contour>
      <point x="124" y="0" type="line"/>
      <point x="140" y="319" type="line"/>
      <point x="146" y="522" type="line"/>
      <point x="152" y="523" type="line"/>
      <point x="316" y="192" type="line"/>
      <point x="359" y="192" type="line"/>
      <point x="523" y="523" type="line"/>
      <point x="529" y="522" type="line"/>
      <point x="535" y="319" type="line"/>
      <point x="550" y="0" type="line"/>
      <point x="598" y="0" type="line"/>
      <point x="567" y="612" type="line"/>
      <point x="520" y="612" type="line"/>
      <point x="341" y="240" type="line"/>
      <point x="334" y="240" type="line"/>
      <point x="155" y="612" type="line"/>
      <point x="107" y="612" type="line"/>
      <point x="77" y="0" type="line"/>
    </contour>
  </outline>
</glyph>
<glyph name="N" format="1">
  <advance width="610"/>
  <unicode hex="004E"/>
  <note>
	N
  </note>
  <outline>
    <contour>
      <point x="133" y="0" type="line"/>
      <point x="133" y="324" type="line"/>
      <point x="125" y="538" type="line"/>
      <point x="132" y="540" type="line"/>
      <point x="471" y="0" type="line"/>
      <point x="524" y="0" type="line"/>
      <point x="524" y="612" type="line"/>
      <point x="477" y="612" type="line"/>
      <point x="477" y="288" type="line"/>
      <point x="484" y="74" type="line"/>
      <point x="478" y="72" type="line"/>
      <point x="139" y="612" type="line"/>
      <point x="86" y="612" type="line"/>
      <point x="86" y="0" type="line"/>
    </contour>
  </outline>
</glyph>
<glyph name="P" format="1">
  <advance width="509"/>
  <unicode hex="0050"/>
  <note>
	P
  </note>
  <outline>
    <contour>
      <point x="133" y="0" type="line"/>
      <point x="133" y="212" type="line"/>
      <point x="251" y="212" type="line" smooth="yes"/>
      <point x="413" y="212"/>
      <point x="469" y="284"/>
      <point x="469" y="419" type="curve" smooth="yes"/>
      <point x="469" y="555"/>
      <point x="395" y="622"/>
      <point x="245" y="622" type="curve" smooth="yes"/>
      <point x="189" y="622"/>
      <point x="137" y="611"/>
      <point x="86" y="598" type="curve"/>
      <point x="86" y="0" type="line"/>
    </contour>
    <contour>
      <point x="133" y="565" type="line"/>
      <point x="169" y="575"/>
      <point x="212" y="578"/>
      <point x="244" y="578" type="curve" smooth="yes"/>
      <point x="360" y="578"/>
      <point x="421" y="532"/>
      <point x="421" y="416" type="curve" smooth="yes"/>
      <point x="421" y="356"/>
      <point x="409" y="307"/>
      <point x="383" y="272" type="curve"/>
      <point x="341" y="260"/>
      <point x="307" y="256"/>
      <point x="244" y="256" type="curve" smooth="yes"/>
      <point x="133" y="256" type="line"/>
    </contour>
  </outline>
</glyph>
<glyph name="T" format="1">
  <advance width="520"/>
  <unicode hex="0054"/>
  <note>
	T
  </note>
  <outline>
    <contour>
      <point x="284" y="0" type="line"/>
      <point x="284" y="567" type="line"/>
      <point x="482" y="567" type="line"/>
      <point x="482" y="612" type="line"/>
      <point x="38" y="612" type="line"/>
      <point x="38" y="567" type="line"/>
      <point x="237" y="567" type="line"/>
      <point x="237" y="0" type="line"/>
    </contour>
  </outline>
</glyph>
<glyph name="W" format="1">
  <advance width="820"/>
  <unicode hex="0057"/>
  <note>
	W
  </note>
  <outline>
    <contour>
      <point x="261" y="0" type="line"/>
      <point x="325" y="144"/>
      <point x="376" y="283"/>
      <point x="414" y="405" type="curve"/>
      <point x="423" y="405" type="line"/>
      <point x="460" y="270"/>
      <point x="497" y="154"/>
      <point x="554" y="0" type="curve"/>
      <point x="615" y="0" type="line"/>
      <point x="668" y="175"/>
      <point x="723" y="382"/>
      <point x="772" y="610" type="curve"/>
      <point x="722" y="617" type="line"/>
      <point x="680" y="395"/>
      <point x="626" y="189"/>
      <point x="587" y="52" type="curve"/>
      <point x="580" y="52" type="line"/>
      <point x="525" y="205"/>
      <point x="462" y="408"/>
      <point x="420" y="610" type="curve"/>
      <point x="373" y="603" type="line"/>
      <point x="379" y="575"/>
      <point x="391" y="519"/>
      <point x="397" y="491" type="curve"/>
      <point x="350" y="334"/>
      <point x="289" y="168"/>
      <point x="240" y="52" type="curve"/>
      <point x="233" y="52" type="line"/>
      <point x="195" y="189"/>
      <point x="141" y="395"/>
      <point x="98" y="617" type="curve"/>
      <point x="48" y="610" type="line"/>
      <point x="98" y="382"/>
      <point x="152" y="175"/>
      <point x="205" y="0" type="curve"/>
    </contour>
  </outline>
</glyph>
<glyph name="Z" format="1">
  <advance width="544"/>
  <unicode hex="005A"/>
  <note>
	Z
  </note>
  <outline>
    <contour>
      <point x="487" y="0" type="line"/>
      <point x="487" y="30" type="line" smooth="yes"/>
      <point x="487" y="63"/>
      <point x="481" y="95"/>
      <point x="472" y="118" type="curve"/>
      <point x="439" y="118" type="line"/>
      <point x="439" y="43" type="line"/>
      <point x="113" y="43" type="line"/>
      <point x="113" y="52" type="line"/>
      <point x="478" y="556" type="line"/>
      <point x="478" y="612" type="line"/>
      <point x="77" y="612" type="line"/>
      <point x="77" y="581" type="line" smooth="yes"/>
      <point x="77" y="547"/>
      <point x="83" y="521"/>
      <point x="91" y="498" type="curve"/>
      <point x="125" y="498" type="line"/>
      <point x="125" y="568" type="line"/>
      <point x="425" y="568" type="line"/>
      <point x="425" y="560" type="line"/>
      <point x="61" y="58" type="line"/>
      <point x="61" y="0" type="line"/>
    </contour>
  </outline>
</glyph>
<glyph name="bracketleft" format="1">
  <advance width="277"/>
  <unicode hex="005B"/>
  <note>
	bracketleft
  </note>
  <outline>
    <contour>
      <point x="194" y="-85" type="line"/>
      <point x="194" y="-44" type="line"/>
      <point x="132" y="-44" type="line"/>
      <point x="132" y="665" type="line"/>
      <point x="194" y="665" type="line"/>
      <point x="194" y="707" type="line"/>
      <point x="86" y="707" type="line"/>
      <point x="86" y="-85" type="line"/>
    </contour>
  </outline>
</glyph>
<glyph name="bracketright" format="1">
  <advance width="277"/>
  <unicode hex="005D"/>
  <note>
	bracketright
  </note>
  <outline>
    <contour>
      <point x="191" y="-85" type="line"/>
      <point x="191" y="707" type="line"/>
      <point x="83" y="707" type="line"/>
      <point x="83" y="665" type="line"/>
      <point x="145" y="665" type="line"/>
      <point x="145" y="-44" type="line"/>
      <point x="83" y="-44" type="line"/>
      <point x="83" y="-85" type="line"/>
    </contour>
  </outline>
</glyph>
<glyph name="asciicircum" format="1">
  <advance width="574"/>
  <unicode hex="005E"/>
  <note>
	asciicircum
  </note>
  <outline>
    <contour>
      <point x="285" y="558" type="line"/>
      <point x="290" y="558" type="line"/>
      <point x="453" y="276" type="line"/>
      <point x="495" y="295" type="line"/>
      <point x="311" y="612" type="line"/>
      <point x="263" y="612" type="line"/>
      <point x="79" y="295" type="line"/>
      <point x="122" y="276" type="line"/>
    </contour>
  </outline>
</glyph>
<glyph name="underscore" format="1">
  <advance width="556"/>
  <unicode hex="005F"/>
  <note>
	underscore
  </note>
  <outline>
    <contour>
      <point x="485" y="-33" type="line"/>
      <point x="485" y="0" type="line"/>
      <point x="71" y="0" type="line"/>
      <point x="71" y="-33" type="line"/>
    </contour>
  </outline>
</glyph>
<glyph name="grave" format="1">
  <advance width="301"/>
  <unicode hex="0060"/>
  <note>
	grave
  </note>
  <outline>
    <contour>
      <point x="182" y="758" type="line"/>
      <point x="98" y="899" type="line"/>
      <point x="36" y="892" type="line"/>
      <point x="150" y="752" type="line"/>
    </contour>
  </outline>
</glyph>
<glyph name="c" format="1">
  <advance width="446"/>
  <unicode hex="0063"/>
  <note>
	c
  </note>
  <outline>
    <contour>
      <point x="327" y="-9"/>
      <point x="373" y="11"/>
      <point x="412" y="42" type="curve"/>
      <point x="388" y="74" type="line"/>
      <point x="354" y="48"/>
      <point x="313" y="33"/>
      <point x="259" y="33" type="curve" smooth="yes"/>
      <point x="152" y="33"/>
      <point x="102" y="98"/>
      <point x="102" y="213" type="curve" smooth="yes"/>
      <point x="102" y="300"/>
      <point x="117" y="362"/>
      <point x="143" y="413" type="curve"/>
      <point x="174" y="426"/>
      <point x="212" y="432"/>
      <point x="250" y="432" type="curve" smooth="yes"/>
      <point x="283" y="432"/>
      <point x="313" y="428"/>
      <point x="340" y="422" type="curve"/>
      <point x="346" y="344" type="line"/>
      <point x="374" y="344" type="line"/>
      <point x="381" y="361"/>
      <point x="384" y="385"/>
      <point x="384" y="413" type="curve" smooth="yes"/>
      <point x="384" y="437" type="line"/>
      <point x="352" y="458"/>
      <point x="308" y="474"/>
      <point x="253" y="474" type="curve" smooth="yes"/>
      <point x="112" y="474"/>
      <point x="58" y="362"/>
      <point x="58" y="211" type="curve" smooth="yes"/>
      <point x="58" y="77"/>
      <point x="115" y="-9"/>
      <point x="257" y="-9" type="curve" smooth="yes"/>
    </contour>
  </outline>
</glyph>
<glyph name="h" format="1">
  <advance width="510"/>
  <unicode hex="0068"/>
  <note>
	h
  </note>
  <outline>
    <contour>
      <point x="130" y="0" type="line"/>
      <point x="130" y="360" type="line"/>
      <point x="171" y="402"/>
      <point x="237" y="433"/>
      <point x="304" y="433" type="curve" smooth="yes"/>
      <point x="337" y="433"/>
      <point x="359" y="429"/>
      <point x="385" y="420" type="curve"/>
      <point x="385" y="0" type="line"/>
      <point x="430" y="0" type="line"/>
      <point x="430" y="383" type="line" smooth="yes"/>
      <point x="430" y="448"/>
      <point x="389" y="474"/>
      <point x="313" y="474" type="curve" smooth="yes"/>
      <point x="244" y="474"/>
      <point x="185" y="446"/>
      <point x="132" y="397" type="curve"/>
      <point x="126" y="397" type="line"/>
      <point x="130" y="485" type="line"/>
      <point x="130" y="667" type="line"/>
      <point x="85" y="667" type="line"/>
      <point x="85" y="0" type="line"/>
    </contour>
  </outline>
</glyph>
<glyph name="i" format="1">
  <advance width="214"/>
  <unicode hex="0069"/>
  <note>
	i
  </note>
  <outline>
    <contour>
      <point x="129" y="0" type="line"/>
      <point x="129" y="465" type="line"/>
      <point x="85" y="465" type="line"/>
      <point x="85" y="0" type="line"/>
    </contour>
    <contour>
      <point x="130" y="554" type="line"/>
      <point x="130" y="643" type="line"/>
      <point x="84" y="643" type="line"/>
      <point x="84" y="554" type="line"/>
    </contour>
  </outline>
</glyph>
<glyph name="k" format="1">
  <advance width="480"/>
  <unicode hex="006B"/>
  <note>
	k
  </note>
  <outline>
    <contour>
      <point x="435" y="-6"/>
      <point x="442" y="-4"/>
      <point x="455" y="-1" type="curve"/>
      <point x="455" y="24" type="line"/>
      <point x="416" y="30" type="line"/>
      <point x="360" y="155" type="line" smooth="yes"/>
      <point x="338" y="203"/>
      <point x="316" y="228"/>
      <point x="263" y="244" type="curve"/>
      <point x="263" y="250" type="line"/>
      <point x="314" y="265"/>
      <point x="335" y="291"/>
      <point x="355" y="335" type="curve" smooth="yes"/>
      <point x="411" y="455" type="line"/>
      <point x="367" y="471" type="line"/>
      <point x="314" y="352" type="line" smooth="yes"/>
      <point x="292" y="305"/>
      <point x="265" y="266"/>
      <point x="187" y="266" type="curve" smooth="yes"/>
      <point x="125" y="266" type="line"/>
      <point x="125" y="667" type="line"/>
      <point x="81" y="667" type="line"/>
      <point x="81" y="0" type="line"/>
      <point x="125" y="0" type="line"/>
      <point x="125" y="227" type="line"/>
      <point x="192" y="227" type="line" smooth="yes"/>
      <point x="264" y="227"/>
      <point x="294" y="195"/>
      <point x="322" y="133" type="curve" smooth="yes"/>
      <point x="370" y="25" type="line" smooth="yes"/>
      <point x="379" y="5"/>
      <point x="395" y="-6"/>
      <point x="419" y="-6" type="curve" smooth="yes"/>
    </contour>
  </outline>
</glyph>
<glyph name="m" format="1">
  <advance width="794"/>
  <unicode hex="006D"/>
  <note>
	m
  </note>
  <outline>
    <contour>
      <point x="129" y="0" type="line"/>
      <point x="129" y="363" type="line"/>
      <point x="175" y="408"/>
      <point x="238" y="433"/>
      <point x="300" y="433" type="curve" smooth="yes"/>
      <point x="333" y="433"/>
      <point x="352" y="428"/>
      <point x="376" y="419" type="curve"/>
      <point x="376" y="0" type="line"/>
      <point x="421" y="0" type="line"/>
      <point x="421" y="364" type="line"/>
      <point x="467" y="408"/>
      <point x="531" y="433"/>
      <point x="592" y="433" type="curve" smooth="yes"/>
      <point x="626" y="433"/>
      <point x="645" y="428"/>
      <point x="669" y="419" type="curve"/>
      <point x="669" y="0" type="line"/>
      <point x="713" y="0" type="line"/>
      <point x="713" y="381" type="line" smooth="yes"/>
      <point x="713" y="450"/>
      <point x="676" y="474"/>
      <point x="598" y="474" type="curve" smooth="yes"/>
      <point x="531" y="474"/>
      <point x="473" y="444"/>
      <point x="423" y="399" type="curve"/>
      <point x="417" y="399" type="line"/>
      <point x="413" y="452"/>
      <point x="376" y="474"/>
      <point x="306" y="474" type="curve" smooth="yes"/>
      <point x="239" y="474"/>
      <point x="181" y="444"/>
      <point x="132" y="399" type="curve"/>
      <point x="125" y="399" type="line"/>
      <point x="121" y="466" type="line"/>
      <point x="84" y="466" type="line"/>
      <point x="84" y="0" type="line"/>
    </contour>
  </outline>
</glyph>
<glyph name="p" format="1">
  <advance width="519"/>
  <unicode hex="0070"/>
  <note>
	p
  </note>
  <outline>
    <contour>
      <point x="130" y="-187" type="line"/>
      <point x="130" y="-24" type="line"/>
      <point x="127" y="61" type="line"/>
      <point x="133" y="61" type="line"/>
      <point x="175" y="22"/>
      <point x="230" y="-2"/>
      <point x="286" y="-2" type="curve" smooth="yes"/>
      <point x="413" y="-2"/>
      <point x="461" y="98"/>
      <point x="461" y="235" type="curve" smooth="yes"/>
      <point x="461" y="394"/>
      <point x="407" y="474"/>
      <point x="300" y="474" type="curve" smooth="yes"/>
      <point x="236" y="474"/>
      <point x="186" y="445"/>
      <point x="136" y="398" type="curve"/>
      <point x="128" y="398" type="line"/>
      <point x="124" y="466" type="line"/>
      <point x="85" y="466" type="line"/>
      <point x="85" y="-187" type="line"/>
    </contour>
    <contour>
      <point x="225" y="38"/>
      <point x="175" y="56"/>
      <point x="129" y="105" type="curve"/>
      <point x="129" y="350" type="line"/>
      <point x="167" y="396"/>
      <point x="224" y="434"/>
      <point x="288" y="434" type="curve" smooth="yes"/>
      <point x="381" y="434"/>
      <point x="414" y="369"/>
      <point x="414" y="237" type="curve" smooth="yes"/>
      <point x="414" y="112"/>
      <point x="379" y="38"/>
      <point x="279" y="38" type="curve" smooth="yes"/>
    </contour>
  </outline>
</glyph>
<glyph name="w" format="1">
  <advance width="699"/>
  <unicode hex="0077"/>
  <note>
	w
  </note>
  <outline>
    <contour>
      <point x="235" y="0" type="line"/>
      <point x="269" y="90"/>
      <point x="315" y="210"/>
      <point x="345" y="304" type="curve"/>
      <point x="350" y="304" type="line"/>
      <point x="379" y="207"/>
      <point x="413" y="103"/>
      <point x="451" y="0" type="curve"/>
      <point x="511" y="0" type="line"/>
      <point x="568" y="149"/>
      <point x="611" y="296"/>
      <point x="660" y="465" type="curve"/>
      <point x="617" y="470" type="line"/>
      <point x="571" y="299"/>
      <point x="526" y="149"/>
      <point x="486" y="43" type="curve"/>
      <point x="475" y="43" type="line"/>
      <point x="437" y="152"/>
      <point x="389" y="301"/>
      <point x="351" y="463" type="curve"/>
      <point x="311" y="457" type="line"/>
      <point x="317" y="431"/>
      <point x="324" y="399"/>
      <point x="331" y="373" type="curve"/>
      <point x="290" y="244"/>
      <point x="240" y="111"/>
      <point x="215" y="45" type="curve"/>
      <point x="205" y="45" type="line"/>
      <point x="166" y="158"/>
      <point x="127" y="302"/>
      <point x="87" y="469" type="curve"/>
      <point x="43" y="464" type="line"/>
      <point x="83" y="296"/>
      <point x="128" y="147"/>
      <point x="181" y="0" type="curve"/>
    </contour>
  </outline>
</glyph>
<glyph name="x" format="1">
  <advance width="473"/>
  <unicode hex="0078"/>
  <note>
	x
  </note>
  <outline>
    <contour>
      <point x="121" y="66"/>
      <point x="169" y="142"/>
      <point x="219" y="215" type="curve"/>
      <point x="254" y="215" type="line"/>
      <point x="302" y="143"/>
      <point x="350" y="66"/>
      <point x="388" y="-6" type="curve"/>
      <point x="432" y="3" type="line"/>
      <point x="391" y="76"/>
      <point x="333" y="168"/>
      <point x="286" y="236" type="curve"/>
      <point x="339" y="308"/>
      <point x="389" y="385"/>
      <point x="433" y="461" type="curve"/>
      <point x="390" y="469" type="line"/>
      <point x="349" y="394"/>
      <point x="308" y="328"/>
      <point x="254" y="254" type="curve"/>
      <point x="220" y="254" type="line"/>
      <point x="168" y="327"/>
      <point x="127" y="394"/>
      <point x="87" y="469" type="curve"/>
      <point x="42" y="461" type="line"/>
      <point x="85" y="386"/>
      <point x="137" y="304"/>
      <point x="188" y="234" type="curve"/>
      <point x="139" y="165"/>
      <point x="81" y="76"/>
      <point x="39" y="3" type="curve"/>
      <point x="82" y="-6" type="line"/>
    </contour>
  </outline>
</glyph>
<glyph name="z" format="1">
  <advance width="436"/>
  <unicode hex="007A"/>
  <note>
	z
  </note>
  <outline>
    <contour>
      <point x="380" y="0" type="line"/>
      <point x="380" y="38" type="line" smooth="yes"/>
      <point x="380" y="57"/>
      <point x="376" y="83"/>
      <point x="371" y="103" type="curve"/>
      <point x="340" y="103" type="line"/>
      <point x="335" y="39" type="line"/>
      <point x="104" y="39" type="line"/>
      <point x="104" y="47" type="line"/>
      <point x="368" y="412" type="line"/>
      <point x="368" y="466" type="line"/>
      <point x="66" y="466" type="line"/>
      <point x="66" y="431" type="line" smooth="yes"/>
      <point x="66" y="409"/>
      <point x="70" y="386"/>
      <point x="75" y="367" type="curve"/>
      <point x="106" y="367" type="line"/>
      <point x="111" y="427" type="line"/>
      <point x="321" y="427" type="line"/>
      <point x="321" y="420" type="line"/>
      <point x="57" y="52" type="line"/>
      <point x="57" y="0" type="line"/>
    </contour>
  </outline>
</glyph>
<glyph name="braceleft" format="1">
  <advance width="403"/>
  <unicode hex="007B"/>
  <note>
	braceleft
  </note>
  <outline>
    <contour>
      <point x="342" y="-78" type="line"/>
      <point x="301" y="-76"/>
      <point x="272" y="-69"/>
      <point x="242" y="-58" type="curve"/>
      <point x="232" y="-15"/>
      <point x="228" y="23"/>
      <point x="230" y="75" type="curve" smooth="yes"/>
      <point x="234" y="173" type="line" smooth="yes"/>
      <point x="238" y="247"/>
      <point x="209" y="295"/>
      <point x="145" y="313" type="curve"/>
      <point x="145" y="319" type="line"/>
      <point x="209" y="337"/>
      <point x="238" y="386"/>
      <point x="234" y="460" type="curve" smooth="yes"/>
      <point x="230" y="543" type="line" smooth="yes"/>
      <point x="228" y="595"/>
      <point x="232" y="633"/>
      <point x="242" y="676" type="curve"/>
      <point x="272" y="688"/>
      <point x="301" y="695"/>
      <point x="342" y="697" type="curve"/>
      <point x="342" y="740" type="line"/>
      <point x="223" y="733"/>
      <point x="177" y="678"/>
      <point x="185" y="547" type="curve" smooth="yes"/>
      <point x="190" y="475" type="line" smooth="yes"/>
      <point x="194" y="401"/>
      <point x="171" y="336"/>
      <point x="71" y="336" type="curve"/>
      <point x="71" y="297" type="line"/>
      <point x="171" y="297"/>
      <point x="194" y="232"/>
      <point x="190" y="158" type="curve" smooth="yes"/>
      <point x="185" y="72" type="line" smooth="yes"/>
      <point x="177" y="-60"/>
      <point x="223" y="-114"/>
      <point x="342" y="-121" type="curve"/>
    </contour>
  </outline>
</glyph>
<glyph name="braceright" format="1">
  <advance width="403"/>
  <unicode hex="007D"/>
  <note>
	braceright
  </note>
  <outline>
    <contour>
      <point x="180" y="-114"/>
      <point x="226" y="-60"/>
      <point x="218" y="72" type="curve" smooth="yes"/>
      <point x="213" y="158" type="line" smooth="yes"/>
      <point x="209" y="232"/>
      <point x="232" y="297"/>
      <point x="332" y="297" type="curve"/>
      <point x="332" y="336" type="line"/>
      <point x="232" y="336"/>
      <point x="209" y="401"/>
      <point x="213" y="475" type="curve" smooth="yes"/>
      <point x="218" y="547" type="line" smooth="yes"/>
      <point x="226" y="678"/>
      <point x="180" y="733"/>
      <point x="61" y="740" type="curve"/>
      <point x="61" y="697" type="line"/>
      <point x="102" y="695"/>
      <point x="131" y="688"/>
      <point x="161" y="676" type="curve"/>
      <point x="171" y="633"/>
      <point x="175" y="595"/>
      <point x="173" y="543" type="curve" smooth="yes"/>
      <point x="169" y="460" type="line" smooth="yes"/>
      <point x="166" y="386"/>
      <point x="194" y="337"/>
      <point x="258" y="319" type="curve"/>
      <point x="258" y="313" type="line"/>
      <point x="194" y="295"/>
      <point x="166" y="247"/>
      <point x="169" y="173" type="curve" smooth="yes"/>
      <point x="173" y="75" type="line" smooth="yes"/>
      <point x="175" y="23"/>
      <point x="171" y="-15"/>
      <point x="161" y="-58" type="curve"/>
      <point x="131" y="-69"/>
      <point x="102" y="-76"/>
      <point x="61" y="-78" type="curve"/>
      <point x="61" y="-121" type="line"/>
    </contour>
  </outline>
</glyph>
<glyph name="asciitilde" format="1">
  <advance width="445"/>
  <unicode hex="007E"/>
  <note>
	asciitilde
  </note>
  <outline>
    <contour>
      <point x="106" y="271"/>
      <point x="121" y="294"/>
      <point x="155" y="294" type="curve" smooth="yes"/>
      <point x="195" y="294"/>
      <point x="233" y="236"/>
      <point x="295" y="236" type="curve" smooth="yes"/>
      <point x="344" y="236"/>
      <point x="375" y="263"/>
      <point x="384" y="333" type="curve"/>
      <point x="347" y="339" type="line"/>
      <point x="339" y="301"/>
      <point x="324" y="278"/>
      <point x="290" y="278" type="curve" smooth="yes"/>
      <point x="245" y="278"/>
      <point x="216" y="336"/>
      <point x="151" y="336" type="curve" smooth="yes"/>
      <point x="102" y="336"/>
      <point x="70" y="309"/>
      <point x="61" y="239" type="curve"/>
      <point x="99" y="233" type="line"/>
    </contour>
  </outline>
</glyph>
<glyph name="cent" format="1">
  <advance width="446"/>
  <unicode hex="00A2"/>
  <note>
	cent
  </note>
  <outline>
    <contour>
      <point x="270" y="-144" type="line"/>
      <point x="270" y="-9" type="line"/>
      <point x="331" y="-7"/>
      <point x="373" y="13"/>
      <point x="409" y="41" type="curve"/>
      <point x="386" y="74" type="line"/>
      <point x="351" y="48"/>
      <point x="310" y="32"/>
      <point x="257" y="32" type="curve" smooth="yes"/>
      <point x="150" y="32"/>
      <point x="105" y="98"/>
      <point x="105" y="213" type="curve" smooth="yes"/>
      <point x="105" y="300"/>
      <point x="122" y="368"/>
      <point x="141" y="410" type="curve"/>
      <point x="171" y="423"/>
      <point x="210" y="429"/>
      <point x="248" y="429" type="curve" smooth="yes"/>
      <point x="281" y="429"/>
      <point x="310" y="425"/>
      <point x="338" y="419" type="curve"/>
      <point x="344" y="345" type="line"/>
      <point x="372" y="345" type="line"/>
      <point x="378" y="362"/>
      <point x="382" y="387"/>
      <point x="382" y="412" type="curve" smooth="yes"/>
      <point x="382" y="434" type="line"/>
      <point x="353" y="452"/>
      <point x="316" y="467"/>
      <point x="269" y="470" type="curve"/>
      <point x="269" y="612" type="line"/>
      <point x="228" y="612" type="line"/>
      <point x="228" y="470" type="line"/>
      <point x="104" y="458"/>
      <point x="61" y="353"/>
      <point x="61" y="211" type="curve" smooth="yes"/>
      <point x="61" y="86"/>
      <point x="107" y="2"/>
      <point x="227" y="-8" type="curve"/>
      <point x="227" y="-144" type="line"/>
    </contour>
  </outline>
</glyph>
<glyph name="sterling" format="1">
  <advance width="539"/>
  <unicode hex="00A3"/>
  <note>
	sterling
  </note>
  <outline>
    <contour>
      <point x="360" y="-5"/>
      <point x="415" y="-2"/>
      <point x="483" y="5" type="curve"/>
      <point x="483" y="45" type="line"/>
      <point x="420" y="40"/>
      <point x="363" y="37"/>
      <point x="308" y="37" type="curve" smooth="yes"/>
      <point x="255" y="37"/>
      <point x="220" y="38"/>
      <point x="173" y="42" type="curve"/>
      <point x="173" y="259" type="line"/>
      <point x="379" y="259" type="line"/>
      <point x="379" y="298" type="line"/>
      <point x="173" y="298" type="line"/>
      <point x="173" y="439" type="line" smooth="yes"/>
      <point x="173" y="479"/>
      <point x="177" y="508"/>
      <point x="190" y="551" type="curve"/>
      <point x="237" y="565"/>
      <point x="275" y="568"/>
      <point x="321" y="568" type="curve" smooth="yes"/>
      <point x="369" y="568"/>
      <point x="401" y="563"/>
      <point x="445" y="551" type="curve"/>
      <point x="456" y="590" type="line"/>
      <point x="410" y="605"/>
      <point x="375" y="612"/>
      <point x="318" y="612" type="curve" smooth="yes"/>
      <point x="184" y="612"/>
      <point x="127" y="551"/>
      <point x="127" y="443" type="curve" smooth="yes"/>
      <point x="127" y="298" type="line"/>
      <point x="62" y="298" type="line"/>
      <point x="62" y="259" type="line"/>
      <point x="127" y="259" type="line"/>
      <point x="127" y="42" type="line"/>
      <point x="61" y="34" type="line"/>
      <point x="61" y="5" type="line"/>
      <point x="134" y="-2"/>
      <point x="211" y="-5"/>
      <point x="288" y="-5" type="curve" smooth="yes"/>
    </contour>
  </outline>
</glyph>
<glyph name="currency" format="1">
  <advance width="562"/>
  <unicode hex="00A4"/>
  <note>
	currency
  </note>
  <outline>
    <contour>
      <point x="170" y="146" type="line"/>
      <point x="204" y="121"/>
      <point x="237" y="108"/>
      <point x="283" y="108" type="curve" smooth="yes"/>
      <point x="329" y="108"/>
      <point x="362" y="121"/>
      <point x="396" y="146" type="curve"/>
      <point x="464" y="80" type="line"/>
      <point x="492" y="108" type="line"/>
      <point x="427" y="175" type="line"/>
      <point x="453" y="213"/>
      <point x="464" y="245"/>
      <point x="464" y="291" type="curve" smooth="yes"/>
      <point x="464" y="336"/>
      <point x="453" y="369"/>
      <point x="427" y="406" type="curve"/>
      <point x="492" y="474" type="line"/>
      <point x="464" y="502" type="line"/>
      <point x="396" y="437" type="line"/>
      <point x="362" y="461"/>
      <point x="329" y="474"/>
      <point x="283" y="474" type="curve" smooth="yes"/>
      <point x="238" y="474"/>
      <point x="205" y="461"/>
      <point x="170" y="437" type="curve"/>
      <point x="103" y="502" type="line"/>
      <point x="74" y="474" type="line"/>
      <point x="140" y="406" type="line"/>
      <point x="113" y="369"/>
      <point x="102" y="336"/>
      <point x="102" y="291" type="curve" smooth="yes"/>
      <point x="102" y="245"/>
      <point x="113" y="213"/>
      <point x="140" y="175" type="curve"/>
      <point x="74" y="108" type="line"/>
      <point x="103" y="80" type="line"/>
    </contour>
    <contour>
      <point x="197" y="151"/>
      <point x="143" y="210"/>
      <point x="143" y="291" type="curve" smooth="yes"/>
      <point x="143" y="370"/>
      <point x="196" y="432"/>
      <point x="283" y="432" type="curve" smooth="yes"/>
      <point x="370" y="432"/>
      <point x="423" y="370"/>
      <point x="423" y="291" type="curve" smooth="yes"/>
      <point x="423" y="210"/>
      <point x="369" y="151"/>
      <point x="283" y="151" type="curve" smooth="yes"/>
    </contour>
  </outline>
</glyph>
<glyph name="yen" format="1">
  <advance width="619"/>
  <unicode hex="00A5"/>
  <note>
	yen
  </note>
  <outline>
    <contour>
      <point x="333" y="0" type="line"/>
      <point x="333" y="105" type="line"/>
      <point x="449" y="105" type="line"/>
      <point x="449" y="142" type="line"/>
      <point x="333" y="142" type="line"/>
      <point x="333" y="223" type="line"/>
      <point x="449" y="223" type="line"/>
      <point x="449" y="260" type="line"/>
      <point x="375" y="260" type="line"/>
      <point x="449" y="359"/>
      <point x="513" y="468"/>
      <point x="573" y="604" type="curve"/>
      <point x="526" y="618" type="line"/>
      <point x="471" y="482"/>
      <point x="397" y="361"/>
      <point x="329" y="268" type="curve"/>
      <point x="291" y="268" type="line"/>
      <point x="223" y="361"/>
      <point x="149" y="482"/>
      <point x="93" y="618" type="curve"/>
      <point x="47" y="604" type="line"/>
      <point x="105" y="468"/>
      <point x="170" y="359"/>
      <point x="245" y="260" type="curve"/>
      <point x="172" y="260" type="line"/>
      <point x="172" y="223" type="line"/>
      <point x="286" y="223" type="line"/>
      <point x="286" y="142" type="line"/>
      <point x="172" y="142" type="line"/>
      <point x="172" y="105" type="line"/>
      <point x="286" y="105" type="line"/>
      <point x="286" y="0" type="line"/>
    </contour>
  </outline>
</glyph>
<glyph name="section" format="1">
  <advance width="540"/>
  <unicode hex="00A7"/>
  <note>
	section
  </note>
  <outline>
    <contour>
      <point x="370" y="-127"/>
      <point x="414" y="-63"/>
      <point x="414" y="13" type="curve" smooth="yes"/>
      <point x="414" y="52"/>
      <point x="401" y="80"/>
      <point x="373" y="101" type="curve"/>
      <point x="373" y="107" type="line"/>
      <point x="436" y="142"/>
      <point x="467" y="177"/>
      <point x="467" y="240" type="curve" smooth="yes"/>
      <point x="467" y="326"/>
      <point x="412" y="350"/>
      <point x="301" y="374" type="curve" smooth="yes"/>
      <point x="194" y="398"/>
      <point x="151" y="420"/>
      <point x="151" y="489" type="curve" smooth="yes"/>
      <point x="151" y="552"/>
      <point x="198" y="577"/>
      <point x="279" y="577" type="curve" smooth="yes"/>
      <point x="312" y="577"/>
      <point x="339" y="574"/>
      <point x="364" y="569" type="curve"/>
      <point x="372" y="508" type="line"/>
      <point x="401" y="508" type="line"/>
      <point x="407" y="526"/>
      <point x="411" y="551"/>
      <point x="411" y="573" type="curve" smooth="yes"/>
      <point x="411" y="593" type="line"/>
      <point x="377" y="609"/>
      <point x="338" y="619"/>
      <point x="282" y="619" type="curve" smooth="yes"/>
      <point x="164" y="619"/>
      <point x="104" y="563"/>
      <point x="104" y="482" type="curve" smooth="yes"/>
      <point x="104" y="435"/>
      <point x="125" y="407"/>
      <point x="157" y="381" type="curve"/>
      <point x="157" y="375" type="line"/>
      <point x="103" y="345"/>
      <point x="73" y="311"/>
      <point x="73" y="252" type="curve" smooth="yes"/>
      <point x="73" y="178"/>
      <point x="123" y="145"/>
      <point x="222" y="117" type="curve" smooth="yes"/>
      <point x="338" y="84"/>
      <point x="367" y="69"/>
      <point x="367" y="5" type="curve" smooth="yes"/>
      <point x="367" y="-19"/>
      <point x="362" y="-50"/>
      <point x="353" y="-72" type="curve"/>
      <point x="320" y="-80"/>
      <point x="291" y="-84"/>
      <point x="248" y="-84" type="curve" smooth="yes"/>
      <point x="196" y="-84"/>
      <point x="165" y="-80"/>
      <point x="119" y="-66" type="curve"/>
      <point x="105" y="-105" type="line"/>
      <point x="159" y="-122"/>
      <point x="196" y="-127"/>
      <point x="246" y="-127" type="curve" smooth="yes"/>
    </contour>
    <contour>
      <point x="313" y="135"/>
      <point x="291" y="142"/>
      <point x="233" y="160" type="curve" smooth="yes"/>
      <point x="148" y="186"/>
      <point x="120" y="208"/>
      <point x="120" y="258" type="curve" smooth="yes"/>
      <point x="120" y="308"/>
      <point x="141" y="334"/>
      <point x="190" y="359" type="curve"/>
      <point x="224" y="347"/>
      <point x="243" y="342"/>
      <point x="288" y="332" type="curve" smooth="yes"/>
      <point x="396" y="307"/>
      <point x="420" y="289"/>
      <point x="420" y="231" type="curve" smooth="yes"/>
      <point x="420" y="183"/>
      <point x="382" y="148"/>
      <point x="348" y="124" type="curve"/>
    </contour>
  </outline>
</glyph>
<glyph name="dieresis" format="1">
  <advance width="370"/>
  <unicode hex="00A8"/>
  <note>
	dieresis
  </note>
  <outline>
    <contour>
      <point x="285" y="490"/>
      <point x="297" y="501"/>
      <point x="297" y="521" type="curve" smooth="yes"/>
      <point x="297" y="542"/>
      <point x="285" y="553"/>
      <point x="265" y="553" type="curve" smooth="yes"/>
      <point x="244" y="553"/>
      <point x="231" y="542"/>
      <point x="231" y="521" type="curve" smooth="yes"/>
      <point x="231" y="501"/>
      <point x="244" y="490"/>
      <point x="265" y="490" type="curve" smooth="yes"/>
    </contour>
    <contour>
      <point x="127" y="490"/>
      <point x="139" y="501"/>
      <point x="139" y="521" type="curve" smooth="yes"/>
      <point x="139" y="542"/>
      <point x="127" y="553"/>
      <point x="107" y="553" type="curve" smooth="yes"/>
      <point x="87" y="553"/>
      <point x="74" y="542"/>
      <point x="74" y="521" type="curve" smooth="yes"/>
      <point x="74" y="501"/>
      <point x="87" y="490"/>
      <point x="107" y="490" type="curve" smooth="yes"/>
    </contour>
  </outline>
</glyph>
<glyph name="copyright" format="1">
  <advance width="739"/>
  <unicode hex="00A9"/>
  <note>
	copyright
  </note>
  <outline>
    <contour>
      <point x="558" y="9"/>
      <point x="668" y="131"/>
      <point x="668" y="308" type="curve" smooth="yes"/>
      <point x="668" y="485"/>
      <point x="558" y="607"/>
      <point x="370" y="607" type="curve" smooth="yes"/>
      <point x="182" y="607"/>
      <point x="71" y="485"/>
      <point x="71" y="308" type="curve" smooth="yes"/>
      <point x="71" y="131"/>
      <point x="182" y="9"/>
      <point x="370" y="9" type="curve" smooth="yes"/>
    </contour>
    <contour>
      <point x="416" y="122"/>
      <point x="449" y="129"/>
      <point x="478" y="145" type="curve"/>
      <point x="463" y="178" type="line"/>
      <point x="439" y="165"/>
      <point x="412" y="159"/>
      <point x="374" y="159" type="curve" smooth="yes"/>
      <point x="300" y="159"/>
      <point x="260" y="204"/>
      <point x="260" y="298" type="curve" smooth="yes"/>
      <point x="260" y="361"/>
      <point x="274" y="408"/>
      <point x="297" y="447" type="curve"/>
      <point x="320" y="451"/>
      <point x="343" y="452"/>
      <point x="364" y="452" type="curve" smooth="yes"/>
      <point x="396" y="452"/>
      <point x="414" y="450"/>
      <point x="432" y="447" type="curve"/>
      <point x="436" y="396" type="line"/>
      <point x="461" y="396" type="line"/>
      <point x="466" y="411"/>
      <point x="469" y="431"/>
      <point x="469" y="448" type="curve" smooth="yes"/>
      <point x="469" y="465" type="line"/>
      <point x="450" y="478"/>
      <point x="410" y="489"/>
      <point x="367" y="489" type="curve" smooth="yes"/>
      <point x="270" y="489"/>
      <point x="222" y="403"/>
      <point x="222" y="299" type="curve" smooth="yes"/>
      <point x="222" y="193"/>
      <point x="274" y="122"/>
      <point x="374" y="122" type="curve" smooth="yes"/>
    </contour>
    <contour>
      <point x="198" y="34"/>
      <point x="97" y="141"/>
      <point x="97" y="308" type="curve" smooth="yes"/>
      <point x="97" y="475"/>
      <point x="198" y="582"/>
      <point x="369" y="582" type="curve" smooth="yes"/>
      <point x="541" y="582"/>
      <point x="642" y="475"/>
      <point x="642" y="308" type="curve" smooth="yes"/>
      <point x="642" y="141"/>
      <point x="541" y="34"/>
      <point x="369" y="34" type="curve" smooth="yes"/>
    </contour>
  </outline>
</glyph>
<glyph name="ordfeminine" format="1">
  <advance width="353"/>
  <unicode hex="00AA"/>
  <note>
	ordfeminine
  </note>
  <outline>
    <contour>
      <point x="198" y="265"/>
      <point x="231" y="290"/>
      <point x="254" y="320" type="curve"/>
      <point x="260" y="320" type="line"/>
      <point x="263" y="270" type="line"/>
      <point x="297" y="270" type="line"/>
      <point x="297" y="519" type="line" smooth="yes"/>
      <point x="297" y="581"/>
      <point x="265" y="616"/>
      <point x="199" y="616" type="curve" smooth="yes"/>
      <point x="157" y="616"/>
      <point x="115" y="606"/>
      <point x="79" y="590" type="curve"/>
      <point x="79" y="574" type="line" smooth="yes"/>
      <point x="79" y="559"/>
      <point x="82" y="545"/>
      <point x="85" y="530" type="curve"/>
      <point x="108" y="530" type="line"/>
      <point x="114" y="571" type="line"/>
      <point x="137" y="576"/>
      <point x="167" y="579"/>
      <point x="187" y="579" type="curve" smooth="yes"/>
      <point x="242" y="579"/>
      <point x="257" y="564"/>
      <point x="257" y="512" type="curve" smooth="yes"/>
      <point x="257" y="452" type="line"/>
      <point x="240" y="455"/>
      <point x="223" y="457"/>
      <point x="203" y="457" type="curve" smooth="yes"/>
      <point x="114" y="457"/>
      <point x="54" y="420"/>
      <point x="54" y="349" type="curve" smooth="yes"/>
      <point x="54" y="302"/>
      <point x="84" y="265"/>
      <point x="146" y="265" type="curve" smooth="yes"/>
    </contour>
    <contour>
      <point x="109" y="302"/>
      <point x="95" y="322"/>
      <point x="95" y="358" type="curve" smooth="yes"/>
      <point x="95" y="376"/>
      <point x="98" y="394"/>
      <point x="109" y="414" type="curve"/>
      <point x="135" y="419"/>
      <point x="160" y="422"/>
      <point x="187" y="422" type="curve" smooth="yes"/>
      <point x="215" y="422"/>
      <point x="234" y="420"/>
      <point x="257" y="416" type="curve"/>
      <point x="257" y="357" type="line"/>
      <point x="231" y="323"/>
      <point x="200" y="302"/>
      <point x="155" y="302" type="curve" smooth="yes"/>
    </contour>
  </outline>
</glyph>
<glyph name="logicalnot" format="1">
  <advance width="447"/>
  <unicode hex="00AC"/>
  <note>
	logicalnot
  </note>
  <outline>
    <contour>
      <point x="387" y="149" type="line"/>
      <point x="387" y="333" type="line"/>
      <point x="61" y="333" type="line"/>
      <point x="61" y="292" type="line"/>
      <point x="344" y="292" type="line"/>
      <point x="344" y="149" type="line"/>
    </contour>
  </outline>
</glyph>
<glyph name="softhyphen" format="1">
  <advance width="332"/>
  <unicode hex="00AD"/>
  <note>
	softhyphen
  </note>
  <outline>
    <contour>
      <point x="264" y="239" type="line"/>
      <point x="264" y="281" type="line"/>
      <point x="68" y="281" type="line"/>
      <point x="68" y="239" type="line"/>
    </contour>
  </outline>
</glyph>
<glyph name="twosuperior" format="1">
  <advance width="321"/>
  <unicode hex="00B2"/>
  <note>
	twosuperior
  </note>
  <outline>
    <contour>
      <point x="276" y="334" type="line"/>
      <point x="276" y="352" type="line" smooth="yes"/>
      <point x="276" y="370"/>
      <point x="274" y="387"/>
      <point x="268" y="403" type="curve"/>
      <point x="236" y="403" type="line"/>
      <point x="236" y="371" type="line"/>
      <point x="89" y="371" type="line"/>
      <point x="89" y="376" type="line"/>
      <point x="181" y="434"/>
      <point x="270" y="507"/>
      <point x="270" y="591" type="curve" smooth="yes"/>
      <point x="270" y="647"/>
      <point x="244" y="692"/>
      <point x="165" y="692" type="curve" smooth="yes"/>
      <point x="127" y="692"/>
      <point x="90" y="685"/>
      <point x="57" y="671" type="curve"/>
      <point x="57" y="655" type="line" smooth="yes"/>
      <point x="57" y="635"/>
      <point x="60" y="615"/>
      <point x="64" y="601" type="curve"/>
      <point x="98" y="601" type="line"/>
      <point x="98" y="647" type="line"/>
      <point x="121" y="651"/>
      <point x="138" y="653"/>
      <point x="160" y="653" type="curve" smooth="yes"/>
      <point x="208" y="653"/>
      <point x="227" y="636"/>
      <point x="227" y="589" type="curve" smooth="yes"/>
      <point x="227" y="528"/>
      <point x="159" y="461"/>
      <point x="46" y="392" type="curve"/>
      <point x="46" y="334" type="line"/>
    </contour>
  </outline>
</glyph>
<glyph name="threesuperior" format="1">
  <advance width="307"/>
  <unicode hex="00B3"/>
  <note>
	threesuperior
  </note>
  <outline>
    <contour>
      <point x="231" y="330"/>
      <point x="262" y="371"/>
      <point x="262" y="424" type="curve" smooth="yes"/>
      <point x="262" y="462"/>
      <point x="246" y="492"/>
      <point x="188" y="509" type="curve"/>
      <point x="188" y="512" type="line"/>
      <point x="231" y="527"/>
      <point x="253" y="552"/>
      <point x="253" y="598" type="curve" smooth="yes"/>
      <point x="253" y="653"/>
      <point x="219" y="693"/>
      <point x="146" y="693" type="curve" smooth="yes"/>
      <point x="106" y="693"/>
      <point x="74" y="687"/>
      <point x="41" y="675" type="curve"/>
      <point x="41" y="658" type="line" smooth="yes"/>
      <point x="41" y="644"/>
      <point x="44" y="627"/>
      <point x="48" y="613" type="curve"/>
      <point x="81" y="613" type="line"/>
      <point x="81" y="650" type="line"/>
      <point x="105" y="653"/>
      <point x="119" y="654"/>
      <point x="144" y="654" type="curve" smooth="yes"/>
      <point x="188" y="654"/>
      <point x="210" y="635"/>
      <point x="210" y="592" type="curve" smooth="yes"/>
      <point x="210" y="549"/>
      <point x="186" y="528"/>
      <point x="136" y="528" type="curve" smooth="yes"/>
      <point x="100" y="528" type="line"/>
      <point x="100" y="490" type="line"/>
      <point x="136" y="490" type="line" smooth="yes"/>
      <point x="191" y="490"/>
      <point x="220" y="469"/>
      <point x="220" y="427" type="curve" smooth="yes"/>
      <point x="220" y="411"/>
      <point x="217" y="391"/>
      <point x="209" y="374" type="curve"/>
      <point x="185" y="369"/>
      <point x="167" y="368"/>
      <point x="138" y="368" type="curve" smooth="yes"/>
      <point x="104" y="368"/>
      <point x="75" y="372"/>
      <point x="43" y="380" type="curve"/>
      <point x="37" y="342" type="line"/>
      <point x="68" y="334"/>
      <point x="105" y="330"/>
      <point x="139" y="330" type="curve" smooth="yes"/>
    </contour>
  </outline>
</glyph>
<glyph name="acute" format="1">
  <advance width="323"/>
  <unicode hex="00B4"/>
  <note>
	acute
  </note>
  <outline>
    <contour>
      <point x="218" y="892" type="line"/>
      <point x="156" y="899" type="line"/>
      <point x="72" y="758" type="line"/>
      <point x="104" y="752" type="line"/>
    </contour>
  </outline>
</glyph>
<glyph name="paragraph" format="1">
  <advance width="641"/>
  <unicode hex="00B6"/>
  <note>
	paragraph
  </note>
  <outline>
    <contour>
      <point x="327" y="-120" type="line"/>
      <point x="327" y="578" type="line"/>
      <point x="431" y="578" type="line"/>
      <point x="431" y="-120" type="line"/>
      <point x="475" y="-120" type="line"/>
      <point x="475" y="616" type="line"/>
      <point x="267" y="616" type="line" smooth="yes"/>
      <point x="140" y="616"/>
      <point x="76" y="555"/>
      <point x="76" y="438" type="curve" smooth="yes"/>
      <point x="76" y="329"/>
      <point x="139" y="265"/>
      <point x="259" y="265" type="curve" smooth="yes"/>
      <point x="283" y="265" type="line"/>
      <point x="283" y="-120" type="line"/>
    </contour>
  </outline>
</glyph>
<glyph name="cedilla" format="1">
  <advance width="323"/>
  <unicode hex="00B8"/>
  <note>
	cedilla
  </note>
  <outline>
    <contour>
      <point x="242" y="-216"/>
      <point x="278" y="-190"/>
      <point x="278" y="-132" type="curve" smooth="yes"/>
      <point x="278" y="-86"/>
      <point x="256" y="-59"/>
      <point x="205" y="-59" type="curve" smooth="yes"/>
      <point x="186" y="-59"/>
      <point x="169" y="-62"/>
      <point x="156" y="-68" type="curve"/>
      <point x="208" y="1" type="line"/>
      <point x="178" y="7" type="line"/>
      <point x="113" y="-69" type="line"/>
      <point x="145" y="-100" type="line"/>
      <point x="159" y="-95"/>
      <point x="173" y="-94"/>
      <point x="190" y="-94" type="curve" smooth="yes"/>
      <point x="224" y="-94"/>
      <point x="237" y="-108"/>
      <point x="237" y="-136" type="curve" smooth="yes"/>
      <point x="237" y="-150"/>
      <point x="234" y="-164"/>
      <point x="231" y="-173" type="curve"/>
      <point x="216" y="-178"/>
      <point x="202" y="-180"/>
      <point x="179" y="-180" type="curve" smooth="yes"/>
      <point x="154" y="-180"/>
      <point x="130" y="-176"/>
      <point x="108" y="-168" type="curve"/>
      <point x="96" y="-200" type="line"/>
      <point x="126" y="-213"/>
      <point x="151" y="-216"/>
      <point x="176" y="-216" type="curve" smooth="yes"/>
    </contour>
  </outline>
</glyph>
<glyph name="onesuperior" format="1">
  <advance width="222"/>
  <unicode hex="00B9"/>
  <note>
	onesuperior
  </note>
  <outline>
    <contour>
      <point x="163" y="332" type="line"/>
      <point x="163" y="664" type="line" smooth="yes"/>
      <point x="163" y="674"/>
      <point x="136" y="691"/>
      <point x="114" y="692" type="curve"/>
      <point x="34" y="642" type="line"/>
      <point x="43" y="619" type="line"/>
      <point x="117" y="648" type="line"/>
      <point x="121" y="645" type="line"/>
      <point x="121" y="332" type="line"/>
    </contour>
  </outline>
</glyph>
<glyph name="guillemotright" format="1">
  <advance width="450"/>
  <unicode hex="00BB"/>
  <note>
	guillemotright
  </note>
  <outline>
    <contour>
      <point x="387" y="251" type="line"/>
      <point x="257" y="423" type="line"/>
      <point x="225" y="409" type="line"/>
      <point x="341" y="253" type="line"/>
      <point x="341" y="249" type="line"/>
      <point x="225" y="93" type="line"/>
      <point x="257" y="79" type="line"/>
    </contour>
    <contour>
      <point x="227" y="251" type="line"/>
      <point x="97" y="423" type="line"/>
      <point x="65" y="409" type="line"/>
      <point x="181" y="253" type="line"/>
      <point x="181" y="249" type="line"/>
      <point x="65" y="93" type="line"/>
      <point x="97" y="79" type="line"/>
    </contour>
  </outline>
</glyph>
<glyph name="Agrave" format="1">
  <advance width="580"/>
  <unicode hex="00C0"/>
  <note>
	Agrave
  </note>
  <outline>
    <contour>
      <point x="308" y="717" type="line"/>
      <point x="224" y="857" type="line"/>
      <point x="162" y="851" type="line"/>
      <point x="276" y="711" type="line"/>
    </contour>
    <component base="A"/>
  </outline>
</glyph>
<glyph name="Adieresis" format="1">
  <advance width="580"/>
  <unicode hex="00C4"/>
  <note>
	Adieresis
  </note>
  <outline>
    <contour>
      <point x="388" y="709"/>
      <point x="400" y="721"/>
      <point x="400" y="740" type="curve" smooth="yes"/>
      <point x="400" y="761"/>
      <point x="388" y="772"/>
      <point x="368" y="772" type="curve" smooth="yes"/>
      <point x="347" y="772"/>
      <point x="334" y="761"/>
      <point x="334" y="740" type="curve" smooth="yes"/>
      <point x="334" y="721"/>
      <point x="347" y="709"/>
      <point x="368" y="709" type="curve" smooth="yes"/>
    </contour>
    <contour>
      <point x="230" y="709"/>
      <point x="242" y="721"/>
      <point x="242" y="740" type="curve" smooth="yes"/>
      <point x="242" y="761"/>
      <point x="230" y="772"/>
      <point x="210" y="772" type="curve" smooth="yes"/>
      <point x="190" y="772"/>
      <point x="177" y="761"/>
      <point x="177" y="740" type="curve" smooth="yes"/>
      <point x="177" y="721"/>
      <point x="190" y="709"/>
      <point x="210" y="709" type="curve" smooth="yes"/>
    </contour>
    <component base="A"/>
  </outline>
</glyph>
<glyph name="Aring" format="1">
  <advance width="580"/>
  <unicode hex="00C5"/>
  <note>
	Aring
  </note>
  <outline>
    <contour>
      <point x="356" y="705"/>
      <point x="395" y="748"/>
      <point x="395" y="796" type="curve" smooth="yes"/>
      <point x="395" y="851"/>
      <point x="363" y="879"/>
      <point x="298" y="879" type="curve" smooth="yes"/>
      <point x="226" y="879"/>
      <point x="183" y="835"/>
      <point x="183" y="786" type="curve" smooth="yes"/>
      <point x="183" y="733"/>
      <point x="218" y="705"/>
      <point x="281" y="705" type="curve" smooth="yes"/>
    </contour>
    <contour>
      <point x="240" y="737"/>
      <point x="219" y="755"/>
      <point x="219" y="788" type="curve" smooth="yes"/>
      <point x="219" y="805"/>
      <point x="221" y="818"/>
      <point x="228" y="839" type="curve"/>
      <point x="250" y="846"/>
      <point x="269" y="847"/>
      <point x="294" y="847" type="curve" smooth="yes"/>
      <point x="337" y="847"/>
      <point x="359" y="830"/>
      <point x="359" y="794" type="curve" smooth="yes"/>
      <point x="359" y="777"/>
      <point x="356" y="763"/>
      <point x="350" y="745" type="curve"/>
      <point x="328" y="738"/>
      <point x="309" y="737"/>
      <point x="283" y="737" type="curve" smooth="yes"/>
    </contour>
    <component base="A"/>
  </outline>
</glyph>
<glyph name="Egrave" format="1">
  <advance width="520"/>
  <unicode hex="00C8"/>
  <note>
	Egrave
  </note>
  <outline>
    <contour>
      <point x="354" y="-9"/>
      <point x="404" y="-4"/>
      <point x="453" y="7" type="curve"/>
      <point x="442" y="49" type="line"/>
      <point x="394" y="39"/>
      <point x="345" y="34"/>
      <point x="288" y="34" type="curve" smooth="yes"/>
      <point x="227" y="34"/>
      <point x="185" y="38"/>
      <point x="133" y="48" type="curve"/>
      <point x="133" y="286" type="line"/>
      <point x="412" y="286" type="line"/>
      <point x="412" y="330" type="line"/>
      <point x="133" y="330" type="line"/>
      <point x="133" y="568" type="line"/>
      <point x="441" y="568" type="line"/>
      <point x="441" y="612" type="line"/>
      <point x="86" y="612" type="line"/>
      <point x="86" y="61" type="line" smooth="yes"/>
      <point x="86" y="7"/>
      <point x="176" y="-9"/>
      <point x="285" y="-9" type="curve" smooth="yes"/>
    </contour>
    <contour>
      <point x="302" y="713" type="line"/>
      <point x="218" y="854" type="line"/>
      <point x="156" y="847" type="line"/>
      <point x="270" y="708" type="line"/>
    </contour>
  </outline>
</glyph>
<glyph name="Edieresis" format="1">
  <advance width="520"/>
  <unicode hex="00CB"/>
  <note>
	Edieresis
  </note>
  <outline>
    <contour>
      <point x="354" y="-9"/>
      <point x="404" y="-4"/>
      <point x="453" y="7" type="curve"/>
      <point x="442" y="49" type="line"/>
      <point x="394" y="39"/>
      <point x="345" y="34"/>
      <point x="288" y="34" type="curve" smooth="yes"/>
      <point x="227" y="34"/>
      <point x="185" y="38"/>
      <point x="133" y="48" type="curve"/>
      <point x="133" y="286" type="line"/>
      <point x="412" y="286" type="line"/>
      <point x="412" y="330" type="line"/>
      <point x="133" y="330" type="line"/>
      <point x="133" y="568" type="line"/>
      <point x="441" y="568" type="line"/>
      <point x="441" y="612" type="line"/>
      <point x="86" y="612" type="line"/>
      <point x="86" y="61" type="line" smooth="yes"/>
      <point x="86" y="7"/>
      <point x="176" y="-9"/>
      <point x="285" y="-9" type="curve" smooth="yes"/>
    </contour>
    <contour>
      <point x="209" y="709"/>
      <point x="221" y="721"/>
      <point x="221" y="740" type="curve" smooth="yes"/>
      <point x="221" y="761"/>
      <point x="209" y="772"/>
      <point x="189" y="772" type="curve" smooth="yes"/>
      <point x="169" y="772"/>
      <point x="156" y="761"/>
      <point x="156" y="740" type="curve" smooth="yes"/>
      <point x="156" y="721"/>
      <point x="169" y="709"/>
      <point x="189" y="709" type="curve" smooth="yes"/>
    </contour>
    <contour>
      <point x="367" y="709"/>
      <point x="379" y="721"/>
      <point x="379" y="740" type="curve" smooth="yes"/>
      <point x="379" y="761"/>
      <point x="367" y="772"/>
      <point x="347" y="772" type="curve" smooth="yes"/>
      <point x="326" y="772"/>
      <point x="313" y="761"/>
      <point x="313" y="740" type="curve" smooth="yes"/>
      <point x="313" y="721"/>
      <point x="326" y="709"/>
      <point x="347" y="709" type="curve" smooth="yes"/>
    </contour>
  </outline>
</glyph>
<glyph name="Iacute" format="1">
  <advance width="225"/>
  <unicode hex="00CD"/>
  <note>
	Iacute
  </note>
  <outline>
    <contour>
      <point x="136" y="0" type="line"/>
      <point x="136" y="612" type="line"/>
      <point x="89" y="612" type="line"/>
      <point x="89" y="0" type="line"/>
    </contour>
    <contour>
      <point x="238" y="847" type="line"/>
      <point x="176" y="854" type="line"/>
      <point x="92" y="713" type="line"/>
      <point x="124" y="708" type="line"/>
    </contour>
  </outline>
</glyph>
<glyph name="Eth" format="1">
  <advance width="622"/>
  <unicode hex="00D0"/>
  <note>
	Eth
  </note>
  <outline>
    <contour>
      <point x="313" y="0" type="line" smooth="yes"/>
      <point x="520" y="0"/>
      <point x="571" y="148"/>
      <point x="571" y="317" type="curve" smooth="yes"/>
      <point x="571" y="515"/>
      <point x="495" y="622"/>
      <point x="305" y="622" type="curve" smooth="yes"/>
      <point x="246" y="622"/>
      <point x="195" y="615"/>
      <point x="144" y="605" type="curve"/>
      <point x="144" y="343" type="line"/>
      <point x="45" y="343" type="line"/>
      <point x="45" y="303" type="line"/>
      <point x="144" y="303" type="line"/>
      <point x="144" y="0" type="line"/>
    </contour>
    <contour>
      <point x="191" y="303" type="line"/>
      <point x="307" y="303" type="line"/>
      <point x="307" y="343" type="line"/>
      <point x="191" y="343" type="line"/>
      <point x="191" y="569" type="line"/>
      <point x="233" y="575"/>
      <point x="264" y="578"/>
      <point x="301" y="578" type="curve" smooth="yes"/>
      <point x="462" y="578"/>
      <point x="524" y="495"/>
      <point x="524" y="312" type="curve" smooth="yes"/>
      <point x="524" y="202"/>
      <point x="499" y="115"/>
      <point x="452" y="63" type="curve"/>
      <point x="409" y="49"/>
      <point x="370" y="44"/>
      <point x="311" y="44" type="curve" smooth="yes"/>
      <point x="191" y="44" type="line"/>
    </contour>
  </outline>
</glyph>
<glyph name="Otilde" format="1">
  <advance width="602"/>
  <unicode hex="00D5"/>
  <note>
	Otilde
  </note>
  <outline>
    <contour>
      <point x="483" y="-9"/>
      <point x="541" y="117"/>
      <point x="541" y="315" type="curve" smooth="yes"/>
      <point x="541" y="515"/>
      <point x="474" y="622"/>
      <point x="312" y="622" type="curve" smooth="yes"/>
      <point x="120" y="622"/>
      <point x="61" y="494"/>
      <point x="61" y="297" type="curve" smooth="yes"/>
      <point x="61" y="97"/>
      <point x="131" y="-9"/>
      <point x="290" y="-9" type="curve" smooth="yes"/>
    </contour>
    <contour>
      <point x="155" y="35"/>
      <point x="108" y="125"/>
      <point x="108" y="308" type="curve" smooth="yes"/>
      <point x="108" y="409"/>
      <point x="129" y="490"/>
      <point x="167" y="549" type="curve"/>
      <point x="199" y="567"/>
      <point x="251" y="577"/>
      <point x="297" y="577" type="curve" smooth="yes"/>
      <point x="448" y="577"/>
      <point x="494" y="487"/>
      <point x="494" y="304" type="curve" smooth="yes"/>
      <point x="494" y="203"/>
      <point x="472" y="121"/>
      <point x="434" y="63" type="curve"/>
      <point x="402" y="45"/>
      <point x="351" y="35"/>
      <point x="305" y="35" type="curve" smooth="yes"/>
    </contour>
    <contour>
      <point x="205" y="738"/>
      <point x="218" y="760"/>
      <point x="247" y="760" type="curve" smooth="yes"/>
      <point x="284" y="760"/>
      <point x="313" y="706"/>
      <point x="362" y="706" type="curve" smooth="yes"/>
      <point x="407" y="706"/>
      <point x="432" y="739"/>
      <point x="435" y="791" type="curve"/>
      <point x="404" y="800" type="line"/>
      <point x="400" y="768"/>
      <point x="387" y="747"/>
      <point x="358" y="747" type="curve" smooth="yes"/>
      <point x="320" y="747"/>
      <point x="290" y="800"/>
      <point x="243" y="800" type="curve" smooth="yes"/>
      <point x="198" y="800"/>
      <point x="173" y="767"/>
      <point x="170" y="715" type="curve"/>
      <point x="201" y="706" type="line"/>
    </contour>
  </outline>
</glyph>
<glyph name="Odieresis" format="1">
  <advance width="602"/>
  <unicode hex="00D6"/>
  <note>
	Odieresis
  </note>
  <outline>
    <contour>
      <point x="483" y="-9"/>
      <point x="541" y="117"/>
      <point x="541" y="315" type="curve" smooth="yes"/>
      <point x="541" y="515"/>
      <point x="474" y="622"/>
      <point x="312" y="622" type="curve" smooth="yes"/>
      <point x="120" y="622"/>
      <point x="61" y="494"/>
      <point x="61" y="297" type="curve" smooth="yes"/>
      <point x="61" y="97"/>
      <point x="131" y="-9"/>
      <point x="290" y="-9" type="curve" smooth="yes"/>
    </contour>
    <contour>
      <point x="155" y="35"/>
      <point x="108" y="125"/>
      <point x="108" y="308" type="curve" smooth="yes"/>
      <point x="108" y="409"/>
      <point x="129" y="490"/>
      <point x="167" y="549" type="curve"/>
      <point x="199" y="567"/>
      <point x="251" y="577"/>
      <point x="297" y="577" type="curve" smooth="yes"/>
      <point x="448" y="577"/>
      <point x="494" y="487"/>
      <point x="494" y="304" type="curve" smooth="yes"/>
      <point x="494" y="203"/>
      <point x="472" y="121"/>
      <point x="434" y="63" type="curve"/>
      <point x="402" y="45"/>
      <point x="351" y="35"/>
      <point x="305" y="35" type="curve" smooth="yes"/>
    </contour>
    <contour>
      <point x="243" y="709"/>
      <point x="255" y="721"/>
      <point x="255" y="740" type="curve" smooth="yes"/>
      <point x="255" y="761"/>
      <point x="243" y="772"/>
      <point x="223" y="772" type="curve" smooth="yes"/>
      <point x="203" y="772"/>
      <point x="190" y="761"/>
      <point x="190" y="740" type="curve" smooth="yes"/>
      <point x="190" y="721"/>
      <point x="203" y="709"/>
      <point x="223" y="709" type="curve" smooth="yes"/>
    </contour>
    <contour>
      <point x="401" y="709"/>
      <point x="413" y="721"/>
      <point x="413" y="740" type="curve" smooth="yes"/>
      <point x="413" y="761"/>
      <point x="401" y="772"/>
      <point x="381" y="772" type="curve" smooth="yes"/>
      <point x="360" y="772"/>
      <point x="347" y="761"/>
      <point x="347" y="740" type="curve" smooth="yes"/>
      <point x="347" y="721"/>
      <point x="360" y="709"/>
      <point x="381" y="709" type="curve" smooth="yes"/>
    </contour>
  </outline>
</glyph>
<glyph name="multiply" format="1">
  <advance width="473"/>
  <unicode hex="00D7"/>
  <note>
	multiply
  </note>
  <outline>
    <contour>
      <point x="237" y="285" type="line"/>
      <point x="383" y="141" type="line"/>
      <point x="412" y="168" type="line"/>
      <point x="265" y="308" type="line"/>
      <point x="413" y="447" type="line"/>
      <point x="383" y="475" type="line"/>
      <point x="237" y="331" type="line"/>
      <point x="91" y="475" type="line"/>
      <point x="61" y="447" type="line"/>
      <point x="208" y="308" type="line"/>
      <point x="62" y="168" type="line"/>
      <point x="91" y="141" type="line"/>
    </contour>
  </outline>
</glyph>
<glyph name="Uacute" format="1">
  <advance width="592"/>
  <unicode hex="00DA"/>
  <note>
	Uacute
  </note>
  <outline>
    <contour>
      <point x="420" y="-9"/>
      <point x="508" y="23"/>
      <point x="508" y="86" type="curve" smooth="yes"/>
      <point x="508" y="612" type="line"/>
      <point x="461" y="612" type="line"/>
      <point x="461" y="63" type="line"/>
      <point x="423" y="47"/>
      <point x="371" y="35"/>
      <point x="299" y="35" type="curve" smooth="yes"/>
      <point x="181" y="35"/>
      <point x="129" y="66"/>
      <point x="129" y="180" type="curve" smooth="yes"/>
      <point x="129" y="612" type="line"/>
      <point x="82" y="612" type="line"/>
      <point x="82" y="168" type="line" smooth="yes"/>
      <point x="82" y="47"/>
      <point x="152" y="-9"/>
      <point x="292" y="-9" type="curve" smooth="yes"/>
    </contour>
    <contour>
      <point x="414" y="846" type="line"/>
      <point x="352" y="853" type="line"/>
      <point x="268" y="712" type="line"/>
      <point x="300" y="707" type="line"/>
    </contour>
  </outline>
</glyph>
<glyph name="Ucircumflex" format="1">
  <advance width="592"/>
  <unicode hex="00DB"/>
  <note>
	Ucircumflex
  </note>
  <outline>
    <contour>
      <point x="420" y="-9"/>
      <point x="508" y="23"/>
      <point x="508" y="86" type="curve" smooth="yes"/>
      <point x="508" y="612" type="line"/>
      <point x="461" y="612" type="line"/>
      <point x="461" y="63" type="line"/>
      <point x="423" y="47"/>
      <point x="371" y="35"/>
      <point x="299" y="35" type="curve" smooth="yes"/>
      <point x="181" y="35"/>
      <point x="129" y="66"/>
      <point x="129" y="180" type="curve" smooth="yes"/>
      <point x="129" y="612" type="line"/>
      <point x="82" y="612" type="line"/>
      <point x="82" y="168" type="line" smooth="yes"/>
      <point x="82" y="47"/>
      <point x="152" y="-9"/>
      <point x="292" y="-9" type="curve" smooth="yes"/>
    </contour>
    <contour>
      <point x="295" y="805" type="line"/>
      <point x="300" y="805" type="line"/>
      <point x="393" y="707" type="line"/>
      <point x="423" y="714" type="line"/>
      <point x="322" y="845" type="line"/>
      <point x="273" y="845" type="line"/>
      <point x="171" y="714" type="line"/>
      <point x="201" y="707" type="line"/>
    </contour>
  </outline>
</glyph>
<glyph name="Udieresis" format="1">
  <advance width="592"/>
  <unicode hex="00DC"/>
  <note>
	Udieresis
  </note>
  <outline>
    <contour>
      <point x="420" y="-9"/>
      <point x="508" y="23"/>
      <point x="508" y="86" type="curve" smooth="yes"/>
      <point x="508" y="612" type="line"/>
      <point x="461" y="612" type="line"/>
      <point x="461" y="63" type="line"/>
      <point x="423" y="47"/>
      <point x="371" y="35"/>
      <point x="299" y="35" type="curve" smooth="yes"/>
      <point x="181" y="35"/>
      <point x="129" y="66"/>
      <point x="129" y="180" type="curve" smooth="yes"/>
      <point x="129" y="612" type="line"/>
      <point x="82" y="612" type="line"/>
      <point x="82" y="168" type="line" smooth="yes"/>
      <point x="82" y="47"/>
      <point x="152" y="-9"/>
      <point x="292" y="-9" type="curve" smooth="yes"/>
    </contour>
    <contour>
      <point x="239" y="709"/>
      <point x="251" y="721"/>
      <point x="251" y="740" type="curve" smooth="yes"/>
      <point x="251" y="761"/>
      <point x="239" y="772"/>
      <point x="219" y="772" type="curve" smooth="yes"/>
      <point x="199" y="772"/>
      <point x="186" y="761"/>
      <point x="186" y="740" type="curve" smooth="yes"/>
      <point x="186" y="721"/>
      <point x="199" y="709"/>
      <point x="219" y="709" type="curve" smooth="yes"/>
    </contour>
    <contour>
      <point x="397" y="709"/>
      <point x="409" y="721"/>
      <point x="409" y="740" type="curve" smooth="yes"/>
      <point x="409" y="761"/>
      <point x="397" y="772"/>
      <point x="377" y="772" type="curve" smooth="yes"/>
      <point x="356" y="772"/>
      <point x="343" y="761"/>
      <point x="343" y="740" type="curve" smooth="yes"/>
      <point x="343" y="721"/>
      <point x="356" y="709"/>
      <point x="377" y="709" type="curve" smooth="yes"/>
    </contour>
  </outline>
</glyph>
<glyph name="Thorn" format="1">
  <advance width="475"/>
  <unicode hex="00DE"/>
  <note>
	Thorn
  </note>
  <outline>
    <contour>
      <point x="133" y="0" type="line"/>
      <point x="133" y="155" type="line"/>
      <point x="249" y="155" type="line" smooth="yes"/>
      <point x="364" y="155"/>
      <point x="424" y="214"/>
      <point x="424" y="323" type="curve" smooth="yes"/>
      <point x="424" y="430"/>
      <point x="364" y="488"/>
      <point x="249" y="488" type="curve" smooth="yes"/>
      <point x="133" y="488" type="line"/>
      <point x="133" y="616" type="line"/>
      <point x="86" y="616" type="line"/>
      <point x="86" y="0" type="line"/>
    </contour>
    <contour>
      <point x="133" y="444" type="line"/>
      <point x="245" y="444" type="line" smooth="yes"/>
      <point x="342" y="444"/>
      <point x="377" y="406"/>
      <point x="377" y="323" type="curve" smooth="yes"/>
      <point x="377" y="241"/>
      <point x="344" y="198"/>
      <point x="245" y="198" type="curve" smooth="yes"/>
      <point x="133" y="198" type="line"/>
    </contour>
  </outline>
</glyph>
<glyph name="aring" format="1">
  <advance width="459"/>
  <unicode hex="00E5"/>
  <note>
	aring
  </note>
  <outline>
    <contour>
      <point x="247" y="-9"/>
      <point x="298" y="20"/>
      <point x="334" y="67" type="curve"/>
      <point x="341" y="67" type="line"/>
      <point x="345" y="0" type="line"/>
      <point x="382" y="0" type="line"/>
      <point x="382" y="332" type="line" smooth="yes"/>
      <point x="382" y="425"/>
      <point x="332" y="474"/>
      <point x="245" y="474" type="curve" smooth="yes"/>
      <point x="186" y="474"/>
      <point x="124" y="453"/>
      <point x="85" y="431" type="curve"/>
      <point x="85" y="417" type="line" smooth="yes"/>
      <point x="85" y="399"/>
      <point x="88" y="377"/>
      <point x="94" y="360" type="curve"/>
      <point x="127" y="360" type="line"/>
      <point x="137" y="430" type="line"/>
      <point x="163" y="433"/>
      <point x="196" y="436"/>
      <point x="223" y="436" type="curve" smooth="yes"/>
      <point x="304" y="436"/>
      <point x="337" y="408"/>
      <point x="337" y="322" type="curve" smooth="yes"/>
      <point x="337" y="249" type="line"/>
      <point x="314" y="252"/>
      <point x="283" y="254"/>
      <point x="251" y="254" type="curve" smooth="yes"/>
      <point x="124" y="254"/>
      <point x="49" y="205"/>
      <point x="49" y="104" type="curve" smooth="yes"/>
      <point x="49" y="36"/>
      <point x="93" y="-9"/>
      <point x="179" y="-9" type="curve" smooth="yes"/>
    </contour>
    <contour>
      <point x="130" y="29"/>
      <point x="94" y="47"/>
      <point x="94" y="113" type="curve" smooth="yes"/>
      <point x="94" y="148"/>
      <point x="103" y="178"/>
      <point x="121" y="207" type="curve"/>
      <point x="154" y="215"/>
      <point x="196" y="219"/>
      <point x="233" y="219" type="curve" smooth="yes"/>
      <point x="271" y="219"/>
      <point x="306" y="217"/>
      <point x="338" y="212" type="curve"/>
      <point x="338" y="111" type="line"/>
      <point x="305" y="60"/>
      <point x="251" y="29"/>
      <point x="187" y="29" type="curve" smooth="yes"/>
    </contour>
    <contour>
      <point x="314" y="561"/>
      <point x="353" y="603"/>
      <point x="353" y="652" type="curve" smooth="yes"/>
      <point x="353" y="707"/>
      <point x="321" y="735"/>
      <point x="256" y="735" type="curve" smooth="yes"/>
      <point x="184" y="735"/>
      <point x="141" y="691"/>
      <point x="141" y="642" type="curve" smooth="yes"/>
      <point x="141" y="589"/>
      <point x="176" y="561"/>
      <point x="239" y="561" type="curve" smooth="yes"/>
    </contour>
    <contour>
      <point x="198" y="592"/>
      <point x="177" y="611"/>
      <point x="177" y="644" type="curve" smooth="yes"/>
      <point x="177" y="661"/>
      <point x="179" y="674"/>
      <point x="186" y="695" type="curve"/>
      <point x="208" y="701"/>
      <point x="227" y="703"/>
      <point x="252" y="703" type="curve" smooth="yes"/>
      <point x="295" y="703"/>
      <point x="317" y="686"/>
      <point x="317" y="650" type="curve" smooth="yes"/>
      <point x="317" y="633"/>
      <point x="314" y="618"/>
      <point x="308" y="601" type="curve"/>
      <point x="286" y="594"/>
      <point x="267" y="592"/>
      <point x="241" y="592" type="curve" smooth="yes"/>
    </contour>
  </outline>
</glyph>
<glyph name="ae" format="1">
  <advance width="750"/>
  <unicode hex="00E6"/>
  <note>
	ae
  </note>
  <outline>
    <contour>
      <point x="278" y="-9"/>
      <point x="325" y="26"/>
      <point x="375" y="83" type="curve"/>
      <point x="404" y="26"/>
      <point x="458" y="-5"/>
      <point x="539" y="-5" type="curve" smooth="yes"/>
      <point x="612" y="-5"/>
      <point x="653" y="14"/>
      <point x="692" y="35" type="curve"/>
      <point x="676" y="71" type="line"/>
      <point x="637" y="48"/>
      <point x="601" y="36"/>
      <point x="540" y="36" type="curve" smooth="yes"/>
      <point x="436" y="36"/>
      <point x="393" y="97"/>
      <point x="389" y="215" type="curve"/>
      <point x="656" y="214" type="line"/>
      <point x="700" y="260" type="line"/>
      <point x="714" y="395"/>
      <point x="648" y="474"/>
      <point x="537" y="474" type="curve" smooth="yes"/>
      <point x="459" y="474"/>
      <point x="407" y="440"/>
      <point x="378" y="383" type="curve"/>
      <point x="361" y="443"/>
      <point x="310" y="474"/>
      <point x="243" y="474" type="curve" smooth="yes"/>
      <point x="184" y="474"/>
      <point x="124" y="453"/>
      <point x="85" y="431" type="curve"/>
      <point x="85" y="417" type="line" smooth="yes"/>
      <point x="85" y="399"/>
      <point x="88" y="377"/>
      <point x="94" y="360" type="curve"/>
      <point x="127" y="360" type="line"/>
      <point x="137" y="430" type="line"/>
      <point x="163" y="433"/>
      <point x="194" y="436"/>
      <point x="221" y="436" type="curve" smooth="yes"/>
      <point x="302" y="436"/>
      <point x="344" y="408"/>
      <point x="344" y="322" type="curve" smooth="yes"/>
      <point x="344" y="249" type="line"/>
      <point x="320" y="252"/>
      <point x="281" y="254"/>
      <point x="249" y="254" type="curve" smooth="yes"/>
      <point x="122" y="254"/>
      <point x="49" y="205"/>
      <point x="49" y="104" type="curve" smooth="yes"/>
      <point x="49" y="36"/>
      <point x="95" y="-9"/>
      <point x="180" y="-9" type="curve" smooth="yes"/>
    </contour>
    <contour>
      <point x="129" y="29"/>
      <point x="94" y="47"/>
      <point x="94" y="113" type="curve" smooth="yes"/>
      <point x="94" y="148"/>
      <point x="103" y="178"/>
      <point x="121" y="207" type="curve"/>
      <point x="154" y="215"/>
      <point x="194" y="219"/>
      <point x="231" y="219" type="curve" smooth="yes"/>
      <point x="269" y="219"/>
      <point x="312" y="217"/>
      <point x="345" y="212" type="curve"/>
      <point x="345" y="103" type="line"/>
      <point x="306" y="58"/>
      <point x="258" y="29"/>
      <point x="187" y="29" type="curve" smooth="yes"/>
    </contour>
    <contour>
      <point x="396" y="364"/>
      <point x="425" y="433"/>
      <point x="534" y="433" type="curve" smooth="yes"/>
      <point x="618" y="433"/>
      <point x="661" y="380"/>
      <point x="661" y="301" type="curve" smooth="yes"/>
      <point x="661" y="285"/>
      <point x="659" y="268"/>
      <point x="655" y="254" type="curve"/>
      <point x="389" y="249" type="line"/>
    </contour>
  </outline>
</glyph>
<glyph name="edieresis" format="1">
  <advance width="466"/>
  <unicode hex="00EB"/>
  <note>
	edieresis
  </note>
  <outline>
    <contour>
      <point x="328" y="-9"/>
      <point x="369" y="9"/>
      <point x="407" y="30" type="curve"/>
      <point x="392" y="66" type="line"/>
      <point x="353" y="43"/>
      <point x="317" y="31"/>
      <point x="256" y="31" type="curve" smooth="yes"/>
      <point x="151" y="31"/>
      <point x="106" y="95"/>
      <point x="103" y="215" type="curve"/>
      <point x="371" y="214" type="line"/>
      <point x="415" y="260" type="line"/>
      <point x="430" y="395"/>
      <point x="363" y="474"/>
      <point x="253" y="474" type="curve" smooth="yes"/>
      <point x="121" y="474"/>
      <point x="59" y="379"/>
      <point x="59" y="231" type="curve" smooth="yes"/>
      <point x="59" y="79"/>
      <point x="118" y="-9"/>
      <point x="255" y="-9" type="curve" smooth="yes"/>
    </contour>
    <contour>
      <point x="109" y="364"/>
      <point x="140" y="433"/>
      <point x="249" y="433" type="curve" smooth="yes"/>
      <point x="334" y="433"/>
      <point x="376" y="380"/>
      <point x="376" y="301" type="curve" smooth="yes"/>
      <point x="376" y="285"/>
      <point x="375" y="268"/>
      <point x="371" y="254" type="curve"/>
      <point x="102" y="249" type="line"/>
    </contour>
    <contour>
      <point x="186" y="561"/>
      <point x="198" y="572"/>
      <point x="198" y="592" type="curve" smooth="yes"/>
      <point x="198" y="613"/>
      <point x="186" y="624"/>
      <point x="166" y="624" type="curve" smooth="yes"/>
      <point x="146" y="624"/>
      <point x="133" y="613"/>
      <point x="133" y="592" type="curve" smooth="yes"/>
      <point x="133" y="572"/>
      <point x="146" y="561"/>
      <point x="166" y="561" type="curve" smooth="yes"/>
    </contour>
    <contour>
      <point x="344" y="561"/>
      <point x="356" y="572"/>
      <point x="356" y="592" type="curve" smooth="yes"/>
      <point x="356" y="613"/>
      <point x="344" y="624"/>
      <point x="324" y="624" type="curve" smooth="yes"/>
      <point x="303" y="624"/>
      <point x="290" y="613"/>
      <point x="290" y="592" type="curve" smooth="yes"/>
      <point x="290" y="572"/>
      <point x="303" y="561"/>
      <point x="324" y="561" type="curve" smooth="yes"/>
    </contour>
  </outline>
</glyph>
<glyph name="igrave" format="1">
  <advance width="225"/>
  <unicode hex="00EC"/>
  <note>
	igrave
  </note>
  <outline>
    <contour>
      <point x="128" y="568" type="line"/>
      <point x="45" y="709" type="line"/>
      <point x="-18" y="702" type="line"/>
      <point x="97" y="563" type="line"/>
    </contour>
    <contour>
      <point x="131" y="0" type="line"/>
      <point x="131" y="465" type="line"/>
      <point x="87" y="465" type="line"/>
      <point x="87" y="0" type="line"/>
    </contour>
  </outline>
</glyph>
<glyph name="iacute" format="1">
  <advance width="225"/>
  <unicode hex="00ED"/>
  <note>
	iacute
  </note>
  <outline>
    <contour>
      <point x="235" y="702" type="line"/>
      <point x="173" y="709" type="line"/>
      <point x="89" y="568" type="line"/>
      <point x="121" y="563" type="line"/>
    </contour>
    <contour>
      <point x="131" y="0" type="line"/>
      <point x="131" y="465" type="line"/>
      <point x="87" y="465" type="line"/>
      <point x="87" y="0" type="line"/>
    </contour>
  </outline>
</glyph>
<glyph name="icircumflex" format="1">
  <advance width="225"/>
  <unicode hex="00EE"/>
  <note>
	icircumflex
  </note>
  <outline>
    <contour>
      <point x="110" y="657" type="line"/>
      <point x="116" y="657" type="line"/>
      <point x="208" y="559" type="line"/>
      <point x="239" y="565" type="line"/>
      <point x="137" y="697" type="line"/>
      <point x="89" y="697" type="line"/>
      <point x="-13" y="565" type="line"/>
      <point x="17" y="559" type="line"/>
    </contour>
    <contour>
      <point x="134" y="0" type="line"/>
      <point x="134" y="465" type="line"/>
      <point x="90" y="465" type="line"/>
      <point x="90" y="0" type="line"/>
    </contour>
  </outline>
</glyph>
<glyph name="idieresis" format="1">
  <advance width="225"/>
  <unicode hex="00EF"/>
  <note>
	idieresis
  </note>
  <outline>
    <contour>
      <point x="134" y="0" type="line"/>
      <point x="134" y="465" type="line"/>
      <point x="90" y="465" type="line"/>
      <point x="90" y="0" type="line"/>
    </contour>
    <contour>
      <point x="54" y="561"/>
      <point x="66" y="572"/>
      <point x="66" y="592" type="curve" smooth="yes"/>
      <point x="66" y="613"/>
      <point x="54" y="624"/>
      <point x="34" y="624" type="curve" smooth="yes"/>
      <point x="14" y="624"/>
      <point x="1" y="613"/>
      <point x="1" y="592" type="curve" smooth="yes"/>
      <point x="1" y="572"/>
      <point x="14" y="561"/>
      <point x="34" y="561" type="curve" smooth="yes"/>
    </contour>
    <contour>
      <point x="212" y="561"/>
      <point x="224" y="572"/>
      <point x="224" y="592" type="curve" smooth="yes"/>
      <point x="224" y="613"/>
      <point x="212" y="624"/>
      <point x="192" y="624" type="curve" smooth="yes"/>
      <point x="171" y="624"/>
      <point x="158" y="613"/>
      <point x="158" y="592" type="curve" smooth="yes"/>
      <point x="158" y="572"/>
      <point x="171" y="561"/>
      <point x="192" y="561" type="curve" smooth="yes"/>
    </contour>
  </outline>
</glyph>
<glyph name="ntilde" format="1">
  <advance width="510"/>
  <unicode hex="00F1"/>
  <note>
	ntilde
  </note>
  <outline>
    <contour>
      <point x="129" y="0" type="line"/>
      <point x="129" y="360" type="line"/>
      <point x="170" y="402"/>
      <point x="236" y="433"/>
      <point x="303" y="433" type="curve" smooth="yes"/>
      <point x="336" y="433"/>
      <point x="358" y="429"/>
      <point x="384" y="420" type="curve"/>
      <point x="384" y="0" type="line"/>
      <point x="429" y="0" type="line"/>
      <point x="429" y="383" type="line" smooth="yes"/>
      <point x="429" y="448"/>
      <point x="388" y="474"/>
      <point x="312" y="474" type="curve" smooth="yes"/>
      <point x="243" y="474"/>
      <point x="184" y="446"/>
      <point x="131" y="397" type="curve"/>
      <point x="124" y="397" type="line"/>
      <point x="121" y="466" type="line"/>
      <point x="84" y="466" type="line"/>
      <point x="84" y="0" type="line"/>
    </contour>
    <contour>
      <point x="160" y="593"/>
      <point x="173" y="614"/>
      <point x="202" y="614" type="curve" smooth="yes"/>
      <point x="239" y="614"/>
      <point x="268" y="561"/>
      <point x="317" y="561" type="curve" smooth="yes"/>
      <point x="362" y="561"/>
      <point x="387" y="593"/>
      <point x="390" y="645" type="curve"/>
      <point x="359" y="655" type="line"/>
      <point x="355" y="622"/>
      <point x="342" y="601"/>
      <point x="313" y="601" type="curve" smooth="yes"/>
      <point x="275" y="601"/>
      <point x="245" y="654"/>
      <point x="198" y="654" type="curve" smooth="yes"/>
      <point x="153" y="654"/>
      <point x="128" y="622"/>
      <point x="125" y="570" type="curve"/>
      <point x="156" y="560" type="line"/>
    </contour>
  </outline>
</glyph>
<glyph name="otilde" format="1">
  <advance width="498"/>
  <unicode hex="00F5"/>
  <note>
	otilde
  </note>
  <outline>
    <contour>
      <point x="399" y="-9"/>
      <point x="440" y="102"/>
      <point x="440" y="242" type="curve" smooth="yes"/>
      <point x="440" y="386"/>
      <point x="384" y="481"/>
      <point x="260" y="481" type="curve" smooth="yes"/>
      <point x="99" y="481"/>
      <point x="58" y="367"/>
      <point x="58" y="227" type="curve" smooth="yes"/>
      <point x="58" y="83"/>
      <point x="114" y="-9"/>
      <point x="238" y="-9" type="curve" smooth="yes"/>
    </contour>
    <contour>
      <point x="144" y="31"/>
      <point x="102" y="97"/>
      <point x="102" y="236" type="curve" smooth="yes"/>
      <point x="102" y="309"/>
      <point x="117" y="378"/>
      <point x="139" y="415" type="curve"/>
      <point x="168" y="432"/>
      <point x="206" y="439"/>
      <point x="248" y="439" type="curve" smooth="yes"/>
      <point x="353" y="439"/>
      <point x="395" y="372"/>
      <point x="395" y="231" type="curve" smooth="yes"/>
      <point x="395" y="159"/>
      <point x="380" y="92"/>
      <point x="358" y="55" type="curve"/>
      <point x="329" y="39"/>
      <point x="291" y="31"/>
      <point x="249" y="31" type="curve" smooth="yes"/>
    </contour>
    <contour>
      <point x="152" y="593"/>
      <point x="165" y="614"/>
      <point x="194" y="614" type="curve" smooth="yes"/>
      <point x="231" y="614"/>
      <point x="260" y="561"/>
      <point x="309" y="561" type="curve" smooth="yes"/>
      <point x="354" y="561"/>
      <point x="379" y="593"/>
      <point x="382" y="645" type="curve"/>
      <point x="351" y="655" type="line"/>
      <point x="347" y="622"/>
      <point x="334" y="601"/>
      <point x="305" y="601" type="curve" smooth="yes"/>
      <point x="267" y="601"/>
      <point x="237" y="654"/>
      <point x="190" y="654" type="curve" smooth="yes"/>
      <point x="145" y="654"/>
      <point x="120" y="622"/>
      <point x="117" y="570" type="curve"/>
      <point x="148" y="560" type="line"/>
    </contour>
  </outline>
</glyph>
<glyph name="divide" format="1">
  <advance width="526"/>
  <unicode hex="00F7"/>
  <note>
	divide
  </note>
  <outline>
    <contour>
      <point x="465" y="287" type="line"/>
      <point x="465" y="327" type="line"/>
      <point x="61" y="327" type="line"/>
      <point x="61" y="287" type="line"/>
    </contour>
    <contour>
      <point x="288" y="107"/>
      <point x="304" y="123"/>
      <point x="304" y="147" type="curve" smooth="yes"/>
      <point x="304" y="173"/>
      <point x="288" y="189"/>
      <point x="263" y="189" type="curve" smooth="yes"/>
      <point x="238" y="189"/>
      <point x="221" y="173"/>
      <point x="221" y="147" type="curve" smooth="yes"/>
      <point x="221" y="123"/>
      <point x="238" y="107"/>
      <point x="263" y="107" type="curve" smooth="yes"/>
    </contour>
    <contour>
      <point x="288" y="424"/>
      <point x="304" y="440"/>
      <point x="304" y="464" type="curve" smooth="yes"/>
      <point x="304" y="490"/>
      <point x="288" y="506"/>
      <point x="263" y="506" type="curve" smooth="yes"/>
      <point x="238" y="506"/>
      <point x="221" y="490"/>
      <point x="221" y="464" type="curve" smooth="yes"/>
      <point x="221" y="440"/>
      <point x="238" y="424"/>
      <point x="263" y="424" type="curve" smooth="yes"/>
    </contour>
  </outline>
</glyph>
<glyph name="ugrave" format="1">
  <advance width="504"/>
  <unicode hex="00F9"/>
  <note>
	ugrave
  </note>
  <outline>
    <contour>
      <point x="271" y="-9"/>
      <point x="322" y="22"/>
      <point x="373" y="71" type="curve"/>
      <point x="379" y="71" type="line"/>
      <point x="383" y="0" type="line"/>
      <point x="420" y="0" type="line"/>
      <point x="420" y="466" type="line"/>
      <point x="375" y="466" type="line"/>
      <point x="375" y="109" type="line"/>
      <point x="336" y="66"/>
      <point x="275" y="32"/>
      <point x="203" y="32" type="curve" smooth="yes"/>
      <point x="172" y="32"/>
      <point x="150" y="35"/>
      <point x="124" y="44" type="curve"/>
      <point x="124" y="466" type="line"/>
      <point x="79" y="466" type="line"/>
      <point x="79" y="82" type="line" smooth="yes"/>
      <point x="79" y="17"/>
      <point x="121" y="-9"/>
      <point x="196" y="-9" type="curve" smooth="yes"/>
    </contour>
    <contour>
      <point x="282" y="568" type="line"/>
      <point x="198" y="709" type="line"/>
      <point x="136" y="702" type="line"/>
      <point x="250" y="563" type="line"/>
    </contour>
  </outline>
</glyph>
<glyph name="uacute" format="1">
  <advance width="504"/>
  <unicode hex="00FA"/>
  <note>
	uacute
  </note>
  <outline>
    <contour>
      <point x="271" y="-9"/>
      <point x="322" y="22"/>
      <point x="373" y="71" type="curve"/>
      <point x="379" y="71" type="line"/>
      <point x="383" y="0" type="line"/>
      <point x="420" y="0" type="line"/>
      <point x="420" y="466" type="line"/>
      <point x="375" y="466" type="line"/>
      <point x="375" y="109" type="line"/>
      <point x="336" y="66"/>
      <point x="275" y="32"/>
      <point x="203" y="32" type="curve" smooth="yes"/>
      <point x="172" y="32"/>
      <point x="150" y="35"/>
      <point x="124" y="44" type="curve"/>
      <point x="124" y="466" type="line"/>
      <point x="79" y="466" type="line"/>
      <point x="79" y="82" type="line" smooth="yes"/>
      <point x="79" y="17"/>
      <point x="121" y="-9"/>
      <point x="196" y="-9" type="curve" smooth="yes"/>
    </contour>
    <contour>
      <point x="367" y="699" type="line"/>
      <point x="305" y="705" type="line"/>
      <point x="221" y="565" type="line"/>
      <point x="253" y="559" type="line"/>
    </contour>
  </outline>
</glyph>
<glyph name="Abreve" format="1">
  <advance width="580"/>
  <unicode hex="0102"/>
  <note>
	Abreve
  </note>
  <outline>
    <contour>
      <point x="366" y="708"/>
      <point x="400" y="752"/>
      <point x="411" y="808" type="curve"/>
      <point x="366" y="816" type="line"/>
      <point x="358" y="775"/>
      <point x="343" y="746"/>
      <point x="289" y="746" type="curve" smooth="yes"/>
      <point x="235" y="746"/>
      <point x="220" y="775"/>
      <point x="212" y="816" type="curve"/>
      <point x="167" y="808" type="line"/>
      <point x="178" y="752"/>
      <point x="212" y="708"/>
      <point x="289" y="708" type="curve" smooth="yes"/>
    </contour>
    <component base="A"/>
  </outline>
</glyph>
<glyph name="aogonek" format="1">
  <advance width="488"/>
  <unicode hex="0105"/>
  <note>
	aogonek
  </note>
  <outline>
    <contour>
      <point x="247" y="-9"/>
      <point x="298" y="20"/>
      <point x="334" y="67" type="curve"/>
      <point x="341" y="67" type="line"/>
      <point x="344" y="0" type="line"/>
      <point x="382" y="0" type="line"/>
      <point x="382" y="332" type="line" smooth="yes"/>
      <point x="382" y="425"/>
      <point x="332" y="474"/>
      <point x="245" y="474" type="curve" smooth="yes"/>
      <point x="186" y="474"/>
      <point x="124" y="453"/>
      <point x="85" y="431" type="curve"/>
      <point x="85" y="417" type="line" smooth="yes"/>
      <point x="85" y="399"/>
      <point x="88" y="377"/>
      <point x="94" y="360" type="curve"/>
      <point x="127" y="360" type="line"/>
      <point x="137" y="430" type="line"/>
      <point x="163" y="433"/>
      <point x="196" y="436"/>
      <point x="223" y="436" type="curve" smooth="yes"/>
      <point x="304" y="436"/>
      <point x="337" y="408"/>
      <point x="337" y="322" type="curve" smooth="yes"/>
      <point x="337" y="249" type="line"/>
      <point x="314" y="252"/>
      <point x="283" y="254"/>
      <point x="251" y="254" type="curve" smooth="yes"/>
      <point x="124" y="254"/>
      <point x="49" y="205"/>
      <point x="49" y="104" type="curve" smooth="yes"/>
      <point x="49" y="36"/>
      <point x="93" y="-9"/>
      <point x="179" y="-9" type="curve" smooth="yes"/>
    </contour>
    <contour>
      <point x="379" y="-166"/>
      <point x="396" y="-162"/>
      <point x="411" y="-155" type="curve"/>
      <point x="404" y="-123" type="line"/>
      <point x="389" y="-126"/>
      <point x="376" y="-128"/>
      <point x="363" y="-128" type="curve" smooth="yes"/>
      <point x="348" y="-128"/>
      <point x="337" y="-127"/>
      <point x="323" y="-124" type="curve"/>
      <point x="318" y="-113"/>
      <point x="315" y="-100"/>
      <point x="315" y="-88" type="curve" smooth="yes"/>
      <point x="315" y="-49"/>
      <point x="332" y="-24"/>
      <point x="381" y="3" type="curve"/>
      <point x="353" y="11" type="line"/>
      <point x="302" y="-10"/>
      <point x="273" y="-41"/>
      <point x="273" y="-89" type="curve" smooth="yes"/>
      <point x="273" y="-136"/>
      <point x="301" y="-166"/>
      <point x="355" y="-166" type="curve" smooth="yes"/>
    </contour>
    <contour>
      <point x="130" y="29"/>
      <point x="94" y="47"/>
      <point x="94" y="113" type="curve" smooth="yes"/>
      <point x="94" y="148"/>
      <point x="103" y="178"/>
      <point x="121" y="207" type="curve"/>
      <point x="154" y="215"/>
      <point x="196" y="219"/>
      <point x="233" y="219" type="curve" smooth="yes"/>
      <point x="271" y="219"/>
      <point x="306" y="217"/>
      <point x="338" y="212" type="curve"/>
      <point x="338" y="111" type="line"/>
      <point x="305" y="60"/>
      <point x="251" y="29"/>
      <point x="187" y="29" type="curve" smooth="yes"/>
    </contour>
  </outline>
</glyph>
<glyph name="Dcaron" format="1">
  <advance width="564"/>
  <unicode hex="010E"/>
  <note>
	Dcaron
  </note>
  <outline>
    <contour>
      <point x="256" y="0" type="line" smooth="yes"/>
      <point x="463" y="0"/>
      <point x="513" y="148"/>
      <point x="513" y="317" type="curve" smooth="yes"/>
      <point x="513" y="515"/>
      <point x="437" y="622"/>
      <point x="247" y="622" type="curve" smooth="yes"/>
      <point x="188" y="622"/>
      <point x="137" y="615"/>
      <point x="86" y="605" type="curve"/>
      <point x="86" y="0" type="line"/>
    </contour>
    <contour>
      <point x="133" y="569" type="line"/>
      <point x="175" y="575"/>
      <point x="206" y="578"/>
      <point x="243" y="578" type="curve" smooth="yes"/>
      <point x="404" y="578"/>
      <point x="466" y="495"/>
      <point x="466" y="312" type="curve" smooth="yes"/>
      <point x="466" y="202"/>
      <point x="441" y="115"/>
      <point x="394" y="63" type="curve"/>
      <point x="351" y="49"/>
      <point x="312" y="44"/>
      <point x="253" y="44" type="curve" smooth="yes"/>
      <point x="133" y="44" type="line"/>
    </contour>
    <contour>
      <point x="303" y="714" type="line"/>
      <point x="404" y="845" type="line"/>
      <point x="374" y="852" type="line"/>
      <point x="281" y="754" type="line"/>
      <point x="276" y="754" type="line"/>
      <point x="182" y="852" type="line"/>
      <point x="152" y="845" type="line"/>
      <point x="254" y="714" type="line"/>
    </contour>
  </outline>
</glyph>
<glyph name="dcroat" format="1">
  <advance width="524"/>
  <unicode hex="0111"/>
  <note>
	dcroat
  </note>
  <outline>
    <contour>
      <point x="302" y="-9"/>
      <point x="352" y="27"/>
      <point x="381" y="68" type="curve"/>
      <point x="388" y="68" type="line"/>
      <point x="391" y="0" type="line"/>
      <point x="428" y="0" type="line"/>
      <point x="428" y="548" type="line"/>
      <point x="486" y="548" type="line"/>
      <point x="486" y="586" type="line"/>
      <point x="428" y="586" type="line"/>
      <point x="428" y="667" type="line"/>
      <point x="383" y="667" type="line"/>
      <point x="383" y="586" type="line"/>
      <point x="243" y="586" type="line"/>
      <point x="243" y="548" type="line"/>
      <point x="383" y="548" type="line"/>
      <point x="383" y="494" type="line"/>
      <point x="387" y="410" type="line"/>
      <point x="381" y="410" type="line"/>
      <point x="340" y="448"/>
      <point x="296" y="474"/>
      <point x="234" y="474" type="curve" smooth="yes"/>
      <point x="106" y="474"/>
      <point x="59" y="355"/>
      <point x="59" y="234" type="curve" smooth="yes"/>
      <point x="59" y="83"/>
      <point x="109" y="-9"/>
      <point x="235" y="-9" type="curve" smooth="yes"/>
    </contour>
    <contour>
      <point x="136" y="31"/>
      <point x="104" y="106"/>
      <point x="104" y="231" type="curve" smooth="yes"/>
      <point x="104" y="360"/>
      <point x="147" y="433"/>
      <point x="245" y="433" type="curve" smooth="yes"/>
      <point x="299" y="433"/>
      <point x="335" y="414"/>
      <point x="382" y="370" type="curve"/>
      <point x="382" y="117" type="line"/>
      <point x="358" y="74"/>
      <point x="313" y="31"/>
      <point x="244" y="31" type="curve" smooth="yes"/>
    </contour>
  </outline>
</glyph>
<glyph name="Edotaccent" format="1">
  <advance width="520"/>
  <unicode hex="0116"/>
  <note>
	Edotaccent
  </note>
  <outline>
    <contour>
      <point x="354" y="-9"/>
      <point x="404" y="-4"/>
      <point x="453" y="7" type="curve"/>
      <point x="442" y="49" type="line"/>
      <point x="394" y="39"/>
      <point x="345" y="34"/>
      <point x="288" y="34" type="curve" smooth="yes"/>
      <point x="227" y="34"/>
      <point x="185" y="38"/>
      <point x="133" y="48" type="curve"/>
      <point x="133" y="286" type="line"/>
      <point x="412" y="286" type="line"/>
      <point x="412" y="330" type="line"/>
      <point x="133" y="330" type="line"/>
      <point x="133" y="568" type="line"/>
      <point x="441" y="568" type="line"/>
      <point x="441" y="612" type="line"/>
      <point x="86" y="612" type="line"/>
      <point x="86" y="61" type="line" smooth="yes"/>
      <point x="86" y="7"/>
      <point x="176" y="-9"/>
      <point x="285" y="-9" type="curve" smooth="yes"/>
    </contour>
    <contour>
      <point x="299" y="709"/>
      <point x="314" y="723"/>
      <point x="314" y="749" type="curve" smooth="yes"/>
      <point x="314" y="777"/>
      <point x="299" y="791"/>
      <point x="272" y="791" type="curve" smooth="yes"/>
      <point x="244" y="791"/>
      <point x="228" y="777"/>
      <point x="228" y="749" type="curve" smooth="yes"/>
      <point x="228" y="723"/>
      <point x="244" y="709"/>
      <point x="272" y="709" type="curve" smooth="yes"/>
    </contour>
  </outline>
</glyph>
<glyph name="Eogonek" format="1">
  <advance width="520"/>
  <unicode hex="0118"/>
  <note>
	Eogonek
  </note>
  <outline>
    <contour>
      <point x="430" y="-164"/>
      <point x="446" y="-160"/>
      <point x="462" y="-153" type="curve"/>
      <point x="455" y="-121" type="line"/>
      <point x="440" y="-124"/>
      <point x="427" y="-126"/>
      <point x="414" y="-126" type="curve" smooth="yes"/>
      <point x="399" y="-126"/>
      <point x="388" y="-125"/>
      <point x="374" y="-122" type="curve"/>
      <point x="368" y="-112"/>
      <point x="366" y="-99"/>
      <point x="366" y="-86" type="curve" smooth="yes"/>
      <point x="366" y="-53"/>
      <point x="377" y="-28"/>
      <point x="419" y="-1" type="curve"/>
      <point x="431" y="1"/>
      <point x="443" y="4"/>
      <point x="453" y="7" type="curve"/>
      <point x="442" y="49" type="line"/>
      <point x="394" y="39"/>
      <point x="345" y="34"/>
      <point x="288" y="34" type="curve" smooth="yes"/>
      <point x="227" y="34"/>
      <point x="185" y="38"/>
      <point x="133" y="48" type="curve"/>
      <point x="133" y="286" type="line"/>
      <point x="412" y="286" type="line"/>
      <point x="412" y="330" type="line"/>
      <point x="133" y="330" type="line"/>
      <point x="133" y="568" type="line"/>
      <point x="441" y="568" type="line"/>
      <point x="441" y="612" type="line"/>
      <point x="86" y="612" type="line"/>
      <point x="86" y="61" type="line" smooth="yes"/>
      <point x="86" y="7"/>
      <point x="176" y="-9"/>
      <point x="285" y="-9" type="curve" smooth="yes"/>
      <point x="316" y="-9"/>
      <point x="342" y="-8"/>
      <point x="367" y="-6" type="curve"/>
      <point x="337" y="-26"/>
      <point x="324" y="-53"/>
      <point x="324" y="-87" type="curve" smooth="yes"/>
      <point x="324" y="-134"/>
      <point x="352" y="-164"/>
      <point x="406" y="-164" type="curve" smooth="yes"/>
    </contour>
  </outline>
</glyph>
<glyph name="eogonek" format="1">
  <advance width="468"/>
  <unicode hex="0119"/>
  <note>
	eogonek
  </note>
  <outline>
    <contour>
      <point x="396" y="-142"/>
      <point x="412" y="-138"/>
      <point x="428" y="-131" type="curve"/>
      <point x="420" y="-99" type="line"/>
      <point x="406" y="-102"/>
      <point x="393" y="-104"/>
      <point x="379" y="-104" type="curve" smooth="yes"/>
      <point x="365" y="-104"/>
      <point x="354" y="-103"/>
      <point x="340" y="-100" type="curve"/>
      <point x="334" y="-90"/>
      <point x="332" y="-77"/>
      <point x="332" y="-64" type="curve" smooth="yes"/>
      <point x="332" y="-31"/>
      <point x="344" y="-8"/>
      <point x="380" y="16" type="curve"/>
      <point x="390" y="20"/>
      <point x="398" y="26"/>
      <point x="407" y="30" type="curve"/>
      <point x="392" y="66" type="line"/>
      <point x="353" y="43"/>
      <point x="317" y="31"/>
      <point x="256" y="31" type="curve" smooth="yes"/>
      <point x="151" y="31"/>
      <point x="106" y="95"/>
      <point x="103" y="215" type="curve"/>
      <point x="371" y="214" type="line"/>
      <point x="415" y="260" type="line"/>
      <point x="430" y="395"/>
      <point x="363" y="474"/>
      <point x="253" y="474" type="curve" smooth="yes"/>
      <point x="121" y="474"/>
      <point x="59" y="379"/>
      <point x="59" y="231" type="curve" smooth="yes"/>
      <point x="59" y="79"/>
      <point x="118" y="-9"/>
      <point x="255" y="-9" type="curve" smooth="yes"/>
      <point x="276" y="-9"/>
      <point x="294" y="-8"/>
      <point x="311" y="-5" type="curve"/>
      <point x="296" y="-22"/>
      <point x="290" y="-41"/>
      <point x="290" y="-65" type="curve" smooth="yes"/>
      <point x="290" y="-112"/>
      <point x="318" y="-142"/>
      <point x="372" y="-142" type="curve" smooth="yes"/>
    </contour>
    <contour>
      <point x="109" y="364"/>
      <point x="140" y="433"/>
      <point x="249" y="433" type="curve" smooth="yes"/>
      <point x="334" y="433"/>
      <point x="376" y="380"/>
      <point x="376" y="301" type="curve" smooth="yes"/>
      <point x="376" y="285"/>
      <point x="375" y="268"/>
      <point x="371" y="254" type="curve"/>
      <point x="102" y="249" type="line"/>
    </contour>
  </outline>
</glyph>
<glyph name="Ecaron" format="1">
  <advance width="520"/>
  <unicode hex="011A"/>
  <note>
	Ecaron
  </note>
  <outline>
    <contour>
      <point x="354" y="-9"/>
      <point x="404" y="-4"/>
      <point x="453" y="7" type="curve"/>
      <point x="442" y="49" type="line"/>
      <point x="394" y="39"/>
      <point x="345" y="34"/>
      <point x="288" y="34" type="curve" smooth="yes"/>
      <point x="227" y="34"/>
      <point x="185" y="38"/>
      <point x="133" y="48" type="curve"/>
      <point x="133" y="286" type="line"/>
      <point x="412" y="286" type="line"/>
      <point x="412" y="330" type="line"/>
      <point x="133" y="330" type="line"/>
      <point x="133" y="568" type="line"/>
      <point x="441" y="568" type="line"/>
      <point x="441" y="612" type="line"/>
      <point x="86" y="612" type="line"/>
      <point x="86" y="61" type="line" smooth="yes"/>
      <point x="86" y="7"/>
      <point x="176" y="-9"/>
      <point x="285" y="-9" type="curve" smooth="yes"/>
    </contour>
    <contour>
      <point x="289" y="714" type="line"/>
      <point x="390" y="845" type="line"/>
      <point x="360" y="852" type="line"/>
      <point x="267" y="754" type="line"/>
      <point x="262" y="754" type="line"/>
      <point x="168" y="852" type="line"/>
      <point x="138" y="845" type="line"/>
      <point x="240" y="714" type="line"/>
    </contour>
  </outline>
</glyph>
<glyph name="gcircumflex" format="1">
  <advance width="498"/>
  <unicode hex="011D"/>
  <note>
	gcircumflex
  </note>
  <outline>
    <contour>
      <point x="345" y="-188"/>
      <point x="417" y="-154"/>
      <point x="417" y="-62" type="curve" smooth="yes"/>
      <point x="417" y="470" type="line"/>
      <point x="379" y="470" type="line"/>
      <point x="375" y="396" type="line"/>
      <point x="369" y="396" type="line"/>
      <point x="341" y="440"/>
      <point x="299" y="474"/>
      <point x="233" y="474" type="curve" smooth="yes"/>
      <point x="108" y="474"/>
      <point x="60" y="376"/>
      <point x="60" y="228" type="curve" smooth="yes"/>
      <point x="60" y="98"/>
      <point x="109" y="4"/>
      <point x="224" y="4" type="curve" smooth="yes"/>
      <point x="289" y="4"/>
      <point x="336" y="38"/>
      <point x="369" y="78" type="curve"/>
      <point x="377" y="78" type="line"/>
      <point x="374" y="18" type="line"/>
      <point x="374" y="-119" type="line"/>
      <point x="342" y="-138"/>
      <point x="303" y="-148"/>
      <point x="241" y="-148" type="curve" smooth="yes"/>
      <point x="193" y="-148"/>
      <point x="143" y="-136"/>
      <point x="104" y="-118" type="curve"/>
      <point x="90" y="-155" type="line"/>
      <point x="128" y="-174"/>
      <point x="180" y="-188"/>
      <point x="244" y="-188" type="curve" smooth="yes"/>
    </contour>
    <contour>
      <point x="145" y="44"/>
      <point x="105" y="108"/>
      <point x="105" y="232" type="curve" smooth="yes"/>
      <point x="105" y="360"/>
      <point x="139" y="434"/>
      <point x="237" y="434" type="curve" smooth="yes"/>
      <point x="300" y="434"/>
      <point x="342" y="395"/>
      <point x="372" y="353" type="curve"/>
      <point x="372" y="121" type="line"/>
      <point x="338" y="77"/>
      <point x="294" y="44"/>
      <point x="232" y="44" type="curve" smooth="yes"/>
    </contour>
    <contour>
      <point x="254" y="657" type="line"/>
      <point x="259" y="657" type="line"/>
      <point x="352" y="559" type="line"/>
      <point x="382" y="565" type="line"/>
      <point x="281" y="697" type="line"/>
      <point x="232" y="697" type="line"/>
      <point x="130" y="565" type="line"/>
      <point x="160" y="559" type="line"/>
    </contour>
  </outline>
</glyph>
<glyph name="gcommaaccent" format="1">
  <advance width="498"/>
  <unicode hex="0123"/>
  <note>
	gcommaaccent
  </note>
  <outline>
    <contour>
      <point x="345" y="-188"/>
      <point x="417" y="-154"/>
      <point x="417" y="-62" type="curve" smooth="yes"/>
      <point x="417" y="470" type="line"/>
      <point x="379" y="470" type="line"/>
      <point x="375" y="396" type="line"/>
      <point x="369" y="396" type="line"/>
      <point x="341" y="440"/>
      <point x="299" y="474"/>
      <point x="233" y="474" type="curve" smooth="yes"/>
      <point x="108" y="474"/>
      <point x="60" y="376"/>
      <point x="60" y="228" type="curve" smooth="yes"/>
      <point x="60" y="98"/>
      <point x="109" y="4"/>
      <point x="224" y="4" type="curve" smooth="yes"/>
      <point x="289" y="4"/>
      <point x="336" y="38"/>
      <point x="369" y="78" type="curve"/>
      <point x="377" y="78" type="line"/>
      <point x="374" y="18" type="line"/>
      <point x="374" y="-119" type="line"/>
      <point x="342" y="-138"/>
      <point x="303" y="-148"/>
      <point x="241" y="-148" type="curve" smooth="yes"/>
      <point x="193" y="-148"/>
      <point x="143" y="-136"/>
      <point x="104" y="-118" type="curve"/>
      <point x="90" y="-155" type="line"/>
      <point x="128" y="-174"/>
      <point x="180" y="-188"/>
      <point x="244" y="-188" type="curve" smooth="yes"/>
    </contour>
    <contour>
      <point x="145" y="44"/>
      <point x="105" y="108"/>
      <point x="105" y="232" type="curve" smooth="yes"/>
      <point x="105" y="360"/>
      <point x="139" y="434"/>
      <point x="237" y="434" type="curve" smooth="yes"/>
      <point x="300" y="434"/>
      <point x="342" y="395"/>
      <point x="372" y="353" type="curve"/>
      <point x="372" y="121" type="line"/>
      <point x="338" y="77"/>
      <point x="294" y="44"/>
      <point x="232" y="44" type="curve" smooth="yes"/>
    </contour>
    <contour>
      <point x="300" y="596"/>
      <point x="316" y="638"/>
      <point x="316" y="684" type="curve" smooth="yes"/>
      <point x="316" y="724"/>
      <point x="298" y="745"/>
      <point x="260" y="745" type="curve" smooth="yes"/>
      <point x="246" y="745"/>
      <point x="233" y="743"/>
      <point x="222" y="739" type="curve"/>
      <point x="222" y="706" type="line"/>
      <point x="277" y="706" type="line"/>
      <point x="277" y="646"/>
      <point x="264" y="607"/>
      <point x="241" y="566" type="curve"/>
      <point x="271" y="559" type="line"/>
    </contour>
  </outline>
</glyph>
<glyph name="Hcircumflex" format="1">
  <advance width="584"/>
  <unicode hex="0124"/>
  <note>
	Hcircumflex
  </note>
  <outline>
    <contour>
      <point x="133" y="0" type="line"/>
      <point x="133" y="274" type="line"/>
      <point x="452" y="274" type="line"/>
      <point x="452" y="0" type="line"/>
      <point x="499" y="0" type="line"/>
      <point x="499" y="612" type="line"/>
      <point x="452" y="612" type="line"/>
      <point x="452" y="319" type="line"/>
      <point x="133" y="319" type="line"/>
      <point x="133" y="612" type="line"/>
      <point x="86" y="612" type="line"/>
      <point x="86" y="0" type="line"/>
    </contour>
    <contour>
      <point x="290" y="805" type="line"/>
      <point x="295" y="805" type="line"/>
      <point x="388" y="707" type="line"/>
      <point x="418" y="714" type="line"/>
      <point x="317" y="845" type="line"/>
      <point x="268" y="845" type="line"/>
      <point x="166" y="714" type="line"/>
      <point x="196" y="707" type="line"/>
    </contour>
  </outline>
</glyph>
<glyph name="hcircumflex" format="1">
  <advance width="510"/>
  <unicode hex="0125"/>
  <note>
	hcircumflex
  </note>
  <outline>
    <contour>
      <point x="130" y="0" type="line"/>
      <point x="130" y="360" type="line"/>
      <point x="171" y="402"/>
      <point x="237" y="433"/>
      <point x="304" y="433" type="curve" smooth="yes"/>
      <point x="337" y="433"/>
      <point x="359" y="429"/>
      <point x="385" y="420" type="curve"/>
      <point x="385" y="0" type="line"/>
      <point x="430" y="0" type="line"/>
      <point x="430" y="383" type="line" smooth="yes"/>
      <point x="430" y="448"/>
      <point x="389" y="474"/>
      <point x="313" y="474" type="curve" smooth="yes"/>
      <point x="244" y="474"/>
      <point x="185" y="446"/>
      <point x="132" y="397" type="curve"/>
      <point x="126" y="397" type="line"/>
      <point x="130" y="485" type="line"/>
      <point x="130" y="667" type="line"/>
      <point x="85" y="667" type="line"/>
      <point x="85" y="0" type="line"/>
    </contour>
    <contour>
      <point x="270" y="808" type="line"/>
      <point x="275" y="808" type="line"/>
      <point x="368" y="710" type="line"/>
      <point x="398" y="717" type="line"/>
      <point x="297" y="849" type="line"/>
      <point x="248" y="849" type="line"/>
      <point x="146" y="717" type="line"/>
      <point x="176" y="710" type="line"/>
    </contour>
  </outline>
</glyph>
<glyph name="Hbar" format="1">
  <advance width="665"/>
  <unicode hex="0126"/>
  <note>
	Hbar
  </note>
  <outline>
    <contour>
      <point x="173" y="0" type="line"/>
      <point x="173" y="274" type="line"/>
      <point x="492" y="274" type="line"/>
      <point x="492" y="0" type="line"/>
      <point x="539" y="0" type="line"/>
      <point x="539" y="449" type="line"/>
      <point x="604" y="449" type="line"/>
      <point x="604" y="489" type="line"/>
      <point x="539" y="489" type="line"/>
      <point x="539" y="612" type="line"/>
      <point x="492" y="612" type="line"/>
      <point x="492" y="489" type="line"/>
      <point x="173" y="489" type="line"/>
      <point x="173" y="612" type="line"/>
      <point x="126" y="612" type="line"/>
      <point x="126" y="489" type="line"/>
      <point x="61" y="489" type="line"/>
      <point x="61" y="449" type="line"/>
      <point x="126" y="449" type="line"/>
      <point x="126" y="0" type="line"/>
    </contour>
    <contour>
      <point x="173" y="449" type="line"/>
      <point x="492" y="449" type="line"/>
      <point x="492" y="319" type="line"/>
      <point x="173" y="319" type="line"/>
    </contour>
  </outline>
</glyph>
<glyph name="hbar" format="1">
  <advance width="511"/>
  <unicode hex="0127"/>
  <note>
	hbar
  </note>
  <outline>
    <contour>
      <point x="130" y="0" type="line"/>
      <point x="130" y="360" type="line"/>
      <point x="172" y="402"/>
      <point x="237" y="433"/>
      <point x="305" y="433" type="curve" smooth="yes"/>
      <point x="337" y="433"/>
      <point x="360" y="429"/>
      <point x="386" y="420" type="curve"/>
      <point x="386" y="0" type="line"/>
      <point x="430" y="0" type="line"/>
      <point x="430" y="383" type="line" smooth="yes"/>
      <point x="430" y="448"/>
      <point x="390" y="474"/>
      <point x="313" y="474" type="curve" smooth="yes"/>
      <point x="245" y="474"/>
      <point x="185" y="446"/>
      <point x="133" y="397" type="curve"/>
      <point x="127" y="397" type="line"/>
      <point x="130" y="485" type="line"/>
      <point x="130" y="550" type="line"/>
      <point x="264" y="550" type="line"/>
      <point x="264" y="587" type="line"/>
      <point x="130" y="587" type="line"/>
      <point x="130" y="667" type="line"/>
      <point x="86" y="667" type="line"/>
      <point x="86" y="587" type="line"/>
      <point x="21" y="587" type="line"/>
      <point x="21" y="550" type="line"/>
      <point x="86" y="550" type="line"/>
      <point x="86" y="0" type="line"/>
    </contour>
  </outline>
</glyph>
<glyph name="Itilde" format="1">
  <advance width="225"/>
  <unicode hex="0128"/>
  <note>
	Itilde
  </note>
  <outline>
    <contour>
      <point x="136" y="0" type="line"/>
      <point x="136" y="612" type="line"/>
      <point x="89" y="612" type="line"/>
      <point x="89" y="0" type="line"/>
    </contour>
    <contour>
      <point x="15" y="741"/>
      <point x="28" y="762"/>
      <point x="57" y="762" type="curve" smooth="yes"/>
      <point x="93" y="762"/>
      <point x="122" y="709"/>
      <point x="172" y="709" type="curve" smooth="yes"/>
      <point x="217" y="709"/>
      <point x="242" y="741"/>
      <point x="245" y="793" type="curve"/>
      <point x="214" y="802" type="line"/>
      <point x="210" y="770"/>
      <point x="197" y="749"/>
      <point x="168" y="749" type="curve" smooth="yes"/>
      <point x="129" y="749"/>
      <point x="99" y="802"/>
      <point x="53" y="802" type="curve" smooth="yes"/>
      <point x="8" y="802"/>
      <point x="-17" y="770"/>
      <point x="-20" y="717" type="curve"/>
      <point x="10" y="708" type="line"/>
    </contour>
  </outline>
</glyph>
<glyph name="itilde" format="1">
  <advance width="225"/>
  <unicode hex="0129"/>
  <note>
	itilde
  </note>
  <outline>
    <contour>
      <point x="15" y="558"/>
      <point x="28" y="579"/>
      <point x="57" y="579" type="curve" smooth="yes"/>
      <point x="93" y="579"/>
      <point x="123" y="525"/>
      <point x="172" y="525" type="curve" smooth="yes"/>
      <point x="217" y="525"/>
      <point x="242" y="558"/>
      <point x="245" y="610" type="curve"/>
      <point x="214" y="619" type="line"/>
      <point x="210" y="587"/>
      <point x="197" y="566"/>
      <point x="168" y="566" type="curve" smooth="yes"/>
      <point x="130" y="566"/>
      <point x="100" y="619"/>
      <point x="53" y="619" type="curve" smooth="yes"/>
      <point x="8" y="619"/>
      <point x="-17" y="587"/>
      <point x="-20" y="534" type="curve"/>
      <point x="11" y="525" type="line"/>
    </contour>
    <contour>
      <point x="134" y="0" type="line"/>
      <point x="134" y="465" type="line"/>
      <point x="90" y="465" type="line"/>
      <point x="90" y="0" type="line"/>
    </contour>
  </outline>
</glyph>
<glyph name="Imacron" format="1">
  <advance width="225"/>
  <unicode hex="012A"/>
  <note>
	Imacron
  </note>
  <outline>
    <contour>
      <point x="136" y="0" type="line"/>
      <point x="136" y="612" type="line"/>
      <point x="89" y="612" type="line"/>
      <point x="89" y="0" type="line"/>
    </contour>
    <contour>
      <point x="248" y="714" type="line"/>
      <point x="248" y="755" type="line"/>
      <point x="-22" y="755" type="line"/>
      <point x="-22" y="714" type="line"/>
    </contour>
  </outline>
</glyph>
<glyph name="Ibreve" format="1">
  <advance width="225"/>
  <unicode hex="012C"/>
  <note>
	Ibreve
  </note>
  <outline>
    <contour>
      <point x="136" y="0" type="line"/>
      <point x="136" y="612" type="line"/>
      <point x="89" y="612" type="line"/>
      <point x="89" y="0" type="line"/>
    </contour>
    <contour>
      <point x="190" y="709"/>
      <point x="224" y="753"/>
      <point x="235" y="810" type="curve"/>
      <point x="189" y="817" type="line"/>
      <point x="182" y="776"/>
      <point x="167" y="748"/>
      <point x="113" y="748" type="curve" smooth="yes"/>
      <point x="59" y="748"/>
      <point x="43" y="776"/>
      <point x="36" y="817" type="curve"/>
      <point x="-9" y="810" type="line"/>
      <point x="1" y="753"/>
      <point x="36" y="709"/>
      <point x="113" y="709" type="curve" smooth="yes"/>
    </contour>
  </outline>
</glyph>
<glyph name="ibreve" format="1">
  <advance width="225"/>
  <unicode hex="012D"/>
  <note>
	ibreve
  </note>
  <outline>
    <contour>
      <point x="190" y="561"/>
      <point x="224" y="605"/>
      <point x="235" y="661" type="curve"/>
      <point x="190" y="669" type="line"/>
      <point x="182" y="628"/>
      <point x="167" y="600"/>
      <point x="113" y="600" type="curve" smooth="yes"/>
      <point x="59" y="600"/>
      <point x="44" y="628"/>
      <point x="36" y="669" type="curve"/>
      <point x="-9" y="661" type="line"/>
      <point x="2" y="605"/>
      <point x="36" y="561"/>
      <point x="113" y="561" type="curve" smooth="yes"/>
    </contour>
    <contour>
      <point x="134" y="0" type="line"/>
      <point x="134" y="465" type="line"/>
      <point x="90" y="465" type="line"/>
      <point x="90" y="0" type="line"/>
    </contour>
  </outline>
</glyph>
<glyph name="Iogonek" format="1">
  <advance width="225"/>
  <unicode hex="012E"/>
  <note>
	Iogonek
  </note>
  <outline>
    <contour>
      <point x="136" y="-4" type="line"/>
      <point x="136" y="612" type="line"/>
      <point x="89" y="612" type="line"/>
      <point x="89" y="-4" type="line"/>
    </contour>
    <contour>
      <point x="139" y="-166"/>
      <point x="156" y="-162"/>
      <point x="171" y="-155" type="curve"/>
      <point x="164" y="-123" type="line"/>
      <point x="149" y="-126"/>
      <point x="136" y="-128"/>
      <point x="123" y="-128" type="curve" smooth="yes"/>
      <point x="108" y="-128"/>
      <point x="97" y="-127"/>
      <point x="83" y="-124" type="curve"/>
      <point x="78" y="-113"/>
      <point x="75" y="-100"/>
      <point x="75" y="-88" type="curve" smooth="yes"/>
      <point x="75" y="-48"/>
      <point x="92" y="-23"/>
      <point x="136" y="-4" type="curve"/>
      <point x="104" y="6" type="line"/>
      <point x="62" y="-17"/>
      <point x="33" y="-44"/>
      <point x="33" y="-89" type="curve" smooth="yes"/>
      <point x="33" y="-136"/>
      <point x="61" y="-166"/>
      <point x="115" y="-166" type="curve" smooth="yes"/>
    </contour>
  </outline>
</glyph>
<glyph name="iogonek" format="1">
  <advance width="214"/>
  <unicode hex="012F"/>
  <note>
	iogonek
  </note>
  <outline>
    <contour>
      <point x="132" y="-166"/>
      <point x="149" y="-162"/>
      <point x="164" y="-155" type="curve"/>
      <point x="157" y="-123" type="line"/>
      <point x="142" y="-126"/>
      <point x="129" y="-128"/>
      <point x="116" y="-128" type="curve" smooth="yes"/>
      <point x="101" y="-128"/>
      <point x="90" y="-127"/>
      <point x="76" y="-124" type="curve"/>
      <point x="71" y="-113"/>
      <point x="68" y="-100"/>
      <point x="68" y="-88" type="curve" smooth="yes"/>
      <point x="68" y="-48"/>
      <point x="83" y="-25"/>
      <point x="129" y="-5" type="curve"/>
      <point x="103" y="3" type="line"/>
      <point x="57" y="-15"/>
      <point x="26" y="-44"/>
      <point x="26" y="-89" type="curve" smooth="yes"/>
      <point x="26" y="-136"/>
      <point x="54" y="-166"/>
      <point x="108" y="-166" type="curve" smooth="yes"/>
    </contour>
    <contour>
      <point x="129" y="-5" type="line"/>
      <point x="129" y="465" type="line"/>
      <point x="85" y="465" type="line"/>
      <point x="85" y="-5" type="line"/>
    </contour>
    <contour>
      <point x="130" y="554" type="line"/>
      <point x="130" y="643" type="line"/>
      <point x="84" y="643" type="line"/>
      <point x="84" y="554" type="line"/>
    </contour>
  </outline>
</glyph>
<glyph name="Idotaccent" format="1">
  <advance width="225"/>
  <unicode hex="0130"/>
  <note>
	Idotaccent
  </note>
  <outline>
    <contour>
      <point x="136" y="0" type="line"/>
      <point x="136" y="612" type="line"/>
      <point x="89" y="612" type="line"/>
      <point x="89" y="0" type="line"/>
    </contour>
    <contour>
      <point x="140" y="703"/>
      <point x="155" y="718"/>
      <point x="155" y="743" type="curve" smooth="yes"/>
      <point x="155" y="771"/>
      <point x="140" y="785"/>
      <point x="113" y="785" type="curve" smooth="yes"/>
      <point x="85" y="785"/>
      <point x="69" y="771"/>
      <point x="69" y="743" type="curve" smooth="yes"/>
      <point x="69" y="718"/>
      <point x="85" y="703"/>
      <point x="113" y="703" type="curve" smooth="yes"/>
    </contour>
  </outline>
</glyph>
<glyph name="ij" format="1">
  <advance width="440"/>
  <unicode hex="0133"/>
  <note>
	ij
  </note>
  <outline>
    <contour>
      <point x="316" y="-187"/>
      <point x="356" y="-142"/>
      <point x="356" y="-65" type="curve" smooth="yes"/>
      <point x="356" y="465" type="line"/>
      <point x="312" y="465" type="line"/>
      <point x="312" y="-61" type="line" smooth="yes"/>
      <point x="312" y="-91"/>
      <point x="311" y="-113"/>
      <point x="303" y="-136" type="curve"/>
      <point x="285" y="-142"/>
      <point x="268" y="-145"/>
      <point x="242" y="-145" type="curve" smooth="yes"/>
      <point x="215" y="-145"/>
      <point x="197" y="-143"/>
      <point x="170" y="-136" type="curve"/>
      <point x="160" y="-175" type="line"/>
      <point x="185" y="-183"/>
      <point x="214" y="-187"/>
      <point x="241" y="-187" type="curve" smooth="yes"/>
    </contour>
    <contour>
      <point x="129" y="0" type="line"/>
      <point x="129" y="465" type="line"/>
      <point x="85" y="465" type="line"/>
      <point x="85" y="0" type="line"/>
    </contour>
    <contour>
      <point x="130" y="554" type="line"/>
      <point x="130" y="643" type="line"/>
      <point x="84" y="643" type="line"/>
      <point x="84" y="554" type="line"/>
    </contour>
    <contour>
      <point x="358" y="554" type="line"/>
      <point x="358" y="643" type="line"/>
      <point x="312" y="643" type="line"/>
      <point x="312" y="554" type="line"/>
    </contour>
  </outline>
</glyph>
<glyph name="jcircumflex" format="1">
  <advance width="316"/>
  <unicode hex="0135"/>
  <note>
	jcircumflex
  </note>
  <outline>
    <contour>
      <point x="187" y="-187"/>
      <point x="227" y="-142"/>
      <point x="227" y="-65" type="curve" smooth="yes"/>
      <point x="227" y="465" type="line"/>
      <point x="183" y="465" type="line"/>
      <point x="183" y="-61" type="line" smooth="yes"/>
      <point x="183" y="-91"/>
      <point x="182" y="-113"/>
      <point x="174" y="-136" type="curve"/>
      <point x="156" y="-142"/>
      <point x="139" y="-145"/>
      <point x="113" y="-145" type="curve" smooth="yes"/>
      <point x="86" y="-145"/>
      <point x="68" y="-143"/>
      <point x="41" y="-136" type="curve"/>
      <point x="31" y="-175" type="line"/>
      <point x="56" y="-183"/>
      <point x="85" y="-187"/>
      <point x="112" y="-187" type="curve" smooth="yes"/>
    </contour>
    <contour>
      <point x="202" y="657" type="line"/>
      <point x="207" y="657" type="line"/>
      <point x="300" y="559" type="line"/>
      <point x="330" y="566" type="line"/>
      <point x="229" y="697" type="line"/>
      <point x="180" y="697" type="line"/>
      <point x="78" y="566" type="line"/>
      <point x="108" y="559" type="line"/>
    </contour>
  </outline>
</glyph>
<glyph name="Kcommaaccent" format="1">
  <advance width="581"/>
  <unicode hex="0136"/>
  <note>
	Kcommaaccent
  </note>
  <outline>
    <contour>
      <point x="522" y="-6"/>
      <point x="534" y="-4"/>
      <point x="548" y="1" type="curve"/>
      <point x="548" y="28" type="line"/>
      <point x="499" y="36" type="line"/>
      <point x="409" y="234" type="line" smooth="yes"/>
      <point x="388" y="278"/>
      <point x="370" y="299"/>
      <point x="324" y="317" type="curve"/>
      <point x="324" y="323" type="line"/>
      <point x="373" y="348"/>
      <point x="384" y="371"/>
      <point x="406" y="412" type="curve" smooth="yes"/>
      <point x="439" y="474"/>
      <point x="466" y="531"/>
      <point x="494" y="596" type="curve"/>
      <point x="450" y="613" type="line"/>
      <point x="422" y="548"/>
      <point x="395" y="488"/>
      <point x="363" y="426" type="curve" smooth="yes"/>
      <point x="340" y="381"/>
      <point x="315" y="340"/>
      <point x="240" y="340" type="curve" smooth="yes"/>
      <point x="132" y="340" type="line"/>
      <point x="132" y="612" type="line"/>
      <point x="86" y="612" type="line"/>
      <point x="86" y="0" type="line"/>
      <point x="132" y="0" type="line"/>
      <point x="132" y="297" type="line"/>
      <point x="245" y="297" type="line" smooth="yes"/>
      <point x="317" y="297"/>
      <point x="344" y="264"/>
      <point x="369" y="209" type="curve" smooth="yes"/>
      <point x="450" y="29" type="line" smooth="yes"/>
      <point x="461" y="5"/>
      <point x="476" y="-6"/>
      <point x="505" y="-6" type="curve" smooth="yes"/>
    </contour>
    <contour>
      <point x="314" y="-198"/>
      <point x="330" y="-156"/>
      <point x="330" y="-110" type="curve" smooth="yes"/>
      <point x="330" y="-70"/>
      <point x="312" y="-48"/>
      <point x="274" y="-48" type="curve" smooth="yes"/>
      <point x="260" y="-48"/>
      <point x="247" y="-51"/>
      <point x="236" y="-55" type="curve"/>
      <point x="236" y="-88" type="line"/>
      <point x="291" y="-88" type="line"/>
      <point x="291" y="-148"/>
      <point x="278" y="-187"/>
      <point x="255" y="-228" type="curve"/>
      <point x="285" y="-235" type="line"/>
    </contour>
  </outline>
</glyph>
<glyph name="Lacute" format="1">
  <advance width="455"/>
  <unicode hex="0139"/>
  <note>
	Lacute
  </note>
  <outline>
    <contour>
      <point x="421" y="0" type="line"/>
      <point x="421" y="44" type="line"/>
      <point x="133" y="44" type="line"/>
      <point x="133" y="612" type="line"/>
      <point x="86" y="612" type="line"/>
      <point x="86" y="0" type="line"/>
    </contour>
    <contour>
      <point x="234" y="847" type="line"/>
      <point x="172" y="853" type="line"/>
      <point x="88" y="713" type="line"/>
      <point x="120" y="707" type="line"/>
    </contour>
  </outline>
</glyph>
<glyph name="lcaron" format="1">
  <advance width="300"/>
  <unicode hex="013E"/>
  <note>
	lcaron
  </note>
  <outline>
    <contour>
      <point x="180" y="-1"/>
      <point x="210" y="15"/>
      <point x="234" y="38" type="curve"/>
      <point x="214" y="63" type="line"/>
      <point x="148" y="32" type="line"/>
      <point x="133" y="32" type="line"/>
      <point x="125" y="47"/>
      <point x="123" y="55"/>
      <point x="123" y="80" type="curve" smooth="yes"/>
      <point x="123" y="667" type="line"/>
      <point x="79" y="667" type="line"/>
      <point x="79" y="69" type="line" smooth="yes"/>
      <point x="79" y="41"/>
      <point x="114" y="7"/>
      <point x="142" y="-7" type="curve"/>
    </contour>
    <contour>
      <point x="266" y="511"/>
      <point x="282" y="554"/>
      <point x="282" y="599" type="curve" smooth="yes"/>
      <point x="282" y="640"/>
      <point x="264" y="661"/>
      <point x="226" y="661" type="curve" smooth="yes"/>
      <point x="212" y="661"/>
      <point x="199" y="659"/>
      <point x="188" y="655" type="curve"/>
      <point x="188" y="622" type="line"/>
      <point x="243" y="622" type="line"/>
      <point x="243" y="562"/>
      <point x="230" y="522"/>
      <point x="207" y="481" type="curve"/>
      <point x="237" y="474" type="line"/>
    </contour>
  </outline>
</glyph>
<glyph name="ldot" format="1">
  <advance width="291"/>
  <unicode hex="0140"/>
  <note>
	ldot
  </note>
  <outline>
    <contour>
      <point x="180" y="-1"/>
      <point x="210" y="15"/>
      <point x="234" y="38" type="curve"/>
      <point x="214" y="63" type="line"/>
      <point x="148" y="32" type="line"/>
      <point x="133" y="32" type="line"/>
      <point x="125" y="47"/>
      <point x="123" y="55"/>
      <point x="123" y="80" type="curve" smooth="yes"/>
      <point x="123" y="667" type="line"/>
      <point x="79" y="667" type="line"/>
      <point x="79" y="69" type="line" smooth="yes"/>
      <point x="79" y="41"/>
      <point x="114" y="7"/>
      <point x="142" y="-7" type="curve"/>
    </contour>
    <contour>
      <point x="275" y="252"/>
      <point x="292" y="267"/>
      <point x="292" y="292" type="curve" smooth="yes"/>
      <point x="292" y="319"/>
      <point x="275" y="335"/>
      <point x="249" y="335" type="curve" smooth="yes"/>
      <point x="224" y="335"/>
      <point x="206" y="319"/>
      <point x="206" y="292" type="curve" smooth="yes"/>
      <point x="206" y="267"/>
      <point x="223" y="252"/>
      <point x="249" y="252" type="curve" smooth="yes"/>
    </contour>
  </outline>
</glyph>
<glyph name="Lslash" format="1">
  <advance width="470"/>
  <unicode hex="0141"/>
  <note>
	Lslash
  </note>
  <outline>
    <contour>
      <point x="437" y="0" type="line"/>
      <point x="437" y="44" type="line"/>
      <point x="163" y="44" type="line"/>
      <point x="163" y="287" type="line"/>
      <point x="291" y="328" type="line"/>
      <point x="279" y="366" type="line"/>
      <point x="163" y="328" type="line"/>
      <point x="163" y="612" type="line"/>
      <point x="116" y="612" type="line"/>
      <point x="116" y="312" type="line"/>
      <point x="11" y="278" type="line"/>
      <point x="23" y="241" type="line"/>
      <point x="116" y="271" type="line"/>
      <point x="116" y="0" type="line"/>
    </contour>
  </outline>
</glyph>
<glyph name="lslash" format="1">
  <advance width="283"/>
  <unicode hex="0142"/>
  <note>
	lslash
  </note>
  <outline>
    <contour>
      <point x="195" y="0"/>
      <point x="226" y="15"/>
      <point x="250" y="38" type="curve"/>
      <point x="230" y="63" type="line"/>
      <point x="164" y="33" type="line"/>
      <point x="149" y="33" type="line"/>
      <point x="141" y="47"/>
      <point x="139" y="55"/>
      <point x="139" y="81" type="curve" smooth="yes"/>
      <point x="139" y="319" type="line"/>
      <point x="258" y="358" type="line"/>
      <point x="246" y="395" type="line"/>
      <point x="139" y="360" type="line"/>
      <point x="139" y="660" type="line"/>
      <point x="95" y="660" type="line"/>
      <point x="95" y="346" type="line"/>
      <point x="-22" y="308" type="line"/>
      <point x="-10" y="270" type="line"/>
      <point x="95" y="304" type="line"/>
      <point x="95" y="70" type="line" smooth="yes"/>
      <point x="95" y="41"/>
      <point x="130" y="7"/>
      <point x="158" y="-6" type="curve"/>
    </contour>
  </outline>
</glyph>
<glyph name="Nacute" format="1">
  <advance width="610"/>
  <unicode hex="0143"/>
  <note>
	Nacute
  </note>
  <outline>
    <contour>
      <point x="133" y="0" type="line"/>
      <point x="133" y="324" type="line"/>
      <point x="125" y="538" type="line"/>
      <point x="132" y="540" type="line"/>
      <point x="471" y="0" type="line"/>
      <point x="524" y="0" type="line"/>
      <point x="524" y="612" type="line"/>
      <point x="477" y="612" type="line"/>
      <point x="477" y="288" type="line"/>
      <point x="484" y="74" type="line"/>
      <point x="478" y="72" type="line"/>
      <point x="139" y="612" type="line"/>
      <point x="86" y="612" type="line"/>
      <point x="86" y="0" type="line"/>
    </contour>
    <contour>
      <point x="428" y="847" type="line"/>
      <point x="366" y="854" type="line"/>
      <point x="282" y="713" type="line"/>
      <point x="314" y="708" type="line"/>
    </contour>
  </outline>
</glyph>
<glyph name="nacute" format="1">
  <advance width="510"/>
  <unicode hex="0144"/>
  <note>
	nacute
  </note>
  <outline>
    <contour>
      <point x="129" y="0" type="line"/>
      <point x="129" y="360" type="line"/>
      <point x="170" y="402"/>
      <point x="236" y="433"/>
      <point x="303" y="433" type="curve" smooth="yes"/>
      <point x="336" y="433"/>
      <point x="358" y="429"/>
      <point x="384" y="420" type="curve"/>
      <point x="384" y="0" type="line"/>
      <point x="429" y="0" type="line"/>
      <point x="429" y="383" type="line" smooth="yes"/>
      <point x="429" y="448"/>
      <point x="388" y="474"/>
      <point x="312" y="474" type="curve" smooth="yes"/>
      <point x="243" y="474"/>
      <point x="184" y="446"/>
      <point x="131" y="397" type="curve"/>
      <point x="124" y="397" type="line"/>
      <point x="121" y="466" type="line"/>
      <point x="84" y="466" type="line"/>
      <point x="84" y="0" type="line"/>
    </contour>
    <contour>
      <point x="390" y="699" type="line"/>
      <point x="328" y="706" type="line"/>
      <point x="244" y="565" type="line"/>
      <point x="276" y="560" type="line"/>
    </contour>
  </outline>
</glyph>
<glyph name="ncommaaccent" format="1">
  <advance width="510"/>
  <unicode hex="0146"/>
  <note>
	ncommaaccent
  </note>
  <outline>
    <contour>
      <point x="129" y="0" type="line"/>
      <point x="129" y="360" type="line"/>
      <point x="170" y="402"/>
      <point x="236" y="433"/>
      <point x="303" y="433" type="curve" smooth="yes"/>
      <point x="336" y="433"/>
      <point x="358" y="429"/>
      <point x="384" y="420" type="curve"/>
      <point x="384" y="0" type="line"/>
      <point x="429" y="0" type="line"/>
      <point x="429" y="383" type="line" smooth="yes"/>
      <point x="429" y="448"/>
      <point x="388" y="474"/>
      <point x="312" y="474" type="curve" smooth="yes"/>
      <point x="243" y="474"/>
      <point x="184" y="446"/>
      <point x="131" y="397" type="curve"/>
      <point x="124" y="397" type="line"/>
      <point x="121" y="466" type="line"/>
      <point x="84" y="466" type="line"/>
      <point x="84" y="0" type="line"/>
    </contour>
    <contour>
      <point x="305" y="-198"/>
      <point x="321" y="-156"/>
      <point x="321" y="-110" type="curve" smooth="yes"/>
      <point x="321" y="-70"/>
      <point x="303" y="-48"/>
      <point x="265" y="-48" type="curve" smooth="yes"/>
      <point x="251" y="-48"/>
      <point x="238" y="-51"/>
      <point x="227" y="-55" type="curve"/>
      <point x="227" y="-88" type="line"/>
      <point x="282" y="-88" type="line"/>
      <point x="282" y="-148"/>
      <point x="269" y="-187"/>
      <point x="246" y="-228" type="curve"/>
      <point x="276" y="-235" type="line"/>
    </contour>
  </outline>
</glyph>
<glyph name="napostrophe" format="1">
  <advance width="597"/>
  <unicode hex="0149"/>
  <note>
	napostrophe
  </note>
  <outline>
    <contour>
      <point x="217" y="0" type="line"/>
      <point x="217" y="360" type="line"/>
      <point x="258" y="402"/>
      <point x="324" y="433"/>
      <point x="391" y="433" type="curve" smooth="yes"/>
      <point x="424" y="433"/>
      <point x="446" y="429"/>
      <point x="472" y="420" type="curve"/>
      <point x="472" y="0" type="line"/>
      <point x="517" y="0" type="line"/>
      <point x="517" y="383" type="line" smooth="yes"/>
      <point x="517" y="448"/>
      <point x="476" y="474"/>
      <point x="400" y="474" type="curve" smooth="yes"/>
      <point x="331" y="474"/>
      <point x="272" y="446"/>
      <point x="219" y="397" type="curve"/>
      <point x="212" y="397" type="line"/>
      <point x="209" y="466" type="line"/>
      <point x="172" y="466" type="line"/>
      <point x="172" y="0" type="line"/>
    </contour>
    <contour>
      <point x="92" y="343"/>
      <point x="108" y="385"/>
      <point x="108" y="430" type="curve" smooth="yes"/>
      <point x="108" y="471"/>
      <point x="90" y="492"/>
      <point x="52" y="492" type="curve" smooth="yes"/>
      <point x="38" y="492"/>
      <point x="25" y="490"/>
      <point x="14" y="486" type="curve"/>
      <point x="14" y="453" type="line"/>
      <point x="69" y="453" type="line"/>
      <point x="69" y="393"/>
      <point x="56" y="354"/>
      <point x="33" y="312" type="curve"/>
      <point x="63" y="306" type="line"/>
    </contour>
  </outline>
</glyph>
<glyph name="Eng" format="1">
  <advance width="610"/>
  <unicode hex="014A"/>
  <note>
	Eng
  </note>
  <outline>
    <contour>
      <point x="486" y="-175"/>
      <point x="524" y="-126"/>
      <point x="524" y="-33" type="curve" smooth="yes"/>
      <point x="524" y="612" type="line"/>
      <point x="477" y="612" type="line"/>
      <point x="477" y="288" type="line"/>
      <point x="484" y="74" type="line"/>
      <point x="478" y="72" type="line"/>
      <point x="139" y="612" type="line"/>
      <point x="86" y="612" type="line"/>
      <point x="86" y="0" type="line"/>
      <point x="133" y="0" type="line"/>
      <point x="133" y="324" type="line"/>
      <point x="125" y="538" type="line"/>
      <point x="132" y="540" type="line"/>
      <point x="475" y="0" type="line"/>
      <point x="475" y="-56" type="line" smooth="yes"/>
      <point x="475" y="-81"/>
      <point x="473" y="-100"/>
      <point x="467" y="-118" type="curve"/>
      <point x="436" y="-140"/>
      <point x="397" y="-156"/>
      <point x="352" y="-168" type="curve"/>
      <point x="374" y="-217" type="line"/>
    </contour>
  </outline>
</glyph>
<glyph name="eng" format="1">
  <advance width="510"/>
  <unicode hex="014B"/>
  <note>
	eng
  </note>
  <outline>
    <contour>
      <point x="392" y="-176"/>
      <point x="429" y="-126"/>
      <point x="429" y="-36" type="curve" smooth="yes"/>
      <point x="429" y="383" type="line" smooth="yes"/>
      <point x="429" y="448"/>
      <point x="388" y="474"/>
      <point x="312" y="474" type="curve" smooth="yes"/>
      <point x="243" y="474"/>
      <point x="184" y="446"/>
      <point x="131" y="397" type="curve"/>
      <point x="124" y="397" type="line"/>
      <point x="121" y="466" type="line"/>
      <point x="84" y="466" type="line"/>
      <point x="84" y="0" type="line"/>
      <point x="129" y="0" type="line"/>
      <point x="129" y="360" type="line"/>
      <point x="170" y="402"/>
      <point x="236" y="433"/>
      <point x="303" y="433" type="curve" smooth="yes"/>
      <point x="336" y="433"/>
      <point x="358" y="429"/>
      <point x="384" y="420" type="curve"/>
      <point x="384" y="-51" type="line" smooth="yes"/>
      <point x="384" y="-78"/>
      <point x="382" y="-100"/>
      <point x="376" y="-120" type="curve"/>
      <point x="345" y="-142"/>
      <point x="306" y="-158"/>
      <point x="261" y="-171" type="curve"/>
      <point x="284" y="-218" type="line"/>
    </contour>
  </outline>
</glyph>
<glyph name="OE" format="1">
  <advance width="883"/>
  <unicode hex="0152"/>
  <note>
	OE
  </note>
  <outline>
    <contour>
      <point x="365" y="-10"/>
      <point x="421" y="3"/>
      <point x="461" y="27" type="curve"/>
      <point x="467" y="27" type="line"/>
      <point x="496" y="1"/>
      <point x="561" y="-10"/>
      <point x="645" y="-10" type="curve" smooth="yes"/>
      <point x="714" y="-10"/>
      <point x="763" y="-5"/>
      <point x="812" y="7" type="curve"/>
      <point x="801" y="49" type="line"/>
      <point x="754" y="39"/>
      <point x="705" y="34"/>
      <point x="649" y="34" type="curve" smooth="yes"/>
      <point x="588" y="34"/>
      <point x="544" y="39"/>
      <point x="492" y="51" type="curve"/>
      <point x="492" y="286" type="line"/>
      <point x="771" y="286" type="line"/>
      <point x="771" y="330" type="line"/>
      <point x="492" y="330" type="line"/>
      <point x="492" y="568" type="line"/>
      <point x="800" y="568" type="line"/>
      <point x="800" y="612" type="line"/>
      <point x="446" y="612" type="line"/>
      <point x="410" y="619"/>
      <point x="372" y="622"/>
      <point x="322" y="622" type="curve" smooth="yes"/>
      <point x="130" y="622"/>
      <point x="65" y="498"/>
      <point x="65" y="297" type="curve" smooth="yes"/>
      <point x="65" y="97"/>
      <point x="138" y="-10"/>
      <point x="297" y="-10" type="curve" smooth="yes"/>
    </contour>
    <contour>
      <point x="162" y="35"/>
      <point x="112" y="125"/>
      <point x="112" y="308" type="curve" smooth="yes"/>
      <point x="112" y="409"/>
      <point x="133" y="490"/>
      <point x="171" y="549" type="curve"/>
      <point x="203" y="567"/>
      <point x="261" y="577"/>
      <point x="312" y="577" type="curve" smooth="yes"/>
      <point x="374" y="577"/>
      <point x="405" y="575"/>
      <point x="445" y="567" type="curve"/>
      <point x="445" y="63" type="line"/>
      <point x="411" y="45"/>
      <point x="358" y="35"/>
      <point x="312" y="35" type="curve" smooth="yes"/>
    </contour>
  </outline>
</glyph>
<glyph name="racute" format="1">
  <advance width="358"/>
  <unicode hex="0155"/>
  <note>
	racute
  </note>
  <outline>
    <contour>
      <point x="129" y="0" type="line"/>
      <point x="129" y="329" type="line"/>
      <point x="152" y="384"/>
      <point x="202" y="418"/>
      <point x="272" y="418" type="curve" smooth="yes"/>
      <point x="311" y="418" type="line"/>
      <point x="317" y="450" type="line"/>
      <point x="311" y="458"/>
      <point x="296" y="470"/>
      <point x="286" y="470" type="curve" smooth="yes"/>
      <point x="216" y="470"/>
      <point x="161" y="431"/>
      <point x="130" y="377" type="curve"/>
      <point x="123" y="377" type="line"/>
      <point x="119" y="464" type="line"/>
      <point x="84" y="464" type="line"/>
      <point x="84" y="0" type="line"/>
    </contour>
    <contour>
      <point x="305" y="700" type="line"/>
      <point x="243" y="706" type="line"/>
      <point x="159" y="566" type="line"/>
      <point x="191" y="560" type="line"/>
    </contour>
  </outline>
</glyph>
<glyph name="Tcedilla" format="1">
  <advance width="520"/>
  <unicode hex="0162"/>
  <note>
	Tcedilla
  </note>
  <outline>
    <contour>
      <point x="304" y="-217"/>
      <point x="339" y="-190"/>
      <point x="339" y="-132" type="curve" smooth="yes"/>
      <point x="339" y="-86"/>
      <point x="317" y="-60"/>
      <point x="266" y="-60" type="curve" smooth="yes"/>
      <point x="247" y="-60"/>
      <point x="231" y="-63"/>
      <point x="217" y="-68" type="curve"/>
      <point x="269" y="0" type="line"/>
      <point x="284" y="0" type="line"/>
      <point x="284" y="567" type="line"/>
      <point x="482" y="567" type="line"/>
      <point x="482" y="612" type="line"/>
      <point x="38" y="612" type="line"/>
      <point x="38" y="567" type="line"/>
      <point x="237" y="567" type="line"/>
      <point x="237" y="4" type="line"/>
      <point x="175" y="-70" type="line"/>
      <point x="206" y="-101" type="line"/>
      <point x="220" y="-96"/>
      <point x="234" y="-95"/>
      <point x="252" y="-95" type="curve" smooth="yes"/>
      <point x="285" y="-95"/>
      <point x="298" y="-108"/>
      <point x="298" y="-137" type="curve" smooth="yes"/>
      <point x="298" y="-151"/>
      <point x="296" y="-164"/>
      <point x="292" y="-174" type="curve"/>
      <point x="277" y="-179"/>
      <point x="263" y="-180"/>
      <point x="240" y="-180" type="curve" smooth="yes"/>
      <point x="216" y="-180"/>
      <point x="191" y="-176"/>
      <point x="169" y="-169" type="curve"/>
      <point x="157" y="-201" type="line"/>
      <point x="187" y="-214"/>
      <point x="212" y="-217"/>
      <point x="238" y="-217" type="curve" smooth="yes"/>
    </contour>
  </outline>
</glyph>
<glyph name="tcedilla" format="1">
  <advance width="356"/>
  <unicode hex="0163"/>
  <note>
	tcedilla
  </note>
  <outline>
    <contour>
      <point x="249" y="-216"/>
      <point x="285" y="-190"/>
      <point x="285" y="-132" type="curve" smooth="yes"/>
      <point x="285" y="-86"/>
      <point x="263" y="-59"/>
      <point x="212" y="-59" type="curve" smooth="yes"/>
      <point x="193" y="-59"/>
      <point x="176" y="-62"/>
      <point x="163" y="-68" type="curve"/>
      <point x="210" y="-4" type="line"/>
      <point x="218" y="-5"/>
      <point x="226" y="-5"/>
      <point x="234" y="-5" type="curve" smooth="yes"/>
      <point x="265" y="-5"/>
      <point x="301" y="5"/>
      <point x="320" y="15" type="curve"/>
      <point x="307" y="53" type="line"/>
      <point x="286" y="43"/>
      <point x="254" y="36"/>
      <point x="227" y="36" type="curve" smooth="yes"/>
      <point x="206" y="36"/>
      <point x="187" y="39"/>
      <point x="166" y="45" type="curve"/>
      <point x="159" y="63"/>
      <point x="157" y="73"/>
      <point x="157" y="101" type="curve" smooth="yes"/>
      <point x="157" y="420" type="line"/>
      <point x="306" y="420" type="line"/>
      <point x="311" y="459" type="line"/>
      <point x="157" y="459" type="line"/>
      <point x="157" y="592" type="line"/>
      <point x="113" y="592" type="line"/>
      <point x="113" y="459" type="line"/>
      <point x="39" y="459" type="line"/>
      <point x="33" y="420" type="line"/>
      <point x="113" y="420" type="line"/>
      <point x="113" y="89" type="line" smooth="yes"/>
      <point x="113" y="29"/>
      <point x="151" y="16"/>
      <point x="180" y="1" type="curve"/>
      <point x="120" y="-69" type="line"/>
      <point x="152" y="-100" type="line"/>
      <point x="166" y="-95"/>
      <point x="179" y="-94"/>
      <point x="197" y="-94" type="curve" smooth="yes"/>
      <point x="231" y="-94"/>
      <point x="244" y="-108"/>
      <point x="244" y="-136" type="curve" smooth="yes"/>
      <point x="244" y="-150"/>
      <point x="241" y="-164"/>
      <point x="238" y="-173" type="curve"/>
      <point x="223" y="-178"/>
      <point x="209" y="-180"/>
      <point x="186" y="-180" type="curve" smooth="yes"/>
      <point x="161" y="-180"/>
      <point x="136" y="-176"/>
      <point x="115" y="-168" type="curve"/>
      <point x="103" y="-200" type="line"/>
      <point x="133" y="-213"/>
      <point x="157" y="-216"/>
      <point x="183" y="-216" type="curve" smooth="yes"/>
    </contour>
  </outline>
</glyph>
<glyph name="Tcaron" format="1">
  <advance width="520"/>
  <unicode hex="0164"/>
  <note>
	Tcaron
  </note>
  <outline>
    <contour>
      <point x="284" y="0" type="line"/>
      <point x="284" y="567" type="line"/>
      <point x="482" y="567" type="line"/>
      <point x="482" y="612" type="line"/>
      <point x="38" y="612" type="line"/>
      <point x="38" y="567" type="line"/>
      <point x="237" y="567" type="line"/>
      <point x="237" y="0" type="line"/>
    </contour>
    <contour>
      <point x="284" y="714" type="line"/>
      <point x="385" y="845" type="line"/>
      <point x="355" y="852" type="line"/>
      <point x="262" y="754" type="line"/>
      <point x="257" y="754" type="line"/>
      <point x="163" y="852" type="line"/>
      <point x="133" y="845" type="line"/>
      <point x="235" y="714" type="line"/>
    </contour>
  </outline>
</glyph>
<glyph name="Tbar" format="1">
  <advance width="520"/>
  <unicode hex="0166"/>
  <note>
	Tbar
  </note>
  <outline>
    <contour>
      <point x="284" y="0" type="line"/>
      <point x="284" y="286" type="line"/>
      <point x="400" y="286" type="line"/>
      <point x="400" y="327" type="line"/>
      <point x="284" y="327" type="line"/>
      <point x="284" y="567" type="line"/>
      <point x="482" y="567" type="line"/>
      <point x="482" y="612" type="line"/>
      <point x="38" y="612" type="line"/>
      <point x="38" y="567" type="line"/>
      <point x="237" y="567" type="line"/>
      <point x="237" y="327" type="line"/>
      <point x="119" y="327" type="line"/>
      <point x="119" y="286" type="line"/>
      <point x="237" y="286" type="line"/>
      <point x="237" y="0" type="line"/>
    </contour>
  </outline>
</glyph>
<glyph name="Umacron" format="1">
  <advance width="592"/>
  <unicode hex="016A"/>
  <note>
	Umacron
  </note>
  <outline>
    <contour>
      <point x="420" y="-9"/>
      <point x="508" y="23"/>
      <point x="508" y="86" type="curve" smooth="yes"/>
      <point x="508" y="612" type="line"/>
      <point x="461" y="612" type="line"/>
      <point x="461" y="63" type="line"/>
      <point x="423" y="47"/>
      <point x="371" y="35"/>
      <point x="299" y="35" type="curve" smooth="yes"/>
      <point x="181" y="35"/>
      <point x="129" y="66"/>
      <point x="129" y="180" type="curve" smooth="yes"/>
      <point x="129" y="612" type="line"/>
      <point x="82" y="612" type="line"/>
      <point x="82" y="168" type="line" smooth="yes"/>
      <point x="82" y="47"/>
      <point x="152" y="-9"/>
      <point x="292" y="-9" type="curve" smooth="yes"/>
    </contour>
    <contour>
      <point x="430" y="714" type="line"/>
      <point x="430" y="755" type="line"/>
      <point x="160" y="755" type="line"/>
      <point x="160" y="714" type="line"/>
    </contour>
  </outline>
</glyph>
<glyph name="umacron" format="1">
  <advance width="504"/>
  <unicode hex="016B"/>
  <note>
	umacron
  </note>
  <outline>
    <contour>
      <point x="271" y="-9"/>
      <point x="322" y="22"/>
      <point x="373" y="71" type="curve"/>
      <point x="379" y="71" type="line"/>
      <point x="383" y="0" type="line"/>
      <point x="420" y="0" type="line"/>
      <point x="420" y="466" type="line"/>
      <point x="375" y="466" type="line"/>
      <point x="375" y="109" type="line"/>
      <point x="336" y="66"/>
      <point x="275" y="32"/>
      <point x="203" y="32" type="curve" smooth="yes"/>
      <point x="172" y="32"/>
      <point x="150" y="35"/>
      <point x="124" y="44" type="curve"/>
      <point x="124" y="466" type="line"/>
      <point x="79" y="466" type="line"/>
      <point x="79" y="82" type="line" smooth="yes"/>
      <point x="79" y="17"/>
      <point x="121" y="-9"/>
      <point x="196" y="-9" type="curve" smooth="yes"/>
    </contour>
    <contour>
      <point x="387" y="566" type="line"/>
      <point x="387" y="606" type="line"/>
      <point x="117" y="606" type="line"/>
      <point x="117" y="566" type="line"/>
    </contour>
  </outline>
</glyph>
<glyph name="Ubreve" format="1">
  <advance width="592"/>
  <unicode hex="016C"/>
  <note>
	Ubreve
  </note>
  <outline>
    <contour>
      <point x="420" y="-9"/>
      <point x="508" y="23"/>
      <point x="508" y="86" type="curve" smooth="yes"/>
      <point x="508" y="612" type="line"/>
      <point x="461" y="612" type="line"/>
      <point x="461" y="63" type="line"/>
      <point x="423" y="47"/>
      <point x="371" y="35"/>
      <point x="299" y="35" type="curve" smooth="yes"/>
      <point x="181" y="35"/>
      <point x="129" y="66"/>
      <point x="129" y="180" type="curve" smooth="yes"/>
      <point x="129" y="612" type="line"/>
      <point x="82" y="612" type="line"/>
      <point x="82" y="168" type="line" smooth="yes"/>
      <point x="82" y="47"/>
      <point x="152" y="-9"/>
      <point x="292" y="-9" type="curve" smooth="yes"/>
    </contour>
    <contour>
      <point x="374" y="709"/>
      <point x="408" y="753"/>
      <point x="419" y="810" type="curve"/>
      <point x="374" y="817" type="line"/>
      <point x="366" y="776"/>
      <point x="351" y="748"/>
      <point x="297" y="748" type="curve" smooth="yes"/>
      <point x="243" y="748"/>
      <point x="228" y="776"/>
      <point x="220" y="817" type="curve"/>
      <point x="175" y="810" type="line"/>
      <point x="186" y="753"/>
      <point x="220" y="709"/>
      <point x="297" y="709" type="curve" smooth="yes"/>
    </contour>
  </outline>
</glyph>
<glyph name="ubreve" format="1">
  <advance width="504"/>
  <unicode hex="016D"/>
  <note>
	ubreve
  </note>
  <outline>
    <contour>
      <point x="271" y="-9"/>
      <point x="322" y="22"/>
      <point x="373" y="71" type="curve"/>
      <point x="379" y="71" type="line"/>
      <point x="383" y="0" type="line"/>
      <point x="420" y="0" type="line"/>
      <point x="420" y="466" type="line"/>
      <point x="375" y="466" type="line"/>
      <point x="375" y="109" type="line"/>
      <point x="336" y="66"/>
      <point x="275" y="32"/>
      <point x="203" y="32" type="curve" smooth="yes"/>
      <point x="172" y="32"/>
      <point x="150" y="35"/>
      <point x="124" y="44" type="curve"/>
      <point x="124" y="466" type="line"/>
      <point x="79" y="466" type="line"/>
      <point x="79" y="82" type="line" smooth="yes"/>
      <point x="79" y="17"/>
      <point x="121" y="-9"/>
      <point x="196" y="-9" type="curve" smooth="yes"/>
    </contour>
    <contour>
      <point x="329" y="561"/>
      <point x="363" y="605"/>
      <point x="374" y="661" type="curve"/>
      <point x="329" y="669" type="line"/>
      <point x="321" y="628"/>
      <point x="306" y="600"/>
      <point x="252" y="600" type="curve" smooth="yes"/>
      <point x="198" y="600"/>
      <point x="183" y="628"/>
      <point x="175" y="669" type="curve"/>
      <point x="130" y="661" type="line"/>
      <point x="141" y="605"/>
      <point x="175" y="561"/>
      <point x="252" y="561" type="curve" smooth="yes"/>
    </contour>
  </outline>
</glyph>
<glyph name="uring" format="1">
  <advance width="504"/>
  <unicode hex="016F"/>
  <note>
	uring
  </note>
  <outline>
    <contour>
      <point x="271" y="-9"/>
      <point x="322" y="22"/>
      <point x="373" y="71" type="curve"/>
      <point x="379" y="71" type="line"/>
      <point x="383" y="0" type="line"/>
      <point x="420" y="0" type="line"/>
      <point x="420" y="466" type="line"/>
      <point x="375" y="466" type="line"/>
      <point x="375" y="109" type="line"/>
      <point x="336" y="66"/>
      <point x="275" y="32"/>
      <point x="203" y="32" type="curve" smooth="yes"/>
      <point x="172" y="32"/>
      <point x="150" y="35"/>
      <point x="124" y="44" type="curve"/>
      <point x="124" y="466" type="line"/>
      <point x="79" y="466" type="line"/>
      <point x="79" y="82" type="line" smooth="yes"/>
      <point x="79" y="17"/>
      <point x="121" y="-9"/>
      <point x="196" y="-9" type="curve" smooth="yes"/>
    </contour>
    <contour>
      <point x="319" y="559"/>
      <point x="358" y="602"/>
      <point x="358" y="651" type="curve" smooth="yes"/>
      <point x="358" y="705"/>
      <point x="326" y="734"/>
      <point x="261" y="734" type="curve" smooth="yes"/>
      <point x="189" y="734"/>
      <point x="146" y="689"/>
      <point x="146" y="640" type="curve" smooth="yes"/>
      <point x="146" y="588"/>
      <point x="181" y="559"/>
      <point x="244" y="559" type="curve" smooth="yes"/>
    </contour>
    <contour>
      <point x="203" y="591"/>
      <point x="182" y="610"/>
      <point x="182" y="643" type="curve" smooth="yes"/>
      <point x="182" y="659"/>
      <point x="184" y="673"/>
      <point x="191" y="693" type="curve"/>
      <point x="213" y="700"/>
      <point x="232" y="702"/>
      <point x="257" y="702" type="curve" smooth="yes"/>
      <point x="300" y="702"/>
      <point x="322" y="685"/>
      <point x="322" y="648" type="curve" smooth="yes"/>
      <point x="322" y="632"/>
      <point x="319" y="617"/>
      <point x="313" y="600" type="curve"/>
      <point x="291" y="593"/>
      <point x="272" y="591"/>
      <point x="246" y="591" type="curve" smooth="yes"/>
    </contour>
  </outline>
</glyph>
<glyph name="Uhungarumlaut" format="1">
  <advance width="592"/>
  <unicode hex="0170"/>
  <note>
	Uhungarumlaut
  </note>
  <outline>
    <contour>
      <point x="420" y="-9"/>
      <point x="508" y="23"/>
      <point x="508" y="86" type="curve" smooth="yes"/>
      <point x="508" y="612" type="line"/>
      <point x="461" y="612" type="line"/>
      <point x="461" y="63" type="line"/>
      <point x="423" y="47"/>
      <point x="371" y="35"/>
      <point x="299" y="35" type="curve" smooth="yes"/>
      <point x="181" y="35"/>
      <point x="129" y="66"/>
      <point x="129" y="180" type="curve" smooth="yes"/>
      <point x="129" y="612" type="line"/>
      <point x="82" y="612" type="line"/>
      <point x="82" y="168" type="line" smooth="yes"/>
      <point x="82" y="47"/>
      <point x="152" y="-9"/>
      <point x="292" y="-9" type="curve" smooth="yes"/>
    </contour>
    <contour>
      <point x="244" y="744"/>
      <point x="260" y="787"/>
      <point x="260" y="832" type="curve" smooth="yes"/>
      <point x="260" y="873"/>
      <point x="241" y="894"/>
      <point x="203" y="894" type="curve" smooth="yes"/>
      <point x="189" y="894"/>
      <point x="177" y="891"/>
      <point x="166" y="888" type="curve"/>
      <point x="166" y="855" type="line"/>
      <point x="221" y="855" type="line"/>
      <point x="221" y="795"/>
      <point x="208" y="755"/>
      <point x="185" y="714" type="curve"/>
      <point x="214" y="707" type="line"/>
    </contour>
    <contour>
      <point x="409" y="744"/>
      <point x="425" y="787"/>
      <point x="425" y="832" type="curve" smooth="yes"/>
      <point x="425" y="873"/>
      <point x="407" y="894"/>
      <point x="369" y="894" type="curve" smooth="yes"/>
      <point x="355" y="894"/>
      <point x="342" y="891"/>
      <point x="331" y="888" type="curve"/>
      <point x="331" y="855" type="line"/>
      <point x="386" y="855" type="line"/>
      <point x="386" y="795"/>
      <point x="373" y="755"/>
      <point x="350" y="714" type="curve"/>
      <point x="379" y="707" type="line"/>
    </contour>
  </outline>
</glyph>
<glyph name="uhungarumlaut" format="1">
  <advance width="504"/>
  <unicode hex="0171"/>
  <note>
	uhungarumlaut
  </note>
  <outline>
    <contour>
      <point x="271" y="-9"/>
      <point x="322" y="22"/>
      <point x="373" y="71" type="curve"/>
      <point x="379" y="71" type="line"/>
      <point x="383" y="0" type="line"/>
      <point x="420" y="0" type="line"/>
      <point x="420" y="466" type="line"/>
      <point x="375" y="466" type="line"/>
      <point x="375" y="109" type="line"/>
      <point x="336" y="66"/>
      <point x="275" y="32"/>
      <point x="203" y="32" type="curve" smooth="yes"/>
      <point x="172" y="32"/>
      <point x="150" y="35"/>
      <point x="124" y="44" type="curve"/>
      <point x="124" y="466" type="line"/>
      <point x="79" y="466" type="line"/>
      <point x="79" y="82" type="line" smooth="yes"/>
      <point x="79" y="17"/>
      <point x="121" y="-9"/>
      <point x="196" y="-9" type="curve" smooth="yes"/>
    </contour>
    <contour>
      <point x="200" y="595"/>
      <point x="216" y="637"/>
      <point x="216" y="683" type="curve" smooth="yes"/>
      <point x="216" y="724"/>
      <point x="197" y="745"/>
      <point x="159" y="745" type="curve" smooth="yes"/>
      <point x="145" y="745"/>
      <point x="133" y="742"/>
      <point x="122" y="739" type="curve"/>
      <point x="122" y="706" type="line"/>
      <point x="177" y="706" type="line"/>
      <point x="177" y="645"/>
      <point x="164" y="606"/>
      <point x="141" y="565" type="curve"/>
      <point x="170" y="558" type="line"/>
    </contour>
    <contour>
      <point x="365" y="595"/>
      <point x="381" y="637"/>
      <point x="381" y="683" type="curve" smooth="yes"/>
      <point x="381" y="724"/>
      <point x="363" y="745"/>
      <point x="325" y="745" type="curve" smooth="yes"/>
      <point x="311" y="745"/>
      <point x="298" y="742"/>
      <point x="287" y="739" type="curve"/>
      <point x="287" y="706" type="line"/>
      <point x="342" y="706" type="line"/>
      <point x="342" y="645"/>
      <point x="329" y="606"/>
      <point x="306" y="565" type="curve"/>
      <point x="335" y="558" type="line"/>
    </contour>
  </outline>
</glyph>
<glyph name="Uogonek" format="1">
  <advance width="592"/>
  <unicode hex="0172"/>
  <note>
	Uogonek
  </note>
  <outline>
    <contour>
      <point x="353" y="-163"/>
      <point x="370" y="-159"/>
      <point x="385" y="-152" type="curve"/>
      <point x="378" y="-120" type="line"/>
      <point x="363" y="-123"/>
      <point x="350" y="-125"/>
      <point x="337" y="-125" type="curve" smooth="yes"/>
      <point x="322" y="-125"/>
      <point x="311" y="-124"/>
      <point x="297" y="-121" type="curve"/>
      <point x="292" y="-111"/>
      <point x="289" y="-98"/>
      <point x="289" y="-85" type="curve" smooth="yes"/>
      <point x="289" y="-53"/>
      <point x="300" y="-31"/>
      <point x="333" y="-8" type="curve"/>
      <point x="439" y="-2"/>
      <point x="508" y="30"/>
      <point x="508" y="86" type="curve" smooth="yes"/>
      <point x="508" y="612" type="line"/>
      <point x="461" y="612" type="line"/>
      <point x="461" y="63" type="line"/>
      <point x="423" y="47"/>
      <point x="371" y="35"/>
      <point x="299" y="35" type="curve" smooth="yes"/>
      <point x="181" y="35"/>
      <point x="129" y="66"/>
      <point x="129" y="180" type="curve" smooth="yes"/>
      <point x="129" y="612" type="line"/>
      <point x="82" y="612" type="line"/>
      <point x="82" y="168" type="line" smooth="yes"/>
      <point x="82" y="49"/>
      <point x="150" y="-8"/>
      <point x="285" y="-9" type="curve"/>
      <point x="260" y="-29"/>
      <point x="247" y="-53"/>
      <point x="247" y="-86" type="curve" smooth="yes"/>
      <point x="247" y="-132"/>
      <point x="276" y="-163"/>
      <point x="329" y="-163" type="curve" smooth="yes"/>
    </contour>
  </outline>
</glyph>
<glyph name="uogonek" format="1">
  <advance width="504"/>
  <unicode hex="0173"/>
  <note>
	uogonek
  </note>
  <outline>
    <contour>
      <point x="271" y="-9"/>
      <point x="322" y="22"/>
      <point x="373" y="71" type="curve"/>
      <point x="379" y="71" type="line"/>
      <point x="383" y="0" type="line"/>
      <point x="420" y="0" type="line"/>
      <point x="420" y="466" type="line"/>
      <point x="375" y="466" type="line"/>
      <point x="375" y="109" type="line"/>
      <point x="336" y="66"/>
      <point x="275" y="32"/>
      <point x="203" y="32" type="curve" smooth="yes"/>
      <point x="172" y="32"/>
      <point x="150" y="35"/>
      <point x="124" y="44" type="curve"/>
      <point x="124" y="466" type="line"/>
      <point x="79" y="466" type="line"/>
      <point x="79" y="82" type="line" smooth="yes"/>
      <point x="79" y="17"/>
      <point x="121" y="-9"/>
      <point x="196" y="-9" type="curve" smooth="yes"/>
    </contour>
    <contour>
      <point x="416" y="-166"/>
      <point x="433" y="-162"/>
      <point x="448" y="-155" type="curve"/>
      <point x="441" y="-123" type="line"/>
      <point x="426" y="-126"/>
      <point x="413" y="-128"/>
      <point x="400" y="-128" type="curve" smooth="yes"/>
      <point x="385" y="-128"/>
      <point x="374" y="-127"/>
      <point x="360" y="-124" type="curve"/>
      <point x="355" y="-113"/>
      <point x="352" y="-100"/>
      <point x="352" y="-88" type="curve" smooth="yes"/>
      <point x="352" y="-49"/>
      <point x="368" y="-24"/>
      <point x="417" y="3" type="curve"/>
      <point x="392" y="12" type="line"/>
      <point x="339" y="-10"/>
      <point x="310" y="-41"/>
      <point x="310" y="-89" type="curve" smooth="yes"/>
      <point x="310" y="-136"/>
      <point x="338" y="-166"/>
      <point x="392" y="-166" type="curve" smooth="yes"/>
    </contour>
  </outline>
</glyph>
<glyph name="Ycircumflex" format="1">
  <advance width="591"/>
  <unicode hex="0176"/>
  <note>
	Ycircumflex
  </note>
  <outline>
    <contour>
      <point x="319" y="0" type="line"/>
      <point x="319" y="228" type="line"/>
      <point x="338" y="228" type="line"/>
      <point x="422" y="332"/>
      <point x="495" y="455"/>
      <point x="559" y="604" type="curve"/>
      <point x="512" y="618" type="line"/>
      <point x="458" y="482"/>
      <point x="382" y="356"/>
      <point x="314" y="267" type="curve"/>
      <point x="277" y="267" type="line"/>
      <point x="208" y="356"/>
      <point x="133" y="482"/>
      <point x="79" y="618" type="curve"/>
      <point x="32" y="604" type="line"/>
      <point x="95" y="455"/>
      <point x="169" y="332"/>
      <point x="253" y="228" type="curve"/>
      <point x="272" y="228" type="line"/>
      <point x="272" y="0" type="line"/>
    </contour>
    <contour>
      <point x="293" y="805" type="line"/>
      <point x="298" y="805" type="line"/>
      <point x="391" y="707" type="line"/>
      <point x="421" y="714" type="line"/>
      <point x="320" y="845" type="line"/>
      <point x="271" y="845" type="line"/>
      <point x="169" y="714" type="line"/>
      <point x="199" y="707" type="line"/>
    </contour>
  </outline>
</glyph>
<glyph name="zacute" format="1">
  <advance width="436"/>
  <unicode hex="017A"/>
  <note>
	zacute
  </note>
  <outline>
    <contour>
      <point x="380" y="0" type="line"/>
      <point x="380" y="38" type="line" smooth="yes"/>
      <point x="380" y="57"/>
      <point x="376" y="83"/>
      <point x="371" y="103" type="curve"/>
      <point x="340" y="103" type="line"/>
      <point x="335" y="39" type="line"/>
      <point x="104" y="39" type="line"/>
      <point x="104" y="47" type="line"/>
      <point x="368" y="412" type="line"/>
      <point x="368" y="466" type="line"/>
      <point x="66" y="466" type="line"/>
      <point x="66" y="431" type="line" smooth="yes"/>
      <point x="66" y="409"/>
      <point x="70" y="386"/>
      <point x="75" y="367" type="curve"/>
      <point x="106" y="367" type="line"/>
      <point x="111" y="427" type="line"/>
      <point x="321" y="427" type="line"/>
      <point x="321" y="420" type="line"/>
      <point x="57" y="52" type="line"/>
      <point x="57" y="0" type="line"/>
    </contour>
    <contour>
      <point x="332" y="700" type="line"/>
      <point x="270" y="706" type="line"/>
      <point x="186" y="566" type="line"/>
      <point x="218" y="560" type="line"/>
    </contour>
  </outline>
</glyph>
<glyph name="Zcaron" format="1">
  <advance width="545"/>
  <unicode hex="017D"/>
  <note>
	Zcaron
  </note>
  <outline>
    <contour>
      <point x="486" y="0" type="line"/>
      <point x="486" y="30" type="line" smooth="yes"/>
      <point x="486" y="63"/>
      <point x="480" y="95"/>
      <point x="471" y="118" type="curve"/>
      <point x="438" y="118" type="line"/>
      <point x="438" y="43" type="line"/>
      <point x="112" y="43" type="line"/>
      <point x="112" y="52" type="line"/>
      <point x="477" y="556" type="line"/>
      <point x="477" y="612" type="line"/>
      <point x="76" y="612" type="line"/>
      <point x="76" y="581" type="line" smooth="yes"/>
      <point x="76" y="547"/>
      <point x="82" y="521"/>
      <point x="90" y="498" type="curve"/>
      <point x="124" y="498" type="line"/>
      <point x="124" y="568" type="line"/>
      <point x="424" y="568" type="line"/>
      <point x="424" y="560" type="line"/>
      <point x="60" y="58" type="line"/>
      <point x="60" y="0" type="line"/>
    </contour>
    <contour>
      <point x="300" y="714" type="line"/>
      <point x="401" y="845" type="line"/>
      <point x="371" y="852" type="line"/>
      <point x="278" y="754" type="line"/>
      <point x="273" y="754" type="line"/>
      <point x="179" y="852" type="line"/>
      <point x="149" y="845" type="line"/>
      <point x="251" y="714" type="line"/>
    </contour>
  </outline>
</glyph>
<glyph name="zcaron" format="1">
  <advance width="437"/>
  <unicode hex="017E"/>
  <note>
	zcaron
  </note>
  <outline>
    <contour>
      <point x="382" y="0" type="line"/>
      <point x="382" y="38" type="line" smooth="yes"/>
      <point x="382" y="57"/>
      <point x="378" y="83"/>
      <point x="373" y="103" type="curve"/>
      <point x="342" y="103" type="line"/>
      <point x="337" y="39" type="line"/>
      <point x="106" y="39" type="line"/>
      <point x="106" y="47" type="line"/>
      <point x="370" y="412" type="line"/>
      <point x="370" y="466" type="line"/>
      <point x="68" y="466" type="line"/>
      <point x="68" y="431" type="line" smooth="yes"/>
      <point x="68" y="409"/>
      <point x="72" y="386"/>
      <point x="77" y="367" type="curve"/>
      <point x="108" y="367" type="line"/>
      <point x="113" y="427" type="line"/>
      <point x="323" y="427" type="line"/>
      <point x="323" y="420" type="line"/>
      <point x="59" y="52" type="line"/>
      <point x="59" y="0" type="line"/>
    </contour>
    <contour>
      <point x="249" y="566" type="line"/>
      <point x="350" y="697" type="line"/>
      <point x="320" y="704" type="line"/>
      <point x="227" y="606" type="line"/>
      <point x="222" y="606" type="line"/>
      <point x="128" y="704" type="line"/>
      <point x="98" y="697" type="line"/>
      <point x="200" y="566" type="line"/>
    </contour>
  </outline>
</glyph>
<glyph name="florin" format="1">
  <advance width="449"/>
  <unicode hex="0192"/>
  <note>
	florin
  </note>
  <outline>
    <contour>
      <point x="139" y="-150"/>
      <point x="169" y="-112"/>
      <point x="183" y="-16" type="curve" smooth="yes"/>
      <point x="243" y="413" type="line"/>
      <point x="345" y="413" type="line"/>
      <point x="355" y="453" type="line"/>
      <point x="248" y="453" type="line"/>
      <point x="260" y="537" type="line" smooth="yes"/>
      <point x="264" y="562"/>
      <point x="269" y="581"/>
      <point x="281" y="606" type="curve"/>
      <point x="306" y="613"/>
      <point x="327" y="616"/>
      <point x="351" y="616" type="curve" smooth="yes"/>
      <point x="378" y="616"/>
      <point x="395" y="613"/>
      <point x="417" y="605" type="curve"/>
      <point x="433" y="643" type="line"/>
      <point x="412" y="651"/>
      <point x="390" y="657"/>
      <point x="359" y="657" type="curve" smooth="yes"/>
      <point x="344" y="657"/>
      <point x="323" y="655"/>
      <point x="301" y="651" type="curve"/>
      <point x="263" y="634"/>
      <point x="226" y="599"/>
      <point x="217" y="543" type="curve" smooth="yes"/>
      <point x="204" y="453" type="line"/>
      <point x="142" y="453" type="line"/>
      <point x="132" y="413" type="line"/>
      <point x="198" y="413" type="line"/>
      <point x="138" y="-20" type="line" smooth="yes"/>
      <point x="133" y="-52"/>
      <point x="128" y="-75"/>
      <point x="116" y="-97" type="curve"/>
      <point x="90" y="-104"/>
      <point x="75" y="-105"/>
      <point x="52" y="-105" type="curve" smooth="yes"/>
      <point x="36" y="-105"/>
      <point x="16" y="-103"/>
      <point x="5" y="-101" type="curve"/>
      <point x="-5" y="-142" type="line"/>
      <point x="11" y="-147"/>
      <point x="30" y="-150"/>
      <point x="51" y="-150" type="curve" smooth="yes"/>
    </contour>
  </outline>
</glyph>
<glyph name="Uhorn" format="1">
  <advance width="719"/>
  <unicode hex="01AF"/>
  <note>
	Uhorn
  </note>
  <outline>
    <contour>
      <point x="420" y="-11"/>
      <point x="508" y="21"/>
      <point x="508" y="85" type="curve" smooth="yes"/>
      <point x="508" y="456" type="line"/>
      <point x="636" y="491"/>
      <point x="711" y="560"/>
      <point x="711" y="692" type="curve"/>
      <point x="664" y="692" type="line"/>
      <point x="661" y="580"/>
      <point x="603" y="534"/>
      <point x="519" y="501" type="curve"/>
      <point x="507" y="501" type="line"/>
      <point x="507" y="612" type="line"/>
      <point x="461" y="612" type="line"/>
      <point x="461" y="62" type="line"/>
      <point x="423" y="45"/>
      <point x="371" y="34"/>
      <point x="299" y="34" type="curve" smooth="yes"/>
      <point x="181" y="34"/>
      <point x="129" y="65"/>
      <point x="129" y="178" type="curve" smooth="yes"/>
      <point x="129" y="612" type="line"/>
      <point x="82" y="612" type="line"/>
      <point x="82" y="166" type="line" smooth="yes"/>
      <point x="82" y="45"/>
      <point x="152" y="-11"/>
      <point x="292" y="-11" type="curve" smooth="yes"/>
    </contour>
  </outline>
</glyph>
<glyph name="Acaron" format="1">
  <advance width="580"/>
  <unicode hex="01CD"/>
  <note>
	Acaron
  </note>
  <outline>
    <contour>
      <point x="110" y="66"/>
      <point x="133" y="147"/>
      <point x="153" y="215" type="curve"/>
      <point x="426" y="215" type="line"/>
      <point x="447" y="147"/>
      <point x="470" y="66"/>
      <point x="487" y="0" type="curve"/>
      <point x="536" y="6" type="line"/>
      <point x="481" y="205"/>
      <point x="411" y="432"/>
      <point x="344" y="612" type="curve"/>
      <point x="236" y="612" type="line"/>
      <point x="169" y="432"/>
      <point x="99" y="205"/>
      <point x="44" y="6" type="curve"/>
      <point x="93" y="0" type="line"/>
    </contour>
    <contour>
      <point x="197" y="363"/>
      <point x="240" y="496"/>
      <point x="266" y="567" type="curve"/>
      <point x="312" y="567" type="line"/>
      <point x="339" y="496"/>
      <point x="381" y="363"/>
      <point x="412" y="258" type="curve"/>
      <point x="166" y="258" type="line"/>
    </contour>
    <contour>
      <point x="314" y="714" type="line"/>
      <point x="415" y="845" type="line"/>
      <point x="385" y="852" type="line"/>
      <point x="292" y="754" type="line"/>
      <point x="287" y="754" type="line"/>
      <point x="193" y="852" type="line"/>
      <point x="163" y="845" type="line"/>
      <point x="265" y="714" type="line"/>
    </contour>
  </outline>
</glyph>
<glyph name="Ucaron" format="1">
  <advance width="592"/>
  <unicode hex="01D3"/>
  <note>
	Ucaron
  </note>
  <outline>
    <contour>
      <point x="420" y="-9"/>
      <point x="508" y="23"/>
      <point x="508" y="86" type="curve" smooth="yes"/>
      <point x="508" y="612" type="line"/>
      <point x="461" y="612" type="line"/>
      <point x="461" y="63" type="line"/>
      <point x="423" y="47"/>
      <point x="371" y="35"/>
      <point x="299" y="35" type="curve" smooth="yes"/>
      <point x="181" y="35"/>
      <point x="129" y="66"/>
      <point x="129" y="180" type="curve" smooth="yes"/>
      <point x="129" y="612" type="line"/>
      <point x="82" y="612" type="line"/>
      <point x="82" y="168" type="line" smooth="yes"/>
      <point x="82" y="47"/>
      <point x="152" y="-9"/>
      <point x="292" y="-9" type="curve" smooth="yes"/>
    </contour>
    <contour>
      <point x="319" y="714" type="line"/>
      <point x="420" y="845" type="line"/>
      <point x="390" y="852" type="line"/>
      <point x="297" y="754" type="line"/>
      <point x="292" y="754" type="line"/>
      <point x="198" y="852" type="line"/>
      <point x="168" y="845" type="line"/>
      <point x="270" y="714" type="line"/>
    </contour>
  </outline>
</glyph>
<glyph name="Udieresismacron" format="1">
  <advance width="592"/>
  <unicode hex="01D5"/>
  <note>
	Udieresismacron
  </note>
  <outline>
    <contour>
      <point x="420" y="-9"/>
      <point x="508" y="23"/>
      <point x="508" y="86" type="curve" smooth="yes"/>
      <point x="508" y="612" type="line"/>
      <point x="461" y="612" type="line"/>
      <point x="461" y="63" type="line"/>
      <point x="423" y="47"/>
      <point x="371" y="35"/>
      <point x="299" y="35" type="curve" smooth="yes"/>
      <point x="181" y="35"/>
      <point x="129" y="66"/>
      <point x="129" y="180" type="curve" smooth="yes"/>
      <point x="129" y="612" type="line"/>
      <point x="82" y="612" type="line"/>
      <point x="82" y="168" type="line" smooth="yes"/>
      <point x="82" y="47"/>
      <point x="152" y="-9"/>
      <point x="292" y="-9" type="curve" smooth="yes"/>
    </contour>
    <contour>
      <point x="238" y="713"/>
      <point x="250" y="724"/>
      <point x="250" y="744" type="curve" smooth="yes"/>
      <point x="250" y="765"/>
      <point x="238" y="776"/>
      <point x="218" y="776" type="curve" smooth="yes"/>
      <point x="198" y="776"/>
      <point x="185" y="765"/>
      <point x="185" y="744" type="curve" smooth="yes"/>
      <point x="185" y="724"/>
      <point x="198" y="713"/>
      <point x="218" y="713" type="curve" smooth="yes"/>
    </contour>
    <contour>
      <point x="396" y="713"/>
      <point x="408" y="724"/>
      <point x="408" y="744" type="curve" smooth="yes"/>
      <point x="408" y="765"/>
      <point x="396" y="776"/>
      <point x="376" y="776" type="curve" smooth="yes"/>
      <point x="355" y="776"/>
      <point x="342" y="765"/>
      <point x="342" y="744" type="curve" smooth="yes"/>
      <point x="342" y="724"/>
      <point x="355" y="713"/>
      <point x="376" y="713" type="curve" smooth="yes"/>
    </contour>
    <contour>
      <point x="433" y="843" type="line"/>
      <point x="433" y="883" type="line"/>
      <point x="163" y="883" type="line"/>
      <point x="163" y="843" type="line"/>
    </contour>
  </outline>
</glyph>
<glyph name="udieresismacron" format="1">
  <advance width="504"/>
  <unicode hex="01D6"/>
  <note>
	udieresismacron
  </note>
  <outline>
    <contour>
      <point x="271" y="-9"/>
      <point x="322" y="22"/>
      <point x="373" y="71" type="curve"/>
      <point x="379" y="71" type="line"/>
      <point x="383" y="0" type="line"/>
      <point x="420" y="0" type="line"/>
      <point x="420" y="466" type="line"/>
      <point x="375" y="466" type="line"/>
      <point x="375" y="109" type="line"/>
      <point x="336" y="66"/>
      <point x="275" y="32"/>
      <point x="203" y="32" type="curve" smooth="yes"/>
      <point x="172" y="32"/>
      <point x="150" y="35"/>
      <point x="124" y="44" type="curve"/>
      <point x="124" y="466" type="line"/>
      <point x="79" y="466" type="line"/>
      <point x="79" y="82" type="line" smooth="yes"/>
      <point x="79" y="17"/>
      <point x="121" y="-9"/>
      <point x="196" y="-9" type="curve" smooth="yes"/>
    </contour>
    <contour>
      <point x="191" y="561"/>
      <point x="203" y="572"/>
      <point x="203" y="592" type="curve" smooth="yes"/>
      <point x="203" y="613"/>
      <point x="191" y="624"/>
      <point x="171" y="624" type="curve" smooth="yes"/>
      <point x="151" y="624"/>
      <point x="138" y="613"/>
      <point x="138" y="592" type="curve" smooth="yes"/>
      <point x="138" y="572"/>
      <point x="151" y="561"/>
      <point x="171" y="561" type="curve" smooth="yes"/>
    </contour>
    <contour>
      <point x="349" y="561"/>
      <point x="361" y="572"/>
      <point x="361" y="592" type="curve" smooth="yes"/>
      <point x="361" y="613"/>
      <point x="349" y="624"/>
      <point x="329" y="624" type="curve" smooth="yes"/>
      <point x="308" y="624"/>
      <point x="295" y="613"/>
      <point x="295" y="592" type="curve" smooth="yes"/>
      <point x="295" y="572"/>
      <point x="308" y="561"/>
      <point x="329" y="561" type="curve" smooth="yes"/>
    </contour>
    <contour>
      <point x="386" y="691" type="line"/>
      <point x="386" y="731" type="line"/>
      <point x="116" y="731" type="line"/>
      <point x="116" y="691" type="line"/>
    </contour>
  </outline>
</glyph>
<glyph name="Udieresisacute" format="1">
  <advance width="592"/>
  <unicode hex="01D7"/>
  <note>
	Udieresisacute
  </note>
  <outline>
    <contour>
      <point x="420" y="-9"/>
      <point x="508" y="23"/>
      <point x="508" y="86" type="curve" smooth="yes"/>
      <point x="508" y="612" type="line"/>
      <point x="461" y="612" type="line"/>
      <point x="461" y="63" type="line"/>
      <point x="423" y="47"/>
      <point x="371" y="35"/>
      <point x="299" y="35" type="curve" smooth="yes"/>
      <point x="181" y="35"/>
      <point x="129" y="66"/>
      <point x="129" y="180" type="curve" smooth="yes"/>
      <point x="129" y="612" type="line"/>
      <point x="82" y="612" type="line"/>
      <point x="82" y="168" type="line" smooth="yes"/>
      <point x="82" y="47"/>
      <point x="152" y="-9"/>
      <point x="292" y="-9" type="curve" smooth="yes"/>
    </contour>
    <contour>
      <point x="237" y="713"/>
      <point x="249" y="725"/>
      <point x="249" y="745" type="curve" smooth="yes"/>
      <point x="249" y="766"/>
      <point x="237" y="777"/>
      <point x="217" y="777" type="curve" smooth="yes"/>
      <point x="197" y="777"/>
      <point x="184" y="766"/>
      <point x="184" y="745" type="curve" smooth="yes"/>
      <point x="184" y="725"/>
      <point x="197" y="713"/>
      <point x="217" y="713" type="curve" smooth="yes"/>
    </contour>
    <contour>
      <point x="395" y="713"/>
      <point x="407" y="725"/>
      <point x="407" y="745" type="curve" smooth="yes"/>
      <point x="407" y="766"/>
      <point x="395" y="777"/>
      <point x="375" y="777" type="curve" smooth="yes"/>
      <point x="354" y="777"/>
      <point x="341" y="766"/>
      <point x="341" y="745" type="curve" smooth="yes"/>
      <point x="341" y="725"/>
      <point x="354" y="713"/>
      <point x="375" y="713" type="curve" smooth="yes"/>
    </contour>
    <contour>
      <point x="400" y="954" type="line"/>
      <point x="344" y="962" type="line"/>
      <point x="276" y="848" type="line"/>
      <point x="308" y="842" type="line"/>
    </contour>
  </outline>
</glyph>
